<mxfile host="app.diagrams.net" agent="Mozilla/5.0 (Windows NT 10.0; Win64; x64) AppleWebKit/537.36 (KHTML, like Gecko) Chrome/141.0.0.0 Safari/537.36 Edg/141.0.0.0" version="28.2.8">
  <diagram name="Page-1" id="xBpg2Vj0iMIJH8U0e_Va">
    <mxGraphModel dx="2971" dy="909" grid="0" gridSize="10" guides="1" tooltips="1" connect="1" arrows="1" fold="1" page="0" pageScale="1" pageWidth="850" pageHeight="1100" math="0" shadow="0">
      <root>
        <mxCell id="0" />
        <mxCell id="1" parent="0" />
        <UserObject label="" plantUmlData="{&#xa;  &quot;data&quot;: &quot;@startuml\n&#39; Class Diagram (Rich Domain Model) - PHIÊN BẢN SIÊU CHI TIẾT\n\ntitle Hệ thống Đặt sân bóng đá - Sơ đồ Lớp (Chi tiết Tối đa)\n\nskinparam classAttributeIconSize 0\nskinparam package {\n  BackgroundColor #ECEFF4\n  BorderColor #D8DEE9\n}\n\n&#39; ========================================\npackage \&quot;Enums (Các kiểu dữ liệu trạng thái)\&quot; {\n  enum AccountStatus {\n    ACTIVE\n    SUSPENDED\n    PENDING_VERIFICATION\n  }\n  enum FieldStatus {\n    AVAILABLE\n    MAINTENANCE\n    CLOSED\n  }\n  enum BookingStatus {\n    PENDING_PAYMENT\n    CONFIRMED\n    CANCELLED\n    COMPLETED\n  }\n  enum PaymentStatus {\n    PENDING\n    SUCCESS\n    FAILED\n    REFUNDED\n  }\n  enum FeedbackCategory {\n    BUG_REPORT\n    FEATURE_REQUEST\n    COMPLAINT\n  }\n  enum FeedbackStatus {\n    NEW\n    IN_PROGRESS\n    RESOLVED\n  }\n}\n\n&#39; ========================================\npackage \&quot;1. KHỐI USER &amp; PHÂN QUYỀN\&quot; {\n    class UserProfile {\n      + id: string\n      + fullName: string\n      + phoneNumber: string\n      + avatarUrl: string\n      + createdAt: Date\n      --\n      + updateDetails(data): void\n    }\n\n    class Role {\n      + id: int\n      + name: string &#39; MEMBER, ADMIN, STAFF\n    }\n\n    class Account {\n      + id: string\n      + email: string\n      + passwordHash: string\n      + provider: string &#39; local, google\n      + status: AccountStatus\n      + isVerified: boolean\n      + lastLogin: Date\n      --\n      + changePassword(oldPass, newPass): void\n      + verify(): void\n      + suspend(): void\n      + activate(): void\n      + setRole(role: Role): void\n    }\n}\n\n&#39; ========================================\npackage \&quot;2. KHỐI SÂN BÓNG &amp; VỊ TRÍ\&quot; {\n    class Address {\n      + id: string\n      + street: string\n      &#39; + city, district, ward (là các thực thể riêng)\n      --\n      + getFullAddress(): string\n    }\n\n    class Utility {\n      + id: int\n      + name: string\n      + iconUrl: string\n    }\n\n    class FieldType {\n      + id: string\n      + name: string\n      + description: string\n    }\n\n    class Field {\n      + id: string\n      + name: string\n      + description: string\n      + status: FieldStatus\n      --\n      + addUtility(utility: Utility): void\n      + removeUtility(utility: Utility): void\n      + addImage(imageUrl, isCover): FieldImage\n      + setCoverImage(image: FieldImage): void\n      + open(): void\n      + closeForMaintenance(): void\n    }\n    \n    class FieldImage {\n      + id: string\n      + imageUrl: string\n      + isCover: boolean\n    }\n}\n\n&#39; ========================================\npackage \&quot;3. KHỐI ĐẶT SÂN &amp; GIÁ CẢ\&quot; {\n    class TimeSlot {\n      + id: int\n      + startTime: Time\n      + endTime: Time\n      + price: number\n      + isPeakHour: boolean\n      --\n      + updatePrice(newPrice): void\n    }\n\n    class Booking {\n      + id: string\n      + bookingDate: Date\n      + totalPrice: number\n      + status: BookingStatus\n      + createdAt: Date\n      --\n      + confirm(): void\n      + cancel(reason: string): void\n      + complete(): void\n      + calculateTotalPrice(): number\n      + isPastBooking(): boolean\n    }\n}\n\n&#39; ========================================\npackage \&quot;4. KHỐI THANH TOÁN &amp; KHUYẾN MÃI\&quot; {\n    class Voucher {\n      + id: string\n      + code: string\n      + discountAmount: number\n      + discountPercentage: int\n      + validFrom: Date\n      + validTo: Date\n      + usageLimit: int\n      + usageCount: int\n      --\n      + applyTo(payment: Payment): void\n      + isExpired(): boolean\n      + isUsageLimitReached(): boolean\n    }\n\n    class Payment {\n      + id: string\n      + amount: number\n      + finalAmount: number\n      + status: PaymentStatus\n      + paymentMethod: string\n      + transactionCode: string\n      + createdAt: Date\n      + completedAt: Date\n      --\n      + markAsSuccess(transCode): void\n      + markAsFailed(): void\n      + initiateRefund(): Refund\n    }\n}\n\n&#39; ========================================\npackage \&quot;5. KHỐI HỖ TRỢ &amp; PHẢN HỒI\&quot; {\n    class Review {\n      + id: string\n      + rating: int\n      + comment: string\n      + createdAt: Date\n    }\n    \n    class Notification {\n      + id: string\n      + title: string\n      + content: string\n      + isRead: boolean\n      + createdAt: Date\n      --\n      + markAsRead(): void\n    }\n    \n    class Feedback {\n      + id: string\n      + title: string\n      + content: string\n      + category: FeedbackCategory\n      + status: FeedbackStatus\n      + createdAt: Date\n      + resolvedAt: Date\n      --\n      + addResponse(response: FeedbackResponse): void\n      + assignTo(admin: UserProfile): void\n      + resolve(): void\n      + close(): void\n    }\n    \n    class FeedbackResponse {\n      + id: string\n      + content: string\n      + createdAt: Date\n    }\n}\n\n\n&#39; --- ĐỊNH NGHĨA CÁC MỐI QUAN HỆ CHI TIẾT ---\n\n&#39; Khối 1: User\nUserProfile \&quot;1\&quot; *-- \&quot;1..*\&quot; Account : has\nRole \&quot;1\&quot; -- \&quot;0..*\&quot; Account : defines\n\n&#39; Khối 2: Field\nField \&quot;1\&quot; *-- \&quot;1\&quot; Address : located at\nField \&quot;1\&quot; *-- \&quot;1..*\&quot; FieldImage : has\nFieldType \&quot;1\&quot; o-- \&quot;0..*\&quot; Field : categorizes\n&#39; Mối quan hệ Nhiều-Nhiều giữa Field và Utility, dùng bảng nối\nField \&quot;1\&quot; *-- \&quot;0..*\&quot; Utility : provides\n\n&#39; Khối 3: Booking\nFieldType \&quot;1\&quot; o-- \&quot;0..*\&quot; TimeSlot : has pricing for\nUserProfile \&quot;1\&quot; *-- \&quot;0..*\&quot; Booking : makes\nField \&quot;1\&quot; *-- \&quot;0..*\&quot; Booking : is for\nTimeSlot \&quot;1\&quot; -- \&quot;0..*\&quot; Booking : at\n\n&#39; Khối 4: Payment\nBooking \&quot;1\&quot; *-- \&quot;1\&quot; Payment : requires\nVoucher \&quot;1\&quot; o-- \&quot;0..*\&quot; Payment : applies\n\n&#39; Khối 5: Support\nUserProfile \&quot;1\&quot; *-- \&quot;0..*\&quot; Review : writes\nField \&quot;1\&quot; *-- \&quot;0..*\&quot; Review : receives\nUserProfile \&quot;1\&quot; *-- \&quot;0..*\&quot; Notification : receives\nUserProfile \&quot;1\&quot; *-- \&quot;0..*\&quot; Feedback : submits\nFeedback \&quot;1\&quot; *-- \&quot;0..*\&quot; FeedbackResponse : contains\nUserProfile \&quot;1\&quot; -- \&quot;0..*\&quot; FeedbackResponse : responds\nUserProfile \&quot;1\&quot; -- \&quot;0..*\&quot; Feedback : assigned to\n\n@enduml&quot;,&#xa;  &quot;format&quot;: &quot;svg&quot;&#xa;}" id="TPhUmxlgc8vkzhhLvLJH-3">
          <mxCell style="shape=image;noLabel=1;verticalAlign=top;aspect=fixed;imageAspect=0;image=data:image/svg+xml,PHN2ZyB4bWxucz0iaHR0cDovL3d3dy53My5vcmcvMjAwMC9zdmciIHhtbG5zOnhsaW5rPSJodHRwOi8vd3d3LnczLm9yZy8xOTk5L3hsaW5rIiBjb250ZW50U3R5bGVUeXBlPSJ0ZXh0L2NzcyIgZGF0YS1kaWFncmFtLXR5cGU9IkNMQVNTIiBoZWlnaHQ9IjEyMzVweCIgcHJlc2VydmVBc3BlY3RSYXRpbz0ibm9uZSIgc3R5bGU9IndpZHRoOjMxNzBweDtoZWlnaHQ6MTIzNXB4O2JhY2tncm91bmQ6I0ZGRkZGRjsiIHZlcnNpb249IjEuMSIgdmlld0JveD0iMCAwIDMxNzAgMTIzNSIgd2lkdGg9IjMxNzBweCIgem9vbUFuZFBhbj0ibWFnbmlmeSI+PHRpdGxlPkgmIzc4Nzk7IHRoJiM3ODg5O25nICYjMjcyOyYjNzg2Mzt0IHMmIzIyNjtuIGImIzI0MztuZyAmIzI3MzsmIzIyNTsgLSBTJiM0MTc7ICYjMjczOyYjNzg5MTsgTCYjNzg5OTtwIChDaGkgdGkmIzc4NzE7dCBUJiM3ODg5O2kgJiMyNzM7YSk8L3RpdGxlPjxkZWZzLz48Zz48dGV4dCBmaWxsPSIjMDAwMDAwIiBmb250LWZhbWlseT0ic2Fucy1zZXJpZiIgZm9udC1zaXplPSIxNCIgZm9udC13ZWlnaHQ9ImJvbGQiIGxlbmd0aEFkanVzdD0ic3BhY2luZyIgdGV4dExlbmd0aD0iMzc4IiB4PSIxMzg5IiB5PSIyMy4yMzQ0Ij5IJiM3ODc5OyB0aCYjNzg4OTtuZyAmIzI3MjsmIzc4NjM7dCBzJiMyMjY7biBiJiMyNDM7bmcgJiMyNzM7JiMyMjU7IC0gUyYjNDE3OyAmIzI3MzsmIzc4OTE7IEwmIzc4OTk7cCAoQ2hpIHRpJiM3ODcxO3QgVCYjNzg4OTtpICYjMjczO2EpPC90ZXh0PjwhLS1jbHVzdGVyIEVudW1zIChDP2Mga2k/dSBkPyBsaT91IHRyP25nIHRoP2kpLS0+PGcgY2xhc3M9ImNsdXN0ZXIiIGRhdGEtZW50aXR5PSJFbnVtcyAoQyYjMjI1O2Mga2kmIzc4NzU7dSBkJiM3OTE5OyBsaSYjNzg3OTt1IHRyJiM3ODQxO25nIHRoJiMyMjU7aSkiIGRhdGEtc291cmNlLWxpbmU9IjEyIiBkYXRhLXVpZD0iZW50MDAwMiIgaWQ9ImNsdXN0ZXJfRW51bXMgKEMmIzIyNTtjIGtpJiM3ODc1O3UgZCYjNzkxOTsgbGkmIzc4Nzk7dSB0ciYjNzg0MTtuZyB0aCYjMjI1O2kpIj48cGF0aCBkPSJNOC41LDc1LjQ4NDQgTDI1NC41LDc1LjQ4NDQgQTMuNzUsMy43NSAwIDAgMSAyNTcsNzcuOTg0NCBMMjY0LDk2LjQ2ODggTDUwMy41LDk2LjQ2ODggQTIuNSwyLjUgMCAwIDEgNTA2LDk4Ljk2ODggTDUwNiw0ODcuOTg0NCBBMi41LDIuNSAwIDAgMSA1MDMuNSw0OTAuNDg0NCBMOC41LDQ5MC40ODQ0IEEyLjUsMi41IDAgMCAxIDYsNDg3Ljk4NDQgTDYsNzcuOTg0NCBBMi41LDIuNSAwIDAgMSA4LjUsNzUuNDg0NCIgZmlsbD0iI0VDRUZGNCIgc3R5bGU9InN0cm9rZTojRDhERUU5O3N0cm9rZS13aWR0aDoxLjU7Ii8+PGxpbmUgc3R5bGU9InN0cm9rZTojRDhERUU5O3N0cm9rZS13aWR0aDoxLjU7IiB4MT0iNiIgeDI9IjI2NCIgeTE9Ijk2LjQ2ODgiIHkyPSI5Ni40Njg4Ii8+PHRleHQgZmlsbD0iIzAwMDAwMCIgZm9udC1mYW1pbHk9InNhbnMtc2VyaWYiIGZvbnQtc2l6ZT0iMTQiIGZvbnQtd2VpZ2h0PSJib2xkIiBsZW5ndGhBZGp1c3Q9InNwYWNpbmciIHRleHRMZW5ndGg9IjI0NSIgeD0iMTAiIHk9IjkwLjcxODgiPkVudW1zIChDJiMyMjU7YyBraSYjNzg3NTt1IGQmIzc5MTk7IGxpJiM3ODc5O3UgdHImIzc4NDE7bmcgdGgmIzIyNTtpKTwvdGV4dD48L2c+PCEtLWNsdXN0ZXIgMS0tPjxnIGNsYXNzPSJjbHVzdGVyIiBkYXRhLWVudGl0eT0iMSIgZGF0YS1zb3VyY2UtbGluZT0iNDkiIGRhdGEtdWlkPSJlbnQwMDExIiBpZD0iY2x1c3Rlcl8xIj48cGF0aCBkPSJNNTMyLjUsMjc3LjQ4NDQgTDU0MC41LDI3Ny40ODQ0IEEzLjc1LDMuNzUgMCAwIDEgNTQzLDI3OS45ODQ0IEw1NTAsMjk4LjQ2ODggTDExMDAuNSwyOTguNDY4OCBBMi41LDIuNSAwIDAgMSAxMTAzLDMwMC45Njg4IEwxMTAzLDkxMi40ODQ0IEEyLjUsMi41IDAgMCAxIDExMDAuNSw5MTQuOTg0NCBMNTMyLjUsOTE0Ljk4NDQgQTIuNSwyLjUgMCAwIDEgNTMwLDkxMi40ODQ0IEw1MzAsMjc5Ljk4NDQgQTIuNSwyLjUgMCAwIDEgNTMyLjUsMjc3LjQ4NDQiIGZpbGw9IiNFQ0VGRjQiIHN0eWxlPSJzdHJva2U6I0Q4REVFOTtzdHJva2Utd2lkdGg6MS41OyIvPjxsaW5lIHN0eWxlPSJzdHJva2U6I0Q4REVFOTtzdHJva2Utd2lkdGg6MS41OyIgeDE9IjUzMCIgeDI9IjU1MCIgeTE9IjI5OC40Njg4IiB5Mj0iMjk4LjQ2ODgiLz48dGV4dCBmaWxsPSIjMDAwMDAwIiBmb250LWZhbWlseT0ic2Fucy1zZXJpZiIgZm9udC1zaXplPSIxNCIgZm9udC13ZWlnaHQ9ImJvbGQiIGxlbmd0aEFkanVzdD0ic3BhY2luZyIgdGV4dExlbmd0aD0iNyIgeD0iNTM0IiB5PSIyOTIuNzE4OCI+MTwvdGV4dD48L2c+PCEtLWNsdXN0ZXIgIEtIP0kgVVNFUiAmIFBIP04gUVVZP04tLT48ZyBjbGFzcz0iY2x1c3RlciIgZGF0YS1lbnRpdHk9IiBLSCYjNzg4ODtJIFVTRVIgJmFtcDsgUEgmIzE5NDtOIFFVWSYjNzg3MjtOIiBkYXRhLXNvdXJjZS1saW5lPSI0OCIgZGF0YS11aWQ9ImVudDAwMDkiIGlkPSJjbHVzdGVyXyBLSCYjNzg4ODtJIFVTRVIgJmFtcDsgUEgmIzE5NDtOIFFVWSYjNzg3MjtOIj48cGF0aCBkPSJNNTU2LjUsMzE4LjQ4NDQgTDcxOC41LDMxOC40ODQ0IEEzLjc1LDMuNzUgMCAwIDEgNzIxLDMyMC45ODQ0IEw3MjgsMzM5LjQ2ODggTDEwNzYuNSwzMzkuNDY4OCBBMi41LDIuNSAwIDAgMSAxMDc5LDM0MS45Njg4IEwxMDc5LDg4OC40ODQ0IEEyLjUsMi41IDAgMCAxIDEwNzYuNSw4OTAuOTg0NCBMNTU2LjUsODkwLjk4NDQgQTIuNSwyLjUgMCAwIDEgNTU0LDg4OC40ODQ0IEw1NTQsMzIwLjk4NDQgQTIuNSwyLjUgMCAwIDEgNTU2LjUsMzE4LjQ4NDQiIGZpbGw9IiNFQ0VGRjQiIHN0eWxlPSJzdHJva2U6I0Q4REVFOTtzdHJva2Utd2lkdGg6MS41OyIvPjxsaW5lIHN0eWxlPSJzdHJva2U6I0Q4REVFOTtzdHJva2Utd2lkdGg6MS41OyIgeDE9IjU1NCIgeDI9IjcyOCIgeTE9IjMzOS40Njg4IiB5Mj0iMzM5LjQ2ODgiLz48dGV4dCBmaWxsPSIjMDAwMDAwIiBmb250LWZhbWlseT0ic2Fucy1zZXJpZiIgZm9udC1zaXplPSIxNCIgZm9udC13ZWlnaHQ9ImJvbGQiIGxlbmd0aEFkanVzdD0ic3BhY2luZyIgdGV4dExlbmd0aD0iMTU0IiB4PSI1NjUiIHk9IjMzMy43MTg4Ij5LSCYjNzg4ODtJIFVTRVIgJmFtcDsgUEgmIzE5NDtOIFFVWSYjNzg3MjtOPC90ZXh0PjwvZz48IS0tY2x1c3RlciAyLS0+PGcgY2xhc3M9ImNsdXN0ZXIiIGRhdGEtZW50aXR5PSIyIiBkYXRhLXNvdXJjZS1saW5lPSI4MyIgZGF0YS11aWQ9ImVudDAwMTYiIGlkPSJjbHVzdGVyXzIiPjxwYXRoIGQ9Ik0yNTczLjUsNDEuOTg0NCBMMjU4MS41LDQxLjk4NDQgQTMuNzUsMy43NSAwIDAgMSAyNTg0LDQ0LjQ4NDQgTDI1OTEsNjIuOTY4OCBMMzE2MC41LDYyLjk2ODggQTIuNSwyLjUgMCAwIDEgMzE2Myw2NS40Njg4IEwzMTYzLDg0NC45ODQ0IEEyLjUsMi41IDAgMCAxIDMxNjAuNSw4NDcuNDg0NCBMMjU3My41LDg0Ny40ODQ0IEEyLjUsMi41IDAgMCAxIDI1NzEsODQ0Ljk4NDQgTDI1NzEsNDQuNDg0NCBBMi41LDIuNSAwIDAgMSAyNTczLjUsNDEuOTg0NCIgZmlsbD0iI0VDRUZGNCIgc3R5bGU9InN0cm9rZTojRDhERUU5O3N0cm9rZS13aWR0aDoxLjU7Ii8+PGxpbmUgc3R5bGU9InN0cm9rZTojRDhERUU5O3N0cm9rZS13aWR0aDoxLjU7IiB4MT0iMjU3MSIgeDI9IjI1OTEiIHkxPSI2Mi45Njg4IiB5Mj0iNjIuOTY4OCIvPjx0ZXh0IGZpbGw9IiMwMDAwMDAiIGZvbnQtZmFtaWx5PSJzYW5zLXNlcmlmIiBmb250LXNpemU9IjE0IiBmb250LXdlaWdodD0iYm9sZCIgbGVuZ3RoQWRqdXN0PSJzcGFjaW5nIiB0ZXh0TGVuZ3RoPSI3IiB4PSIyNTc1IiB5PSI1Ny4yMTg4Ij4yPC90ZXh0PjwvZz48IS0tY2x1c3RlciAgS0g/SSBTP04gQj9ORyAmIFY/IFRSPy0tPjxnIGNsYXNzPSJjbHVzdGVyIiBkYXRhLWVudGl0eT0iIEtIJiM3ODg4O0kgUyYjMTk0O04gQiYjMjExO05HICZhbXA7IFYmIzc4ODI7IFRSJiMyMDU7IiBkYXRhLXNvdXJjZS1saW5lPSI4MiIgZGF0YS11aWQ9ImVudDAwMTQiIGlkPSJjbHVzdGVyXyBLSCYjNzg4ODtJIFMmIzE5NDtOIEImIzIxMTtORyAmYW1wOyBWJiM3ODgyOyBUUiYjMjA1OyI+PHBhdGggZD0iTTI1OTcuNSw4Mi45ODQ0IEwyNzU5LjUsODIuOTg0NCBBMy43NSwzLjc1IDAgMCAxIDI3NjIsODUuNDg0NCBMMjc2OSwxMDMuOTY4OCBMMzEzNi41LDEwMy45Njg4IEEyLjUsMi41IDAgMCAxIDMxMzksMTA2LjQ2ODggTDMxMzksODIwLjk4NDQgQTIuNSwyLjUgMCAwIDEgMzEzNi41LDgyMy40ODQ0IEwyNTk3LjUsODIzLjQ4NDQgQTIuNSwyLjUgMCAwIDEgMjU5NSw4MjAuOTg0NCBMMjU5NSw4NS40ODQ0IEEyLjUsMi41IDAgMCAxIDI1OTcuNSw4Mi45ODQ0IiBmaWxsPSIjRUNFRkY0IiBzdHlsZT0ic3Ryb2tlOiNEOERFRTk7c3Ryb2tlLXdpZHRoOjEuNTsiLz48bGluZSBzdHlsZT0ic3Ryb2tlOiNEOERFRTk7c3Ryb2tlLXdpZHRoOjEuNTsiIHgxPSIyNTk1IiB4Mj0iMjc2OSIgeTE9IjEwMy45Njg4IiB5Mj0iMTAzLjk2ODgiLz48dGV4dCBmaWxsPSIjMDAwMDAwIiBmb250LWZhbWlseT0ic2Fucy1zZXJpZiIgZm9udC1zaXplPSIxNCIgZm9udC13ZWlnaHQ9ImJvbGQiIGxlbmd0aEFkanVzdD0ic3BhY2luZyIgdGV4dExlbmd0aD0iMTU0IiB4PSIyNjA2IiB5PSI5OC4yMTg4Ij5LSCYjNzg4ODtJIFMmIzE5NDtOIEImIzIxMTtORyAmYW1wOyBWJiM3ODgyOyBUUiYjMjA1OzwvdGV4dD48L2c+PCEtLWNsdXN0ZXIgMy0tPjxnIGNsYXNzPSJjbHVzdGVyIiBkYXRhLWVudGl0eT0iMyIgZGF0YS1zb3VyY2UtbGluZT0iMTI2IiBkYXRhLXVpZD0iZW50MDAyMyIgaWQ9ImNsdXN0ZXJfMyI+PHBhdGggZD0iTTE5MDcuNSwyNzcuNDg0NCBMMTkxNS41LDI3Ny40ODQ0IEEzLjc1LDMuNzUgMCAwIDEgMTkxOCwyNzkuOTg0NCBMMTkyNSwyOTguNDY4OCBMMjIwNC41LDI5OC40Njg4IEEyLjUsMi41IDAgMCAxIDIyMDcsMzAwLjk2ODggTDIyMDcsODk3LjQ4NDQgQTIuNSwyLjUgMCAwIDEgMjIwNC41LDg5OS45ODQ0IEwxOTA3LjUsODk5Ljk4NDQgQTIuNSwyLjUgMCAwIDEgMTkwNSw4OTcuNDg0NCBMMTkwNSwyNzkuOTg0NCBBMi41LDIuNSAwIDAgMSAxOTA3LjUsMjc3LjQ4NDQiIGZpbGw9IiNFQ0VGRjQiIHN0eWxlPSJzdHJva2U6I0Q4REVFOTtzdHJva2Utd2lkdGg6MS41OyIvPjxsaW5lIHN0eWxlPSJzdHJva2U6I0Q4REVFOTtzdHJva2Utd2lkdGg6MS41OyIgeDE9IjE5MDUiIHgyPSIxOTI1IiB5MT0iMjk4LjQ2ODgiIHkyPSIyOTguNDY4OCIvPjx0ZXh0IGZpbGw9IiMwMDAwMDAiIGZvbnQtZmFtaWx5PSJzYW5zLXNlcmlmIiBmb250LXNpemU9IjE0IiBmb250LXdlaWdodD0iYm9sZCIgbGVuZ3RoQWRqdXN0PSJzcGFjaW5nIiB0ZXh0TGVuZ3RoPSI3IiB4PSIxOTA5IiB5PSIyOTIuNzE4OCI+MzwvdGV4dD48L2c+PCEtLWNsdXN0ZXIgIEtIP0kgPz9UIFM/TiAmIEdJPyBDPy0tPjxnIGNsYXNzPSJjbHVzdGVyIiBkYXRhLWVudGl0eT0iIEtIJiM3ODg4O0kgJiMyNzI7JiM3ODYyO1QgUyYjMTk0O04gJmFtcDsgR0kmIzE5MzsgQyYjNzg0MjsiIGRhdGEtc291cmNlLWxpbmU9IjEyNSIgZGF0YS11aWQ9ImVudDAwMjEiIGlkPSJjbHVzdGVyXyBLSCYjNzg4ODtJICYjMjcyOyYjNzg2MjtUIFMmIzE5NDtOICZhbXA7IEdJJiMxOTM7IEMmIzc4NDI7Ij48cGF0aCBkPSJNMTkzMS41LDMxOC40ODQ0IEwyMDg2LjUsMzE4LjQ4NDQgQTMuNzUsMy43NSAwIDAgMSAyMDg5LDMyMC45ODQ0IEwyMDk2LDMzOS40Njg4IEwyMTgwLjUsMzM5LjQ2ODggQTIuNSwyLjUgMCAwIDEgMjE4MywzNDEuOTY4OCBMMjE4Myw4NzMuNDg0NCBBMi41LDIuNSAwIDAgMSAyMTgwLjUsODc1Ljk4NDQgTDE5MzEuNSw4NzUuOTg0NCBBMi41LDIuNSAwIDAgMSAxOTI5LDg3My40ODQ0IEwxOTI5LDMyMC45ODQ0IEEyLjUsMi41IDAgMCAxIDE5MzEuNSwzMTguNDg0NCIgZmlsbD0iI0VDRUZGNCIgc3R5bGU9InN0cm9rZTojRDhERUU5O3N0cm9rZS13aWR0aDoxLjU7Ii8+PGxpbmUgc3R5bGU9InN0cm9rZTojRDhERUU5O3N0cm9rZS13aWR0aDoxLjU7IiB4MT0iMTkyOSIgeDI9IjIwOTYiIHkxPSIzMzkuNDY4OCIgeTI9IjMzOS40Njg4Ii8+PHRleHQgZmlsbD0iIzAwMDAwMCIgZm9udC1mYW1pbHk9InNhbnMtc2VyaWYiIGZvbnQtc2l6ZT0iMTQiIGZvbnQtd2VpZ2h0PSJib2xkIiBsZW5ndGhBZGp1c3Q9InNwYWNpbmciIHRleHRMZW5ndGg9IjE0NyIgeD0iMTk0MCIgeT0iMzMzLjcxODgiPktIJiM3ODg4O0kgJiMyNzI7JiM3ODYyO1QgUyYjMTk0O04gJmFtcDsgR0kmIzE5MzsgQyYjNzg0Mjs8L3RleHQ+PC9nPjwhLS1jbHVzdGVyIDQtLT48ZyBjbGFzcz0iY2x1c3RlciIgZGF0YS1lbnRpdHk9IjQiIGRhdGEtc291cmNlLWxpbmU9IjE1MyIgZGF0YS11aWQ9ImVudDAwMjciIGlkPSJjbHVzdGVyXzQiPjxwYXRoIGQ9Ik0yMjMzLjUsNTgwLjQ4NDQgTDIyNDEuNSw1ODAuNDg0NCBBMy43NSwzLjc1IDAgMCAxIDIyNDQsNTgyLjk4NDQgTDIyNTEsNjAxLjQ2ODggTDI1NDQuNSw2MDEuNDY4OCBBMi41LDIuNSAwIDAgMSAyNTQ3LDYwMy45Njg4IEwyNTQ3LDEyMjYuNDg0NCBBMi41LDIuNSAwIDAgMSAyNTQ0LjUsMTIyOC45ODQ0IEwyMjMzLjUsMTIyOC45ODQ0IEEyLjUsMi41IDAgMCAxIDIyMzEsMTIyNi40ODQ0IEwyMjMxLDU4Mi45ODQ0IEEyLjUsMi41IDAgMCAxIDIyMzMuNSw1ODAuNDg0NCIgZmlsbD0iI0VDRUZGNCIgc3R5bGU9InN0cm9rZTojRDhERUU5O3N0cm9rZS13aWR0aDoxLjU7Ii8+PGxpbmUgc3R5bGU9InN0cm9rZTojRDhERUU5O3N0cm9rZS13aWR0aDoxLjU7IiB4MT0iMjIzMSIgeDI9IjIyNTEiIHkxPSI2MDEuNDY4OCIgeTI9IjYwMS40Njg4Ii8+PHRleHQgZmlsbD0iIzAwMDAwMCIgZm9udC1mYW1pbHk9InNhbnMtc2VyaWYiIGZvbnQtc2l6ZT0iMTQiIGZvbnQtd2VpZ2h0PSJib2xkIiBsZW5ndGhBZGp1c3Q9InNwYWNpbmciIHRleHRMZW5ndGg9IjciIHg9IjIyMzUiIHk9IjU5NS43MTg4Ij40PC90ZXh0PjwvZz48IS0tY2x1c3RlciAgS0g/SSBUSEFOSCBUTz9OICYgS0hVWT9OIE0/SS0tPjxnIGNsYXNzPSJjbHVzdGVyIiBkYXRhLWVudGl0eT0iIEtIJiM3ODg4O0kgVEhBTkggVE8mIzE5MztOICZhbXA7IEtIVVkmIzc4NzA7TiBNJiMxOTU7SSIgZGF0YS1zb3VyY2UtbGluZT0iMTUyIiBkYXRhLXVpZD0iZW50MDAyNSIgaWQ9ImNsdXN0ZXJfIEtIJiM3ODg4O0kgVEhBTkggVE8mIzE5MztOICZhbXA7IEtIVVkmIzc4NzA7TiBNJiMxOTU7SSI+PHBhdGggZD0iTTIyNTcuNSw2MjEuNDg0NCBMMjQ2MS41LDYyMS40ODQ0IEEzLjc1LDMuNzUgMCAwIDEgMjQ2NCw2MjMuOTg0NCBMMjQ3MSw2NDIuNDY4OCBMMjUyMC41LDY0Mi40Njg4IEEyLjUsMi41IDAgMCAxIDI1MjMsNjQ0Ljk2ODggTDI1MjMsMTIwMi40ODQ0IEEyLjUsMi41IDAgMCAxIDI1MjAuNSwxMjA0Ljk4NDQgTDIyNTcuNSwxMjA0Ljk4NDQgQTIuNSwyLjUgMCAwIDEgMjI1NSwxMjAyLjQ4NDQgTDIyNTUsNjIzLjk4NDQgQTIuNSwyLjUgMCAwIDEgMjI1Ny41LDYyMS40ODQ0IiBmaWxsPSIjRUNFRkY0IiBzdHlsZT0ic3Ryb2tlOiNEOERFRTk7c3Ryb2tlLXdpZHRoOjEuNTsiLz48bGluZSBzdHlsZT0ic3Ryb2tlOiNEOERFRTk7c3Ryb2tlLXdpZHRoOjEuNTsiIHgxPSIyMjU1IiB4Mj0iMjQ3MSIgeTE9IjY0Mi40Njg4IiB5Mj0iNjQyLjQ2ODgiLz48dGV4dCBmaWxsPSIjMDAwMDAwIiBmb250LWZhbWlseT0ic2Fucy1zZXJpZiIgZm9udC1zaXplPSIxNCIgZm9udC13ZWlnaHQ9ImJvbGQiIGxlbmd0aEFkanVzdD0ic3BhY2luZyIgdGV4dExlbmd0aD0iMTk2IiB4PSIyMjY2IiB5PSI2MzYuNzE4OCI+S0gmIzc4ODg7SSBUSEFOSCBUTyYjMTkzO04gJmFtcDsgS0hVWSYjNzg3MDtOIE0mIzE5NTtJPC90ZXh0PjwvZz48IS0tY2x1c3RlciA1LS0+PGcgY2xhc3M9ImNsdXN0ZXIiIGRhdGEtZW50aXR5PSI1IiBkYXRhLXNvdXJjZS1saW5lPSIxODYiIGRhdGEtdWlkPSJlbnQwMDMxIiBpZD0iY2x1c3Rlcl81Ij48cGF0aCBkPSJNMTEyOS41LDU4MC40ODQ0IEwxMTM3LjUsNTgwLjQ4NDQgQTMuNzUsMy43NSAwIDAgMSAxMTQwLDU4Mi45ODQ0IEwxMTQ3LDYwMS40Njg4IEwxODc4LjUsNjAxLjQ2ODggQTIuNSwyLjUgMCAwIDEgMTg4MSw2MDMuOTY4OCBMMTg4MSwxMTY2LjQ4NDQgQTIuNSwyLjUgMCAwIDEgMTg3OC41LDExNjguOTg0NCBMMTEyOS41LDExNjguOTg0NCBBMi41LDIuNSAwIDAgMSAxMTI3LDExNjYuNDg0NCBMMTEyNyw1ODIuOTg0NCBBMi41LDIuNSAwIDAgMSAxMTI5LjUsNTgwLjQ4NDQiIGZpbGw9IiNFQ0VGRjQiIHN0eWxlPSJzdHJva2U6I0Q4REVFOTtzdHJva2Utd2lkdGg6MS41OyIvPjxsaW5lIHN0eWxlPSJzdHJva2U6I0Q4REVFOTtzdHJva2Utd2lkdGg6MS41OyIgeDE9IjExMjciIHgyPSIxMTQ3IiB5MT0iNjAxLjQ2ODgiIHkyPSI2MDEuNDY4OCIvPjx0ZXh0IGZpbGw9IiMwMDAwMDAiIGZvbnQtZmFtaWx5PSJzYW5zLXNlcmlmIiBmb250LXNpemU9IjE0IiBmb250LXdlaWdodD0iYm9sZCIgbGVuZ3RoQWRqdXN0PSJzcGFjaW5nIiB0ZXh0TGVuZ3RoPSI3IiB4PSIxMTMxIiB5PSI1OTUuNzE4OCI+NTwvdGV4dD48L2c+PCEtLWNsdXN0ZXIgIEtIP0kgSD8gVFI/ICYgUEg/TiBIP0ktLT48ZyBjbGFzcz0iY2x1c3RlciIgZGF0YS1lbnRpdHk9IiBLSCYjNzg4ODtJIEgmIzc4OTQ7IFRSJiM3OTA2OyAmYW1wOyBQSCYjNzg0MjtOIEgmIzc4OTA7SSIgZGF0YS1zb3VyY2UtbGluZT0iMTg1IiBkYXRhLXVpZD0iZW50MDAyOSIgaWQ9ImNsdXN0ZXJfIEtIJiM3ODg4O0kgSCYjNzg5NDsgVFImIzc5MDY7ICZhbXA7IFBIJiM3ODQyO04gSCYjNzg5MDtJIj48cGF0aCBkPSJNMTE1My41LDYyMS40ODQ0IEwxMzE1LjUsNjIxLjQ4NDQgQTMuNzUsMy43NSAwIDAgMSAxMzE4LDYyMy45ODQ0IEwxMzI1LDY0Mi40Njg4IEwxODU0LjUsNjQyLjQ2ODggQTIuNSwyLjUgMCAwIDEgMTg1Nyw2NDQuOTY4OCBMMTg1NywxMTQyLjQ4NDQgQTIuNSwyLjUgMCAwIDEgMTg1NC41LDExNDQuOTg0NCBMMTE1My41LDExNDQuOTg0NCBBMi41LDIuNSAwIDAgMSAxMTUxLDExNDIuNDg0NCBMMTE1MSw2MjMuOTg0NCBBMi41LDIuNSAwIDAgMSAxMTUzLjUsNjIxLjQ4NDQiIGZpbGw9IiNFQ0VGRjQiIHN0eWxlPSJzdHJva2U6I0Q4REVFOTtzdHJva2Utd2lkdGg6MS41OyIvPjxsaW5lIHN0eWxlPSJzdHJva2U6I0Q4REVFOTtzdHJva2Utd2lkdGg6MS41OyIgeDE9IjExNTEiIHgyPSIxMzI1IiB5MT0iNjQyLjQ2ODgiIHkyPSI2NDIuNDY4OCIvPjx0ZXh0IGZpbGw9IiMwMDAwMDAiIGZvbnQtZmFtaWx5PSJzYW5zLXNlcmlmIiBmb250LXNpemU9IjE0IiBmb250LXdlaWdodD0iYm9sZCIgbGVuZ3RoQWRqdXN0PSJzcGFjaW5nIiB0ZXh0TGVuZ3RoPSIxNTQiIHg9IjExNjIiIHk9IjYzNi43MTg4Ij5LSCYjNzg4ODtJIEgmIzc4OTQ7IFRSJiM3OTA2OyAmYW1wOyBQSCYjNzg0MjtOIEgmIzc4OTA7STwvdGV4dD48L2c+PCEtLWNsYXNzIEFjY291bnRTdGF0dXMtLT48ZyBjbGFzcz0iZW50aXR5IiBkYXRhLWVudGl0eT0iQWNjb3VudFN0YXR1cyIgZGF0YS1zb3VyY2UtbGluZT0iMTMiIGRhdGEtdWlkPSJlbnQwMDAzIiBpZD0iZW50aXR5X0FjY291bnRTdGF0dXMiPjxyZWN0IGZpbGw9IiNGMUYxRjEiIGhlaWdodD0iOTIuOTUzMSIgcng9IjIuNSIgcnk9IjIuNSIgc3R5bGU9InN0cm9rZTojMTgxODE4O3N0cm9rZS13aWR0aDowLjU7IiB3aWR0aD0iMTUyIiB4PSIyMiIgeT0iMTE1Ljk4NDQiLz48ZWxsaXBzZSBjeD0iNTAuMDUiIGN5PSIxMzEuOTg0NCIgZmlsbD0iI0VCOTM3RiIgcng9IjExIiByeT0iMTEiIHN0eWxlPSJzdHJva2U6IzE4MTgxODtzdHJva2Utd2lkdGg6MTsiLz48cGF0aCBkPSJNNTMuNjc1LDEzNy45ODQ0IEw1My42NzUsMTM2LjIzNDQgTDQ4LjM2MjUsMTM2LjIzNDQgUTQ4LjM2MjUsMTM2LjIzNDQgNDguMzYyNSwxMzIuNjcxOSBMNTIuNjEyNSwxMzIuNjcxOSBMNTIuNjEyNSwxMzAuOTIxOSBMNDguMzYyNSwxMzAuOTIxOSBMNDguMzYyNSwxMjguNDIxOSBMNTMuNjc1LDEyOC40MjE5IEw1My42NzUsMTI2LjY3MTkgTDQ2LjYxMjUsMTI2LjY3MTkgUTQ2LjYxMjUsMTI2LjY3MTkgNDYuNjEyNSwxMzcuOTg0NCBMNTMuNjc1LDEzNy45ODQ0IFogIiBmaWxsPSIjMDAwMDAwIi8+PHRleHQgZmlsbD0iIzAwMDAwMCIgZm9udC1mYW1pbHk9InNhbnMtc2VyaWYiIGZvbnQtc2l6ZT0iMTQiIGxlbmd0aEFkanVzdD0ic3BhY2luZyIgdGV4dExlbmd0aD0iOTEiIHg9IjY2Ljk1IiB5PSIxMzcuNzI2NiI+QWNjb3VudFN0YXR1czwvdGV4dD48bGluZSBzdHlsZT0ic3Ryb2tlOiMxODE4MTg7c3Ryb2tlLXdpZHRoOjAuNTsiIHgxPSIyMyIgeDI9IjE3MyIgeTE9IjE0Ny45ODQ0IiB5Mj0iMTQ3Ljk4NDQiLz48dGV4dCBmaWxsPSIjMDAwMDAwIiBmb250LWZhbWlseT0ic2Fucy1zZXJpZiIgZm9udC1zaXplPSIxNCIgbGVuZ3RoQWRqdXN0PSJzcGFjaW5nIiB0ZXh0TGVuZ3RoPSI0MiIgeD0iMjgiIHk9IjE2NS4yMTg4Ij5BQ1RJVkU8L3RleHQ+PHRleHQgZmlsbD0iIzAwMDAwMCIgZm9udC1mYW1pbHk9InNhbnMtc2VyaWYiIGZvbnQtc2l6ZT0iMTQiIGxlbmd0aEFkanVzdD0ic3BhY2luZyIgdGV4dExlbmd0aD0iNjMiIHg9IjI4IiB5PSIxODAuMjAzMSI+U1VTUEVOREVEPC90ZXh0Pjx0ZXh0IGZpbGw9IiMwMDAwMDAiIGZvbnQtZmFtaWx5PSJzYW5zLXNlcmlmIiBmb250LXNpemU9IjE0IiBsZW5ndGhBZGp1c3Q9InNwYWNpbmciIHRleHRMZW5ndGg9IjE0MCIgeD0iMjgiIHk9IjE5NS4xODc1Ij5QRU5ESU5HX1ZFUklGSUNBVElPTjwvdGV4dD48bGluZSBzdHlsZT0ic3Ryb2tlOiMxODE4MTg7c3Ryb2tlLXdpZHRoOjAuNTsiIHgxPSIyMyIgeDI9IjE3MyIgeTE9IjIwMC45Mzc1IiB5Mj0iMjAwLjkzNzUiLz48L2c+PCEtLWNsYXNzIEZpZWxkU3RhdHVzLS0+PGcgY2xhc3M9ImVudGl0eSIgZGF0YS1lbnRpdHk9IkZpZWxkU3RhdHVzIiBkYXRhLXNvdXJjZS1saW5lPSIxOCIgZGF0YS11aWQ9ImVudDAwMDQiIGlkPSJlbnRpdHlfRmllbGRTdGF0dXMiPjxyZWN0IGZpbGw9IiNGMUYxRjEiIGhlaWdodD0iOTIuOTUzMSIgcng9IjIuNSIgcnk9IjIuNSIgc3R5bGU9InN0cm9rZTojMTgxODE4O3N0cm9rZS13aWR0aDowLjU7IiB3aWR0aD0iMTA5IiB4PSIyMDkuNSIgeT0iMTE1Ljk4NDQiLz48ZWxsaXBzZSBjeD0iMjI0LjUiIGN5PSIxMzEuOTg0NCIgZmlsbD0iI0VCOTM3RiIgcng9IjExIiByeT0iMTEiIHN0eWxlPSJzdHJva2U6IzE4MTgxODtzdHJva2Utd2lkdGg6MTsiLz48cGF0aCBkPSJNMjI4LjEyNSwxMzcuOTg0NCBMMjI4LjEyNSwxMzYuMjM0NCBMMjIyLjgxMjUsMTM2LjIzNDQgUTIyMi44MTI1LDEzNi4yMzQ0IDIyMi44MTI1LDEzMi42NzE5IEwyMjcuMDYyNSwxMzIuNjcxOSBMMjI3LjA2MjUsMTMwLjkyMTkgTDIyMi44MTI1LDEzMC45MjE5IEwyMjIuODEyNSwxMjguNDIxOSBMMjI4LjEyNSwxMjguNDIxOSBMMjI4LjEyNSwxMjYuNjcxOSBMMjIxLjA2MjUsMTI2LjY3MTkgUTIyMS4wNjI1LDEyNi42NzE5IDIyMS4wNjI1LDEzNy45ODQ0IEwyMjguMTI1LDEzNy45ODQ0IFogIiBmaWxsPSIjMDAwMDAwIi8+PHRleHQgZmlsbD0iIzAwMDAwMCIgZm9udC1mYW1pbHk9InNhbnMtc2VyaWYiIGZvbnQtc2l6ZT0iMTQiIGxlbmd0aEFkanVzdD0ic3BhY2luZyIgdGV4dExlbmd0aD0iNzciIHg9IjIzOC41IiB5PSIxMzcuNzI2NiI+RmllbGRTdGF0dXM8L3RleHQ+PGxpbmUgc3R5bGU9InN0cm9rZTojMTgxODE4O3N0cm9rZS13aWR0aDowLjU7IiB4MT0iMjEwLjUiIHgyPSIzMTcuNSIgeTE9IjE0Ny45ODQ0IiB5Mj0iMTQ3Ljk4NDQiLz48dGV4dCBmaWxsPSIjMDAwMDAwIiBmb250LWZhbWlseT0ic2Fucy1zZXJpZiIgZm9udC1zaXplPSIxNCIgbGVuZ3RoQWRqdXN0PSJzcGFjaW5nIiB0ZXh0TGVuZ3RoPSI2MyIgeD0iMjE1LjUiIHk9IjE2NS4yMTg4Ij5BVkFJTEFCTEU8L3RleHQ+PHRleHQgZmlsbD0iIzAwMDAwMCIgZm9udC1mYW1pbHk9InNhbnMtc2VyaWYiIGZvbnQtc2l6ZT0iMTQiIGxlbmd0aEFkanVzdD0ic3BhY2luZyIgdGV4dExlbmd0aD0iNzciIHg9IjIxNS41IiB5PSIxODAuMjAzMSI+TUFJTlRFTkFOQ0U8L3RleHQ+PHRleHQgZmlsbD0iIzAwMDAwMCIgZm9udC1mYW1pbHk9InNhbnMtc2VyaWYiIGZvbnQtc2l6ZT0iMTQiIGxlbmd0aEFkanVzdD0ic3BhY2luZyIgdGV4dExlbmd0aD0iNDIiIHg9IjIxNS41IiB5PSIxOTUuMTg3NSI+Q0xPU0VEPC90ZXh0PjxsaW5lIHN0eWxlPSJzdHJva2U6IzE4MTgxODtzdHJva2Utd2lkdGg6MC41OyIgeDE9IjIxMC41IiB4Mj0iMzE3LjUiIHkxPSIyMDAuOTM3NSIgeTI9IjIwMC45Mzc1Ii8+PC9nPjwhLS1jbGFzcyBCb29raW5nU3RhdHVzLS0+PGcgY2xhc3M9ImVudGl0eSIgZGF0YS1lbnRpdHk9IkJvb2tpbmdTdGF0dXMiIGRhdGEtc291cmNlLWxpbmU9IjIzIiBkYXRhLXVpZD0iZW50MDAwNSIgaWQ9ImVudGl0eV9Cb29raW5nU3RhdHVzIj48cmVjdCBmaWxsPSIjRjFGMUYxIiBoZWlnaHQ9IjEwNy45Mzc1IiByeD0iMi41IiByeT0iMi41IiBzdHlsZT0ic3Ryb2tlOiMxODE4MTg7c3Ryb2tlLXdpZHRoOjAuNTsiIHdpZHRoPSIxMjMiIHg9IjM1My41IiB5PSIxMDguNDg0NCIvPjxlbGxpcHNlIGN4PSIzNjguNSIgY3k9IjEyNC40ODQ0IiBmaWxsPSIjRUI5MzdGIiByeD0iMTEiIHJ5PSIxMSIgc3R5bGU9InN0cm9rZTojMTgxODE4O3N0cm9rZS13aWR0aDoxOyIvPjxwYXRoIGQ9Ik0zNzIuMTI1LDEzMC40ODQ0IEwzNzIuMTI1LDEyOC43MzQ0IEwzNjYuODEyNSwxMjguNzM0NCBRMzY2LjgxMjUsMTI4LjczNDQgMzY2LjgxMjUsMTI1LjE3MTkgTDM3MS4wNjI1LDEyNS4xNzE5IEwzNzEuMDYyNSwxMjMuNDIxOSBMMzY2LjgxMjUsMTIzLjQyMTkgTDM2Ni44MTI1LDEyMC45MjE5IEwzNzIuMTI1LDEyMC45MjE5IEwzNzIuMTI1LDExOS4xNzE5IEwzNjUuMDYyNSwxMTkuMTcxOSBRMzY1LjA2MjUsMTE5LjE3MTkgMzY1LjA2MjUsMTMwLjQ4NDQgTDM3Mi4xMjUsMTMwLjQ4NDQgWiAiIGZpbGw9IiMwMDAwMDAiLz48dGV4dCBmaWxsPSIjMDAwMDAwIiBmb250LWZhbWlseT0ic2Fucy1zZXJpZiIgZm9udC1zaXplPSIxNCIgbGVuZ3RoQWRqdXN0PSJzcGFjaW5nIiB0ZXh0TGVuZ3RoPSI5MSIgeD0iMzgyLjUiIHk9IjEzMC4yMjY2Ij5Cb29raW5nU3RhdHVzPC90ZXh0PjxsaW5lIHN0eWxlPSJzdHJva2U6IzE4MTgxODtzdHJva2Utd2lkdGg6MC41OyIgeDE9IjM1NC41IiB4Mj0iNDc1LjUiIHkxPSIxNDAuNDg0NCIgeTI9IjE0MC40ODQ0Ii8+PHRleHQgZmlsbD0iIzAwMDAwMCIgZm9udC1mYW1pbHk9InNhbnMtc2VyaWYiIGZvbnQtc2l6ZT0iMTQiIGxlbmd0aEFkanVzdD0ic3BhY2luZyIgdGV4dExlbmd0aD0iMTA1IiB4PSIzNTkuNSIgeT0iMTU3LjcxODgiPlBFTkRJTkdfUEFZTUVOVDwvdGV4dD48dGV4dCBmaWxsPSIjMDAwMDAwIiBmb250LWZhbWlseT0ic2Fucy1zZXJpZiIgZm9udC1zaXplPSIxNCIgbGVuZ3RoQWRqdXN0PSJzcGFjaW5nIiB0ZXh0TGVuZ3RoPSI2MyIgeD0iMzU5LjUiIHk9IjE3Mi43MDMxIj5DT05GSVJNRUQ8L3RleHQ+PHRleHQgZmlsbD0iIzAwMDAwMCIgZm9udC1mYW1pbHk9InNhbnMtc2VyaWYiIGZvbnQtc2l6ZT0iMTQiIGxlbmd0aEFkanVzdD0ic3BhY2luZyIgdGV4dExlbmd0aD0iNjMiIHg9IjM1OS41IiB5PSIxODcuNjg3NSI+Q0FOQ0VMTEVEPC90ZXh0Pjx0ZXh0IGZpbGw9IiMwMDAwMDAiIGZvbnQtZmFtaWx5PSJzYW5zLXNlcmlmIiBmb250LXNpemU9IjE0IiBsZW5ndGhBZGp1c3Q9InNwYWNpbmciIHRleHRMZW5ndGg9IjYzIiB4PSIzNTkuNSIgeT0iMjAyLjY3MTkiPkNPTVBMRVRFRDwvdGV4dD48bGluZSBzdHlsZT0ic3Ryb2tlOiMxODE4MTg7c3Ryb2tlLXdpZHRoOjAuNTsiIHgxPSIzNTQuNSIgeDI9IjQ3NS41IiB5MT0iMjA4LjQyMTkiIHkyPSIyMDguNDIxOSIvPjwvZz48IS0tY2xhc3MgUGF5bWVudFN0YXR1cy0tPjxnIGNsYXNzPSJlbnRpdHkiIGRhdGEtZW50aXR5PSJQYXltZW50U3RhdHVzIiBkYXRhLXNvdXJjZS1saW5lPSIyOSIgZGF0YS11aWQ9ImVudDAwMDYiIGlkPSJlbnRpdHlfUGF5bWVudFN0YXR1cyI+PHJlY3QgZmlsbD0iI0YxRjFGMSIgaGVpZ2h0PSIxMDcuOTM3NSIgcng9IjIuNSIgcnk9IjIuNSIgc3R5bGU9InN0cm9rZTojMTgxODE4O3N0cm9rZS13aWR0aDowLjU7IiB3aWR0aD0iMTIzIiB4PSIyMi41IiB5PSIzNjYuNDg0NCIvPjxlbGxpcHNlIGN4PSIzNy41IiBjeT0iMzgyLjQ4NDQiIGZpbGw9IiNFQjkzN0YiIHJ4PSIxMSIgcnk9IjExIiBzdHlsZT0ic3Ryb2tlOiMxODE4MTg7c3Ryb2tlLXdpZHRoOjE7Ii8+PHBhdGggZD0iTTQxLjEyNSwzODguNDg0NCBMNDEuMTI1LDM4Ni43MzQ0IEwzNS44MTI1LDM4Ni43MzQ0IFEzNS44MTI1LDM4Ni43MzQ0IDM1LjgxMjUsMzgzLjE3MTkgTDQwLjA2MjUsMzgzLjE3MTkgTDQwLjA2MjUsMzgxLjQyMTkgTDM1LjgxMjUsMzgxLjQyMTkgTDM1LjgxMjUsMzc4LjkyMTkgTDQxLjEyNSwzNzguOTIxOSBMNDEuMTI1LDM3Ny4xNzE5IEwzNC4wNjI1LDM3Ny4xNzE5IFEzNC4wNjI1LDM3Ny4xNzE5IDM0LjA2MjUsMzg4LjQ4NDQgTDQxLjEyNSwzODguNDg0NCBaICIgZmlsbD0iIzAwMDAwMCIvPjx0ZXh0IGZpbGw9IiMwMDAwMDAiIGZvbnQtZmFtaWx5PSJzYW5zLXNlcmlmIiBmb250LXNpemU9IjE0IiBsZW5ndGhBZGp1c3Q9InNwYWNpbmciIHRleHRMZW5ndGg9IjkxIiB4PSI1MS41IiB5PSIzODguMjI2NiI+UGF5bWVudFN0YXR1czwvdGV4dD48bGluZSBzdHlsZT0ic3Ryb2tlOiMxODE4MTg7c3Ryb2tlLXdpZHRoOjAuNTsiIHgxPSIyMy41IiB4Mj0iMTQ0LjUiIHkxPSIzOTguNDg0NCIgeTI9IjM5OC40ODQ0Ii8+PHRleHQgZmlsbD0iIzAwMDAwMCIgZm9udC1mYW1pbHk9InNhbnMtc2VyaWYiIGZvbnQtc2l6ZT0iMTQiIGxlbmd0aEFkanVzdD0ic3BhY2luZyIgdGV4dExlbmd0aD0iNDkiIHg9IjI4LjUiIHk9IjQxNS43MTg4Ij5QRU5ESU5HPC90ZXh0Pjx0ZXh0IGZpbGw9IiMwMDAwMDAiIGZvbnQtZmFtaWx5PSJzYW5zLXNlcmlmIiBmb250LXNpemU9IjE0IiBsZW5ndGhBZGp1c3Q9InNwYWNpbmciIHRleHRMZW5ndGg9IjQ5IiB4PSIyOC41IiB5PSI0MzAuNzAzMSI+U1VDQ0VTUzwvdGV4dD48dGV4dCBmaWxsPSIjMDAwMDAwIiBmb250LWZhbWlseT0ic2Fucy1zZXJpZiIgZm9udC1zaXplPSIxNCIgbGVuZ3RoQWRqdXN0PSJzcGFjaW5nIiB0ZXh0TGVuZ3RoPSI0MiIgeD0iMjguNSIgeT0iNDQ1LjY4NzUiPkZBSUxFRDwvdGV4dD48dGV4dCBmaWxsPSIjMDAwMDAwIiBmb250LWZhbWlseT0ic2Fucy1zZXJpZiIgZm9udC1zaXplPSIxNCIgbGVuZ3RoQWRqdXN0PSJzcGFjaW5nIiB0ZXh0TGVuZ3RoPSI1NiIgeD0iMjguNSIgeT0iNDYwLjY3MTkiPlJFRlVOREVEPC90ZXh0PjxsaW5lIHN0eWxlPSJzdHJva2U6IzE4MTgxODtzdHJva2Utd2lkdGg6MC41OyIgeDE9IjIzLjUiIHgyPSIxNDQuNSIgeTE9IjQ2Ni40MjE5IiB5Mj0iNDY2LjQyMTkiLz48L2c+PCEtLWNsYXNzIEZlZWRiYWNrQ2F0ZWdvcnktLT48ZyBjbGFzcz0iZW50aXR5IiBkYXRhLWVudGl0eT0iRmVlZGJhY2tDYXRlZ29yeSIgZGF0YS1zb3VyY2UtbGluZT0iMzUiIGRhdGEtdWlkPSJlbnQwMDA3IiBpZD0iZW50aXR5X0ZlZWRiYWNrQ2F0ZWdvcnkiPjxyZWN0IGZpbGw9IiNGMUYxRjEiIGhlaWdodD0iOTIuOTUzMSIgcng9IjIuNSIgcnk9IjIuNSIgc3R5bGU9InN0cm9rZTojMTgxODE4O3N0cm9rZS13aWR0aDowLjU7IiB3aWR0aD0iMTQ0IiB4PSIxODEiIHk9IjM3My45ODQ0Ii8+PGVsbGlwc2UgY3g9IjE5NiIgY3k9IjM4OS45ODQ0IiBmaWxsPSIjRUI5MzdGIiByeD0iMTEiIHJ5PSIxMSIgc3R5bGU9InN0cm9rZTojMTgxODE4O3N0cm9rZS13aWR0aDoxOyIvPjxwYXRoIGQ9Ik0xOTkuNjI1LDM5NS45ODQ0IEwxOTkuNjI1LDM5NC4yMzQ0IEwxOTQuMzEyNSwzOTQuMjM0NCBRMTk0LjMxMjUsMzk0LjIzNDQgMTk0LjMxMjUsMzkwLjY3MTkgTDE5OC41NjI1LDM5MC42NzE5IEwxOTguNTYyNSwzODguOTIxOSBMMTk0LjMxMjUsMzg4LjkyMTkgTDE5NC4zMTI1LDM4Ni40MjE5IEwxOTkuNjI1LDM4Ni40MjE5IEwxOTkuNjI1LDM4NC42NzE5IEwxOTIuNTYyNSwzODQuNjcxOSBRMTkyLjU2MjUsMzg0LjY3MTkgMTkyLjU2MjUsMzk1Ljk4NDQgTDE5OS42MjUsMzk1Ljk4NDQgWiAiIGZpbGw9IiMwMDAwMDAiLz48dGV4dCBmaWxsPSIjMDAwMDAwIiBmb250LWZhbWlseT0ic2Fucy1zZXJpZiIgZm9udC1zaXplPSIxNCIgbGVuZ3RoQWRqdXN0PSJzcGFjaW5nIiB0ZXh0TGVuZ3RoPSIxMTIiIHg9IjIxMCIgeT0iMzk1LjcyNjYiPkZlZWRiYWNrQ2F0ZWdvcnk8L3RleHQ+PGxpbmUgc3R5bGU9InN0cm9rZTojMTgxODE4O3N0cm9rZS13aWR0aDowLjU7IiB4MT0iMTgyIiB4Mj0iMzI0IiB5MT0iNDA1Ljk4NDQiIHkyPSI0MDUuOTg0NCIvPjx0ZXh0IGZpbGw9IiMwMDAwMDAiIGZvbnQtZmFtaWx5PSJzYW5zLXNlcmlmIiBmb250LXNpemU9IjE0IiBsZW5ndGhBZGp1c3Q9InNwYWNpbmciIHRleHRMZW5ndGg9IjcwIiB4PSIxODciIHk9IjQyMy4yMTg4Ij5CVUdfUkVQT1JUPC90ZXh0Pjx0ZXh0IGZpbGw9IiMwMDAwMDAiIGZvbnQtZmFtaWx5PSJzYW5zLXNlcmlmIiBmb250LXNpemU9IjE0IiBsZW5ndGhBZGp1c3Q9InNwYWNpbmciIHRleHRMZW5ndGg9IjEwNSIgeD0iMTg3IiB5PSI0MzguMjAzMSI+RkVBVFVSRV9SRVFVRVNUPC90ZXh0Pjx0ZXh0IGZpbGw9IiMwMDAwMDAiIGZvbnQtZmFtaWx5PSJzYW5zLXNlcmlmIiBmb250LXNpemU9IjE0IiBsZW5ndGhBZGp1c3Q9InNwYWNpbmciIHRleHRMZW5ndGg9IjYzIiB4PSIxODciIHk9IjQ1My4xODc1Ij5DT01QTEFJTlQ8L3RleHQ+PGxpbmUgc3R5bGU9InN0cm9rZTojMTgxODE4O3N0cm9rZS13aWR0aDowLjU7IiB4MT0iMTgyIiB4Mj0iMzI0IiB5MT0iNDU4LjkzNzUiIHkyPSI0NTguOTM3NSIvPjwvZz48IS0tY2xhc3MgRmVlZGJhY2tTdGF0dXMtLT48ZyBjbGFzcz0iZW50aXR5IiBkYXRhLWVudGl0eT0iRmVlZGJhY2tTdGF0dXMiIGRhdGEtc291cmNlLWxpbmU9IjQwIiBkYXRhLXVpZD0iZW50MDAwOCIgaWQ9ImVudGl0eV9GZWVkYmFja1N0YXR1cyI+PHJlY3QgZmlsbD0iI0YxRjFGMSIgaGVpZ2h0PSI5Mi45NTMxIiByeD0iMi41IiByeT0iMi41IiBzdHlsZT0ic3Ryb2tlOiMxODE4MTg7c3Ryb2tlLXdpZHRoOjAuNTsiIHdpZHRoPSIxMzAiIHg9IjM2MCIgeT0iMzczLjk4NDQiLz48ZWxsaXBzZSBjeD0iMzc1IiBjeT0iMzg5Ljk4NDQiIGZpbGw9IiNFQjkzN0YiIHJ4PSIxMSIgcnk9IjExIiBzdHlsZT0ic3Ryb2tlOiMxODE4MTg7c3Ryb2tlLXdpZHRoOjE7Ii8+PHBhdGggZD0iTTM3OC42MjUsMzk1Ljk4NDQgTDM3OC42MjUsMzk0LjIzNDQgTDM3My4zMTI1LDM5NC4yMzQ0IFEzNzMuMzEyNSwzOTQuMjM0NCAzNzMuMzEyNSwzOTAuNjcxOSBMMzc3LjU2MjUsMzkwLjY3MTkgTDM3Ny41NjI1LDM4OC45MjE5IEwzNzMuMzEyNSwzODguOTIxOSBMMzczLjMxMjUsMzg2LjQyMTkgTDM3OC42MjUsMzg2LjQyMTkgTDM3OC42MjUsMzg0LjY3MTkgTDM3MS41NjI1LDM4NC42NzE5IFEzNzEuNTYyNSwzODQuNjcxOSAzNzEuNTYyNSwzOTUuOTg0NCBMMzc4LjYyNSwzOTUuOTg0NCBaICIgZmlsbD0iIzAwMDAwMCIvPjx0ZXh0IGZpbGw9IiMwMDAwMDAiIGZvbnQtZmFtaWx5PSJzYW5zLXNlcmlmIiBmb250LXNpemU9IjE0IiBsZW5ndGhBZGp1c3Q9InNwYWNpbmciIHRleHRMZW5ndGg9Ijk4IiB4PSIzODkiIHk9IjM5NS43MjY2Ij5GZWVkYmFja1N0YXR1czwvdGV4dD48bGluZSBzdHlsZT0ic3Ryb2tlOiMxODE4MTg7c3Ryb2tlLXdpZHRoOjAuNTsiIHgxPSIzNjEiIHgyPSI0ODkiIHkxPSI0MDUuOTg0NCIgeTI9IjQwNS45ODQ0Ii8+PHRleHQgZmlsbD0iIzAwMDAwMCIgZm9udC1mYW1pbHk9InNhbnMtc2VyaWYiIGZvbnQtc2l6ZT0iMTQiIGxlbmd0aEFkanVzdD0ic3BhY2luZyIgdGV4dExlbmd0aD0iMjEiIHg9IjM2NiIgeT0iNDIzLjIxODgiPk5FVzwvdGV4dD48dGV4dCBmaWxsPSIjMDAwMDAwIiBmb250LWZhbWlseT0ic2Fucy1zZXJpZiIgZm9udC1zaXplPSIxNCIgbGVuZ3RoQWRqdXN0PSJzcGFjaW5nIiB0ZXh0TGVuZ3RoPSI3NyIgeD0iMzY2IiB5PSI0MzguMjAzMSI+SU5fUFJPR1JFU1M8L3RleHQ+PHRleHQgZmlsbD0iIzAwMDAwMCIgZm9udC1mYW1pbHk9InNhbnMtc2VyaWYiIGZvbnQtc2l6ZT0iMTQiIGxlbmd0aEFkanVzdD0ic3BhY2luZyIgdGV4dExlbmd0aD0iNTYiIHg9IjM2NiIgeT0iNDUzLjE4NzUiPlJFU09MVkVEPC90ZXh0PjxsaW5lIHN0eWxlPSJzdHJva2U6IzE4MTgxODtzdHJva2Utd2lkdGg6MC41OyIgeDE9IjM2MSIgeDI9IjQ4OSIgeTE9IjQ1OC45Mzc1IiB5Mj0iNDU4LjkzNzUiLz48L2c+PCEtLWNsYXNzIFVzZXJQcm9maWxlLS0+PGcgY2xhc3M9ImVudGl0eSIgZGF0YS1lbnRpdHk9IlVzZXJQcm9maWxlIiBkYXRhLXNvdXJjZS1saW5lPSI0OSIgZGF0YS11aWQ9ImVudDAwMTAiIGlkPSJlbnRpdHlfVXNlclByb2ZpbGUiPjxyZWN0IGZpbGw9IiNGMUYxRjEiIGhlaWdodD0iMTM3LjkwNjMiIHJ4PSIyLjUiIHJ5PSIyLjUiIHN0eWxlPSJzdHJva2U6IzE4MTgxODtzdHJva2Utd2lkdGg6MC41OyIgd2lkdGg9IjE5NCIgeD0iODY5IiB5PSIzNTEuNDg0NCIvPjxlbGxpcHNlIGN4PSI5MjMuMjUiIGN5PSIzNjcuNDg0NCIgZmlsbD0iI0FERDFCMiIgcng9IjExIiByeT0iMTEiIHN0eWxlPSJzdHJva2U6IzE4MTgxODtzdHJva2Utd2lkdGg6MTsiLz48cGF0aCBkPSJNOTIwLjg3NSwzNzEuNzM0NCBMOTIwLjg3NSwzNzMuNDg0NCBMOTI1LjgxMjUsMzczLjQ4NDQgTDkyNS44MTI1LDM3MS43MzQ0IEw5MjAuODc1LDM3MS43MzQ0IFogTTkyMS41NjI1LDM3Mi40MjE5IFE5MjEuNTYyNSwzNzIuNDIxOSA5MjEuNTYyNSwzNjMuMjM0NCBMOTE5LjgxMjUsMzYzLjIzNDQgUTkxOS44MTI1LDM2My4yMzQ0IDkxOS44MTI1LDM3Mi40MjE5IEw5MjEuNTYyNSwzNzIuNDIxOSBaIE05MjUuMTI1LDM3Mi40MjE5IEw5MjYuODc1LDM3Mi40MjE5IFE5MjYuODc1LDM3Mi40MjE5IDkyNi44NzUsMzY5LjYwOTQgTDkyNS4xMjUsMzY5LjYwOTQgUTkyNS4xMjUsMzY5LjYwOTQgOTI1LjEyNSwzNzIuNDIxOSBaIE05MjUuMTI1LDM2My4yMzQ0IFE5MjUuMTI1LDM2My4yMzQ0IDkyNS4xMjUsMzY2LjA0NjkgTDkyNi44NzUsMzY2LjA0NjkgUTkyNi44NzUsMzY2LjA0NjkgOTI2Ljg3NSwzNjMuMjM0NCBMOTI1LjEyNSwzNjMuMjM0NCBaIE05MjAuODc1LDM2My45MjE5IEw5MjUuODEyNSwzNjMuOTIxOSBMOTI1LjgxMjUsMzYyLjE3MTkgTDkyMC44NzUsMzYyLjE3MTkgTDkyMC44NzUsMzYzLjkyMTkgWiAiIGZpbGw9IiMwMDAwMDAiLz48dGV4dCBmaWxsPSIjMDAwMDAwIiBmb250LWZhbWlseT0ic2Fucy1zZXJpZiIgZm9udC1zaXplPSIxNCIgbGVuZ3RoQWRqdXN0PSJzcGFjaW5nIiB0ZXh0TGVuZ3RoPSI3NyIgeD0iOTQzLjc1IiB5PSIzNzMuMjI2NiI+VXNlclByb2ZpbGU8L3RleHQ+PGxpbmUgc3R5bGU9InN0cm9rZTojMTgxODE4O3N0cm9rZS13aWR0aDowLjU7IiB4MT0iODcwIiB4Mj0iMTA2MiIgeTE9IjM4My40ODQ0IiB5Mj0iMzgzLjQ4NDQiLz48dGV4dCBmaWxsPSIjMDAwMDAwIiBmb250LWZhbWlseT0ic2Fucy1zZXJpZiIgZm9udC1zaXplPSIxNCIgbGVuZ3RoQWRqdXN0PSJzcGFjaW5nIiB0ZXh0TGVuZ3RoPSI3NyIgeD0iODc1IiB5PSI0MDAuNzE4OCI+K2lkOiBzdHJpbmc8L3RleHQ+PHRleHQgZmlsbD0iIzAwMDAwMCIgZm9udC1mYW1pbHk9InNhbnMtc2VyaWYiIGZvbnQtc2l6ZT0iMTQiIGxlbmd0aEFkanVzdD0ic3BhY2luZyIgdGV4dExlbmd0aD0iMTE5IiB4PSI4NzUiIHk9IjQxNS43MDMxIj4rZnVsbE5hbWU6IHN0cmluZzwvdGV4dD48dGV4dCBmaWxsPSIjMDAwMDAwIiBmb250LWZhbWlseT0ic2Fucy1zZXJpZiIgZm9udC1zaXplPSIxNCIgbGVuZ3RoQWRqdXN0PSJzcGFjaW5nIiB0ZXh0TGVuZ3RoPSIxNDAiIHg9Ijg3NSIgeT0iNDMwLjY4NzUiPitwaG9uZU51bWJlcjogc3RyaW5nPC90ZXh0Pjx0ZXh0IGZpbGw9IiMwMDAwMDAiIGZvbnQtZmFtaWx5PSJzYW5zLXNlcmlmIiBmb250LXNpemU9IjE0IiBsZW5ndGhBZGp1c3Q9InNwYWNpbmciIHRleHRMZW5ndGg9IjEyNiIgeD0iODc1IiB5PSI0NDUuNjcxOSI+K2F2YXRhclVybDogc3RyaW5nPC90ZXh0Pjx0ZXh0IGZpbGw9IiMwMDAwMDAiIGZvbnQtZmFtaWx5PSJzYW5zLXNlcmlmIiBmb250LXNpemU9IjE0IiBsZW5ndGhBZGp1c3Q9InNwYWNpbmciIHRleHRMZW5ndGg9IjExMiIgeD0iODc1IiB5PSI0NjAuNjU2MyI+K2NyZWF0ZWRBdDogRGF0ZTwvdGV4dD48bGluZSBzdHlsZT0ic3Ryb2tlOiMxODE4MTg7c3Ryb2tlLXdpZHRoOjE7IiB4MT0iODcwIiB4Mj0iMTA2MiIgeTE9IjQ2Ni40MDYzIiB5Mj0iNDY2LjQwNjMiLz48dGV4dCBmaWxsPSIjMDAwMDAwIiBmb250LWZhbWlseT0ic2Fucy1zZXJpZiIgZm9udC1zaXplPSIxNCIgbGVuZ3RoQWRqdXN0PSJzcGFjaW5nIiB0ZXh0TGVuZ3RoPSIxODIiIHg9Ijg3NSIgeT0iNDgzLjY0MDYiPit1cGRhdGVEZXRhaWxzKGRhdGEpOiB2b2lkPC90ZXh0PjwvZz48IS0tY2xhc3MgUm9sZS0tPjxnIGNsYXNzPSJlbnRpdHkiIGRhdGEtZW50aXR5PSJSb2xlIiBkYXRhLXNvdXJjZS1saW5lPSI1OSIgZGF0YS11aWQ9ImVudDAwMTIiIGlkPSJlbnRpdHlfUm9sZSI+PHJlY3QgZmlsbD0iI0YxRjFGMSIgaGVpZ2h0PSI3Ny45Njg4IiByeD0iMi41IiByeT0iMi41IiBzdHlsZT0ic3Ryb2tlOiMxODE4MTg7c3Ryb2tlLXdpZHRoOjAuNTsiIHdpZHRoPSIyNjQiIHg9IjU3MCIgeT0iMzgxLjQ4NDQiLz48ZWxsaXBzZSBjeD0iNjgzLjc1IiBjeT0iMzk3LjQ4NDQiIGZpbGw9IiNBREQxQjIiIHJ4PSIxMSIgcnk9IjExIiBzdHlsZT0ic3Ryb2tlOiMxODE4MTg7c3Ryb2tlLXdpZHRoOjE7Ii8+PHBhdGggZD0iTTY4MS4zNzUsNDAxLjczNDQgTDY4MS4zNzUsNDAzLjQ4NDQgTDY4Ni4zMTI1LDQwMy40ODQ0IEw2ODYuMzEyNSw0MDEuNzM0NCBMNjgxLjM3NSw0MDEuNzM0NCBaIE02ODIuMDYyNSw0MDIuNDIxOSBRNjgyLjA2MjUsNDAyLjQyMTkgNjgyLjA2MjUsMzkzLjIzNDQgTDY4MC4zMTI1LDM5My4yMzQ0IFE2ODAuMzEyNSwzOTMuMjM0NCA2ODAuMzEyNSw0MDIuNDIxOSBMNjgyLjA2MjUsNDAyLjQyMTkgWiBNNjg1LjYyNSw0MDIuNDIxOSBMNjg3LjM3NSw0MDIuNDIxOSBRNjg3LjM3NSw0MDIuNDIxOSA2ODcuMzc1LDM5OS42MDk0IEw2ODUuNjI1LDM5OS42MDk0IFE2ODUuNjI1LDM5OS42MDk0IDY4NS42MjUsNDAyLjQyMTkgWiBNNjg1LjYyNSwzOTMuMjM0NCBRNjg1LjYyNSwzOTMuMjM0NCA2ODUuNjI1LDM5Ni4wNDY5IEw2ODcuMzc1LDM5Ni4wNDY5IFE2ODcuMzc1LDM5Ni4wNDY5IDY4Ny4zNzUsMzkzLjIzNDQgTDY4NS42MjUsMzkzLjIzNDQgWiBNNjgxLjM3NSwzOTMuOTIxOSBMNjg2LjMxMjUsMzkzLjkyMTkgTDY4Ni4zMTI1LDM5Mi4xNzE5IEw2ODEuMzc1LDM5Mi4xNzE5IEw2ODEuMzc1LDM5My45MjE5IFogIiBmaWxsPSIjMDAwMDAwIi8+PHRleHQgZmlsbD0iIzAwMDAwMCIgZm9udC1mYW1pbHk9InNhbnMtc2VyaWYiIGZvbnQtc2l6ZT0iMTQiIGxlbmd0aEFkanVzdD0ic3BhY2luZyIgdGV4dExlbmd0aD0iMjgiIHg9IjcwNC4yNSIgeT0iNDAzLjIyNjYiPlJvbGU8L3RleHQ+PGxpbmUgc3R5bGU9InN0cm9rZTojMTgxODE4O3N0cm9rZS13aWR0aDowLjU7IiB4MT0iNTcxIiB4Mj0iODMzIiB5MT0iNDEzLjQ4NDQiIHkyPSI0MTMuNDg0NCIvPjx0ZXh0IGZpbGw9IiMwMDAwMDAiIGZvbnQtZmFtaWx5PSJzYW5zLXNlcmlmIiBmb250LXNpemU9IjE0IiBsZW5ndGhBZGp1c3Q9InNwYWNpbmciIHRleHRMZW5ndGg9IjU2IiB4PSI1NzYiIHk9IjQzMC43MTg4Ij4raWQ6IGludDwvdGV4dD48dGV4dCBmaWxsPSIjMDAwMDAwIiBmb250LWZhbWlseT0ic2Fucy1zZXJpZiIgZm9udC1zaXplPSIxNCIgbGVuZ3RoQWRqdXN0PSJzcGFjaW5nIiB0ZXh0TGVuZ3RoPSIyNTIiIHg9IjU3NiIgeT0iNDQ1LjcwMzEiPituYW1lOiBzdHJpbmcgJyBNRU1CRVIsIEFETUlOLCBTVEFGRjwvdGV4dD48bGluZSBzdHlsZT0ic3Ryb2tlOiMxODE4MTg7c3Ryb2tlLXdpZHRoOjAuNTsiIHgxPSI1NzEiIHgyPSI4MzMiIHkxPSI0NTEuNDUzMSIgeTI9IjQ1MS40NTMxIi8+PC9nPjwhLS1jbGFzcyBBY2NvdW50LS0+PGcgY2xhc3M9ImVudGl0eSIgZGF0YS1lbnRpdHk9IkFjY291bnQiIGRhdGEtc291cmNlLWxpbmU9IjY0IiBkYXRhLXVpZD0iZW50MDAxMyIgaWQ9ImVudGl0eV9BY2NvdW50Ij48cmVjdCBmaWxsPSIjRjFGMUYxIiBoZWlnaHQ9IjIyNy44MTI1IiByeD0iMi41IiByeT0iMi41IiBzdHlsZT0ic3Ryb2tlOiMxODE4MTg7c3Ryb2tlLXdpZHRoOjAuNTsiIHdpZHRoPSIyODUiIHg9Ijc3Ny41IiB5PSI2NDYuOTg0NCIvPjxlbGxpcHNlIGN4PSI4OTEuMjUiIGN5PSI2NjIuOTg0NCIgZmlsbD0iI0FERDFCMiIgcng9IjExIiByeT0iMTEiIHN0eWxlPSJzdHJva2U6IzE4MTgxODtzdHJva2Utd2lkdGg6MTsiLz48cGF0aCBkPSJNODg4Ljg3NSw2NjcuMjM0NCBMODg4Ljg3NSw2NjguOTg0NCBMODkzLjgxMjUsNjY4Ljk4NDQgTDg5My44MTI1LDY2Ny4yMzQ0IEw4ODguODc1LDY2Ny4yMzQ0IFogTTg4OS41NjI1LDY2Ny45MjE5IFE4ODkuNTYyNSw2NjcuOTIxOSA4ODkuNTYyNSw2NTguNzM0NCBMODg3LjgxMjUsNjU4LjczNDQgUTg4Ny44MTI1LDY1OC43MzQ0IDg4Ny44MTI1LDY2Ny45MjE5IEw4ODkuNTYyNSw2NjcuOTIxOSBaIE04OTMuMTI1LDY2Ny45MjE5IEw4OTQuODc1LDY2Ny45MjE5IFE4OTQuODc1LDY2Ny45MjE5IDg5NC44NzUsNjY1LjEwOTQgTDg5My4xMjUsNjY1LjEwOTQgUTg5My4xMjUsNjY1LjEwOTQgODkzLjEyNSw2NjcuOTIxOSBaIE04OTMuMTI1LDY1OC43MzQ0IFE4OTMuMTI1LDY1OC43MzQ0IDg5My4xMjUsNjYxLjU0NjkgTDg5NC44NzUsNjYxLjU0NjkgUTg5NC44NzUsNjYxLjU0NjkgODk0Ljg3NSw2NTguNzM0NCBMODkzLjEyNSw2NTguNzM0NCBaIE04ODguODc1LDY1OS40MjE5IEw4OTMuODEyNSw2NTkuNDIxOSBMODkzLjgxMjUsNjU3LjY3MTkgTDg4OC44NzUsNjU3LjY3MTkgTDg4OC44NzUsNjU5LjQyMTkgWiAiIGZpbGw9IiMwMDAwMDAiLz48dGV4dCBmaWxsPSIjMDAwMDAwIiBmb250LWZhbWlseT0ic2Fucy1zZXJpZiIgZm9udC1zaXplPSIxNCIgbGVuZ3RoQWRqdXN0PSJzcGFjaW5nIiB0ZXh0TGVuZ3RoPSI0OSIgeD0iOTExLjc1IiB5PSI2NjguNzI2NiI+QWNjb3VudDwvdGV4dD48bGluZSBzdHlsZT0ic3Ryb2tlOiMxODE4MTg7c3Ryb2tlLXdpZHRoOjAuNTsiIHgxPSI3NzguNSIgeDI9IjEwNjEuNSIgeTE9IjY3OC45ODQ0IiB5Mj0iNjc4Ljk4NDQiLz48dGV4dCBmaWxsPSIjMDAwMDAwIiBmb250LWZhbWlseT0ic2Fucy1zZXJpZiIgZm9udC1zaXplPSIxNCIgbGVuZ3RoQWRqdXN0PSJzcGFjaW5nIiB0ZXh0TGVuZ3RoPSI3NyIgeD0iNzgzLjUiIHk9IjY5Ni4yMTg4Ij4raWQ6IHN0cmluZzwvdGV4dD48dGV4dCBmaWxsPSIjMDAwMDAwIiBmb250LWZhbWlseT0ic2Fucy1zZXJpZiIgZm9udC1zaXplPSIxNCIgbGVuZ3RoQWRqdXN0PSJzcGFjaW5nIiB0ZXh0TGVuZ3RoPSI5OCIgeD0iNzgzLjUiIHk9IjcxMS4yMDMxIj4rZW1haWw6IHN0cmluZzwvdGV4dD48dGV4dCBmaWxsPSIjMDAwMDAwIiBmb250LWZhbWlseT0ic2Fucy1zZXJpZiIgZm9udC1zaXplPSIxNCIgbGVuZ3RoQWRqdXN0PSJzcGFjaW5nIiB0ZXh0TGVuZ3RoPSIxNDciIHg9Ijc4My41IiB5PSI3MjYuMTg3NSI+K3Bhc3N3b3JkSGFzaDogc3RyaW5nPC90ZXh0Pjx0ZXh0IGZpbGw9IiMwMDAwMDAiIGZvbnQtZmFtaWx5PSJzYW5zLXNlcmlmIiBmb250LXNpemU9IjE0IiBsZW5ndGhBZGp1c3Q9InNwYWNpbmciIHRleHRMZW5ndGg9IjIzMSIgeD0iNzgzLjUiIHk9Ijc0MS4xNzE5Ij4rcHJvdmlkZXI6IHN0cmluZyAnIGxvY2FsLCBnb29nbGU8L3RleHQ+PHRleHQgZmlsbD0iIzAwMDAwMCIgZm9udC1mYW1pbHk9InNhbnMtc2VyaWYiIGZvbnQtc2l6ZT0iMTQiIGxlbmd0aEFkanVzdD0ic3BhY2luZyIgdGV4dExlbmd0aD0iMTU0IiB4PSI3ODMuNSIgeT0iNzU2LjE1NjMiPitzdGF0dXM6IEFjY291bnRTdGF0dXM8L3RleHQ+PHRleHQgZmlsbD0iIzAwMDAwMCIgZm9udC1mYW1pbHk9InNhbnMtc2VyaWYiIGZvbnQtc2l6ZT0iMTQiIGxlbmd0aEFkanVzdD0ic3BhY2luZyIgdGV4dExlbmd0aD0iMTQwIiB4PSI3ODMuNSIgeT0iNzcxLjE0MDYiPitpc1ZlcmlmaWVkOiBib29sZWFuPC90ZXh0Pjx0ZXh0IGZpbGw9IiMwMDAwMDAiIGZvbnQtZmFtaWx5PSJzYW5zLXNlcmlmIiBmb250LXNpemU9IjE0IiBsZW5ndGhBZGp1c3Q9InNwYWNpbmciIHRleHRMZW5ndGg9IjExMiIgeD0iNzgzLjUiIHk9Ijc4Ni4xMjUiPitsYXN0TG9naW46IERhdGU8L3RleHQ+PGxpbmUgc3R5bGU9InN0cm9rZTojMTgxODE4O3N0cm9rZS13aWR0aDoxOyIgeDE9Ijc3OC41IiB4Mj0iMTA2MS41IiB5MT0iNzkxLjg3NSIgeTI9Ijc5MS44NzUiLz48dGV4dCBmaWxsPSIjMDAwMDAwIiBmb250LWZhbWlseT0ic2Fucy1zZXJpZiIgZm9udC1zaXplPSIxNCIgbGVuZ3RoQWRqdXN0PSJzcGFjaW5nIiB0ZXh0TGVuZ3RoPSIyNzMiIHg9Ijc4My41IiB5PSI4MDkuMTA5NCI+K2NoYW5nZVBhc3N3b3JkKG9sZFBhc3MsIG5ld1Bhc3MpOiB2b2lkPC90ZXh0Pjx0ZXh0IGZpbGw9IiMwMDAwMDAiIGZvbnQtZmFtaWx5PSJzYW5zLXNlcmlmIiBmb250LXNpemU9IjE0IiBsZW5ndGhBZGp1c3Q9InNwYWNpbmciIHRleHRMZW5ndGg9IjEwNSIgeD0iNzgzLjUiIHk9IjgyNC4wOTM4Ij4rdmVyaWZ5KCk6IHZvaWQ8L3RleHQ+PHRleHQgZmlsbD0iIzAwMDAwMCIgZm9udC1mYW1pbHk9InNhbnMtc2VyaWYiIGZvbnQtc2l6ZT0iMTQiIGxlbmd0aEFkanVzdD0ic3BhY2luZyIgdGV4dExlbmd0aD0iMTEyIiB4PSI3ODMuNSIgeT0iODM5LjA3ODEiPitzdXNwZW5kKCk6IHZvaWQ8L3RleHQ+PHRleHQgZmlsbD0iIzAwMDAwMCIgZm9udC1mYW1pbHk9InNhbnMtc2VyaWYiIGZvbnQtc2l6ZT0iMTQiIGxlbmd0aEFkanVzdD0ic3BhY2luZyIgdGV4dExlbmd0aD0iMTE5IiB4PSI3ODMuNSIgeT0iODU0LjA2MjUiPithY3RpdmF0ZSgpOiB2b2lkPC90ZXh0Pjx0ZXh0IGZpbGw9IiMwMDAwMDAiIGZvbnQtZmFtaWx5PSJzYW5zLXNlcmlmIiBmb250LXNpemU9IjE0IiBsZW5ndGhBZGp1c3Q9InNwYWNpbmciIHRleHRMZW5ndGg9IjE4MiIgeD0iNzgzLjUiIHk9Ijg2OS4wNDY5Ij4rc2V0Um9sZShyb2xlOiBSb2xlKTogdm9pZDwvdGV4dD48L2c+PCEtLWNsYXNzIEFkZHJlc3MtLT48ZyBjbGFzcz0iZW50aXR5IiBkYXRhLWVudGl0eT0iQWRkcmVzcyIgZGF0YS1zb3VyY2UtbGluZT0iODMiIGRhdGEtdWlkPSJlbnQwMDE1IiBpZD0iZW50aXR5X0FkZHJlc3MiPjxyZWN0IGZpbGw9IiNGMUYxRjEiIGhlaWdodD0iOTIuOTUzMSIgcng9IjIuNSIgcnk9IjIuNSIgc3R5bGU9InN0cm9rZTojMTgxODE4O3N0cm9rZS13aWR0aDowLjU7IiB3aWR0aD0iMTg3IiB4PSIyOTM2LjUiIHk9IjcxNC40ODQ0Ii8+PGVsbGlwc2UgY3g9IjMwMDEuMjUiIGN5PSI3MzAuNDg0NCIgZmlsbD0iI0FERDFCMiIgcng9IjExIiByeT0iMTEiIHN0eWxlPSJzdHJva2U6IzE4MTgxODtzdHJva2Utd2lkdGg6MTsiLz48cGF0aCBkPSJNMjk5OC44NzUsNzM0LjczNDQgTDI5OTguODc1LDczNi40ODQ0IEwzMDAzLjgxMjUsNzM2LjQ4NDQgTDMwMDMuODEyNSw3MzQuNzM0NCBMMjk5OC44NzUsNzM0LjczNDQgWiBNMjk5OS41NjI1LDczNS40MjE5IFEyOTk5LjU2MjUsNzM1LjQyMTkgMjk5OS41NjI1LDcyNi4yMzQ0IEwyOTk3LjgxMjUsNzI2LjIzNDQgUTI5OTcuODEyNSw3MjYuMjM0NCAyOTk3LjgxMjUsNzM1LjQyMTkgTDI5OTkuNTYyNSw3MzUuNDIxOSBaIE0zMDAzLjEyNSw3MzUuNDIxOSBMMzAwNC44NzUsNzM1LjQyMTkgUTMwMDQuODc1LDczNS40MjE5IDMwMDQuODc1LDczMi42MDk0IEwzMDAzLjEyNSw3MzIuNjA5NCBRMzAwMy4xMjUsNzMyLjYwOTQgMzAwMy4xMjUsNzM1LjQyMTkgWiBNMzAwMy4xMjUsNzI2LjIzNDQgUTMwMDMuMTI1LDcyNi4yMzQ0IDMwMDMuMTI1LDcyOS4wNDY5IEwzMDA0Ljg3NSw3MjkuMDQ2OSBRMzAwNC44NzUsNzI5LjA0NjkgMzAwNC44NzUsNzI2LjIzNDQgTDMwMDMuMTI1LDcyNi4yMzQ0IFogTTI5OTguODc1LDcyNi45MjE5IEwzMDAzLjgxMjUsNzI2LjkyMTkgTDMwMDMuODEyNSw3MjUuMTcxOSBMMjk5OC44NzUsNzI1LjE3MTkgTDI5OTguODc1LDcyNi45MjE5IFogIiBmaWxsPSIjMDAwMDAwIi8+PHRleHQgZmlsbD0iIzAwMDAwMCIgZm9udC1mYW1pbHk9InNhbnMtc2VyaWYiIGZvbnQtc2l6ZT0iMTQiIGxlbmd0aEFkanVzdD0ic3BhY2luZyIgdGV4dExlbmd0aD0iNDkiIHg9IjMwMjEuNzUiIHk9IjczNi4yMjY2Ij5BZGRyZXNzPC90ZXh0PjxsaW5lIHN0eWxlPSJzdHJva2U6IzE4MTgxODtzdHJva2Utd2lkdGg6MC41OyIgeDE9IjI5MzcuNSIgeDI9IjMxMjIuNSIgeTE9Ijc0Ni40ODQ0IiB5Mj0iNzQ2LjQ4NDQiLz48dGV4dCBmaWxsPSIjMDAwMDAwIiBmb250LWZhbWlseT0ic2Fucy1zZXJpZiIgZm9udC1zaXplPSIxNCIgbGVuZ3RoQWRqdXN0PSJzcGFjaW5nIiB0ZXh0TGVuZ3RoPSI3NyIgeD0iMjk0Mi41IiB5PSI3NjMuNzE4OCI+K2lkOiBzdHJpbmc8L3RleHQ+PHRleHQgZmlsbD0iIzAwMDAwMCIgZm9udC1mYW1pbHk9InNhbnMtc2VyaWYiIGZvbnQtc2l6ZT0iMTQiIGxlbmd0aEFkanVzdD0ic3BhY2luZyIgdGV4dExlbmd0aD0iMTA1IiB4PSIyOTQyLjUiIHk9Ijc3OC43MDMxIj4rc3RyZWV0OiBzdHJpbmc8L3RleHQ+PGxpbmUgc3R5bGU9InN0cm9rZTojMTgxODE4O3N0cm9rZS13aWR0aDoxOyIgeDE9IjI5MzcuNSIgeDI9IjMxMjIuNSIgeTE9Ijc4NC40NTMxIiB5Mj0iNzg0LjQ1MzEiLz48dGV4dCBmaWxsPSIjMDAwMDAwIiBmb250LWZhbWlseT0ic2Fucy1zZXJpZiIgZm9udC1zaXplPSIxNCIgbGVuZ3RoQWRqdXN0PSJzcGFjaW5nIiB0ZXh0TGVuZ3RoPSIxNzUiIHg9IjI5NDIuNSIgeT0iODAxLjY4NzUiPitnZXRGdWxsQWRkcmVzcygpOiBzdHJpbmc8L3RleHQ+PC9nPjwhLS1jbGFzcyBVdGlsaXR5LS0+PGcgY2xhc3M9ImVudGl0eSIgZGF0YS1lbnRpdHk9IlV0aWxpdHkiIGRhdGEtc291cmNlLWxpbmU9IjkxIiBkYXRhLXVpZD0iZW50MDAxNyIgaWQ9ImVudGl0eV9VdGlsaXR5Ij48cmVjdCBmaWxsPSIjRjFGMUYxIiBoZWlnaHQ9IjkyLjk1MzEiIHJ4PSIyLjUiIHJ5PSIyLjUiIHN0eWxlPSJzdHJva2U6IzE4MTgxODtzdHJva2Utd2lkdGg6MC41OyIgd2lkdGg9IjEyNCIgeD0iMjYxMSIgeT0iNzE0LjQ4NDQiLz48ZWxsaXBzZSBjeD0iMjY0NS4zNSIgY3k9IjczMC40ODQ0IiBmaWxsPSIjQUREMUIyIiByeD0iMTEiIHJ5PSIxMSIgc3R5bGU9InN0cm9rZTojMTgxODE4O3N0cm9rZS13aWR0aDoxOyIvPjxwYXRoIGQ9Ik0yNjQyLjk3NSw3MzQuNzM0NCBMMjY0Mi45NzUsNzM2LjQ4NDQgTDI2NDcuOTEyNSw3MzYuNDg0NCBMMjY0Ny45MTI1LDczNC43MzQ0IEwyNjQyLjk3NSw3MzQuNzM0NCBaIE0yNjQzLjY2MjUsNzM1LjQyMTkgUTI2NDMuNjYyNSw3MzUuNDIxOSAyNjQzLjY2MjUsNzI2LjIzNDQgTDI2NDEuOTEyNSw3MjYuMjM0NCBRMjY0MS45MTI1LDcyNi4yMzQ0IDI2NDEuOTEyNSw3MzUuNDIxOSBMMjY0My42NjI1LDczNS40MjE5IFogTTI2NDcuMjI1LDczNS40MjE5IEwyNjQ4Ljk3NSw3MzUuNDIxOSBRMjY0OC45NzUsNzM1LjQyMTkgMjY0OC45NzUsNzMyLjYwOTQgTDI2NDcuMjI1LDczMi42MDk0IFEyNjQ3LjIyNSw3MzIuNjA5NCAyNjQ3LjIyNSw3MzUuNDIxOSBaIE0yNjQ3LjIyNSw3MjYuMjM0NCBRMjY0Ny4yMjUsNzI2LjIzNDQgMjY0Ny4yMjUsNzI5LjA0NjkgTDI2NDguOTc1LDcyOS4wNDY5IFEyNjQ4Ljk3NSw3MjkuMDQ2OSAyNjQ4Ljk3NSw3MjYuMjM0NCBMMjY0Ny4yMjUsNzI2LjIzNDQgWiBNMjY0Mi45NzUsNzI2LjkyMTkgTDI2NDcuOTEyNSw3MjYuOTIxOSBMMjY0Ny45MTI1LDcyNS4xNzE5IEwyNjQyLjk3NSw3MjUuMTcxOSBMMjY0Mi45NzUsNzI2LjkyMTkgWiAiIGZpbGw9IiMwMDAwMDAiLz48dGV4dCBmaWxsPSIjMDAwMDAwIiBmb250LWZhbWlseT0ic2Fucy1zZXJpZiIgZm9udC1zaXplPSIxNCIgbGVuZ3RoQWRqdXN0PSJzcGFjaW5nIiB0ZXh0TGVuZ3RoPSI0OSIgeD0iMjY2My42NSIgeT0iNzM2LjIyNjYiPlV0aWxpdHk8L3RleHQ+PGxpbmUgc3R5bGU9InN0cm9rZTojMTgxODE4O3N0cm9rZS13aWR0aDowLjU7IiB4MT0iMjYxMiIgeDI9IjI3MzQiIHkxPSI3NDYuNDg0NCIgeTI9Ijc0Ni40ODQ0Ii8+PHRleHQgZmlsbD0iIzAwMDAwMCIgZm9udC1mYW1pbHk9InNhbnMtc2VyaWYiIGZvbnQtc2l6ZT0iMTQiIGxlbmd0aEFkanVzdD0ic3BhY2luZyIgdGV4dExlbmd0aD0iNTYiIHg9IjI2MTciIHk9Ijc2My43MTg4Ij4raWQ6IGludDwvdGV4dD48dGV4dCBmaWxsPSIjMDAwMDAwIiBmb250LWZhbWlseT0ic2Fucy1zZXJpZiIgZm9udC1zaXplPSIxNCIgbGVuZ3RoQWRqdXN0PSJzcGFjaW5nIiB0ZXh0TGVuZ3RoPSI5MSIgeD0iMjYxNyIgeT0iNzc4LjcwMzEiPituYW1lOiBzdHJpbmc8L3RleHQ+PHRleHQgZmlsbD0iIzAwMDAwMCIgZm9udC1mYW1pbHk9InNhbnMtc2VyaWYiIGZvbnQtc2l6ZT0iMTQiIGxlbmd0aEFkanVzdD0ic3BhY2luZyIgdGV4dExlbmd0aD0iMTEyIiB4PSIyNjE3IiB5PSI3OTMuNjg3NSI+K2ljb25Vcmw6IHN0cmluZzwvdGV4dD48bGluZSBzdHlsZT0ic3Ryb2tlOiMxODE4MTg7c3Ryb2tlLXdpZHRoOjAuNTsiIHgxPSIyNjEyIiB4Mj0iMjczNCIgeTE9Ijc5OS40Mzc1IiB5Mj0iNzk5LjQzNzUiLz48L2c+PCEtLWNsYXNzIEZpZWxkVHlwZS0tPjxnIGNsYXNzPSJlbnRpdHkiIGRhdGEtZW50aXR5PSJGaWVsZFR5cGUiIGRhdGEtc291cmNlLWxpbmU9Ijk3IiBkYXRhLXVpZD0iZW50MDAxOCIgaWQ9ImVudGl0eV9GaWVsZFR5cGUiPjxyZWN0IGZpbGw9IiNGMUYxRjEiIGhlaWdodD0iOTIuOTUzMSIgcng9IjIuNSIgcnk9IjIuNSIgc3R5bGU9InN0cm9rZTojMTgxODE4O3N0cm9rZS13aWR0aDowLjU7IiB3aWR0aD0iMTUyIiB4PSIyNjQ2IiB5PSIxMTUuOTg0NCIvPjxlbGxpcHNlIGN4PSIyNjg2LjY1IiBjeT0iMTMxLjk4NDQiIGZpbGw9IiNBREQxQjIiIHJ4PSIxMSIgcnk9IjExIiBzdHlsZT0ic3Ryb2tlOiMxODE4MTg7c3Ryb2tlLXdpZHRoOjE7Ii8+PHBhdGggZD0iTTI2ODQuMjc1LDEzNi4yMzQ0IEwyNjg0LjI3NSwxMzcuOTg0NCBMMjY4OS4yMTI1LDEzNy45ODQ0IEwyNjg5LjIxMjUsMTM2LjIzNDQgTDI2ODQuMjc1LDEzNi4yMzQ0IFogTTI2ODQuOTYyNSwxMzYuOTIxOSBRMjY4NC45NjI1LDEzNi45MjE5IDI2ODQuOTYyNSwxMjcuNzM0NCBMMjY4My4yMTI1LDEyNy43MzQ0IFEyNjgzLjIxMjUsMTI3LjczNDQgMjY4My4yMTI1LDEzNi45MjE5IEwyNjg0Ljk2MjUsMTM2LjkyMTkgWiBNMjY4OC41MjUsMTM2LjkyMTkgTDI2OTAuMjc1LDEzNi45MjE5IFEyNjkwLjI3NSwxMzYuOTIxOSAyNjkwLjI3NSwxMzQuMTA5NCBMMjY4OC41MjUsMTM0LjEwOTQgUTI2ODguNTI1LDEzNC4xMDk0IDI2ODguNTI1LDEzNi45MjE5IFogTTI2ODguNTI1LDEyNy43MzQ0IFEyNjg4LjUyNSwxMjcuNzM0NCAyNjg4LjUyNSwxMzAuNTQ2OSBMMjY5MC4yNzUsMTMwLjU0NjkgUTI2OTAuMjc1LDEzMC41NDY5IDI2OTAuMjc1LDEyNy43MzQ0IEwyNjg4LjUyNSwxMjcuNzM0NCBaIE0yNjg0LjI3NSwxMjguNDIxOSBMMjY4OS4yMTI1LDEyOC40MjE5IEwyNjg5LjIxMjUsMTI2LjY3MTkgTDI2ODQuMjc1LDEyNi42NzE5IEwyNjg0LjI3NSwxMjguNDIxOSBaICIgZmlsbD0iIzAwMDAwMCIvPjx0ZXh0IGZpbGw9IiMwMDAwMDAiIGZvbnQtZmFtaWx5PSJzYW5zLXNlcmlmIiBmb250LXNpemU9IjE0IiBsZW5ndGhBZGp1c3Q9InNwYWNpbmciIHRleHRMZW5ndGg9IjYzIiB4PSIyNzA2LjM1IiB5PSIxMzcuNzI2NiI+RmllbGRUeXBlPC90ZXh0PjxsaW5lIHN0eWxlPSJzdHJva2U6IzE4MTgxODtzdHJva2Utd2lkdGg6MC41OyIgeDE9IjI2NDciIHgyPSIyNzk3IiB5MT0iMTQ3Ljk4NDQiIHkyPSIxNDcuOTg0NCIvPjx0ZXh0IGZpbGw9IiMwMDAwMDAiIGZvbnQtZmFtaWx5PSJzYW5zLXNlcmlmIiBmb250LXNpemU9IjE0IiBsZW5ndGhBZGp1c3Q9InNwYWNpbmciIHRleHRMZW5ndGg9Ijc3IiB4PSIyNjUyIiB5PSIxNjUuMjE4OCI+K2lkOiBzdHJpbmc8L3RleHQ+PHRleHQgZmlsbD0iIzAwMDAwMCIgZm9udC1mYW1pbHk9InNhbnMtc2VyaWYiIGZvbnQtc2l6ZT0iMTQiIGxlbmd0aEFkanVzdD0ic3BhY2luZyIgdGV4dExlbmd0aD0iOTEiIHg9IjI2NTIiIHk9IjE4MC4yMDMxIj4rbmFtZTogc3RyaW5nPC90ZXh0Pjx0ZXh0IGZpbGw9IiMwMDAwMDAiIGZvbnQtZmFtaWx5PSJzYW5zLXNlcmlmIiBmb250LXNpemU9IjE0IiBsZW5ndGhBZGp1c3Q9InNwYWNpbmciIHRleHRMZW5ndGg9IjE0MCIgeD0iMjY1MiIgeT0iMTk1LjE4NzUiPitkZXNjcmlwdGlvbjogc3RyaW5nPC90ZXh0PjxsaW5lIHN0eWxlPSJzdHJva2U6IzE4MTgxODtzdHJva2Utd2lkdGg6MC41OyIgeDE9IjI2NDciIHgyPSIyNzk3IiB5MT0iMjAwLjkzNzUiIHkyPSIyMDAuOTM3NSIvPjwvZz48IS0tY2xhc3MgRmllbGQtLT48ZyBjbGFzcz0iZW50aXR5IiBkYXRhLWVudGl0eT0iRmllbGQiIGRhdGEtc291cmNlLWxpbmU9IjEwMyIgZGF0YS11aWQ9ImVudDAwMTkiIGlkPSJlbnRpdHlfRmllbGQiPjxyZWN0IGZpbGw9IiNGMUYxRjEiIGhlaWdodD0iMTk3Ljg0MzgiIHJ4PSIyLjUiIHJ5PSIyLjUiIHN0eWxlPSJzdHJva2U6IzE4MTgxODtzdHJva2Utd2lkdGg6MC41OyIgd2lkdGg9IjI5MiIgeD0iMjYxMSIgeT0iMzIxLjQ4NDQiLz48ZWxsaXBzZSBjeD0iMjczNS4yNSIgY3k9IjMzNy40ODQ0IiBmaWxsPSIjQUREMUIyIiByeD0iMTEiIHJ5PSIxMSIgc3R5bGU9InN0cm9rZTojMTgxODE4O3N0cm9rZS13aWR0aDoxOyIvPjxwYXRoIGQ9Ik0yNzMyLjg3NSwzNDEuNzM0NCBMMjczMi44NzUsMzQzLjQ4NDQgTDI3MzcuODEyNSwzNDMuNDg0NCBMMjczNy44MTI1LDM0MS43MzQ0IEwyNzMyLjg3NSwzNDEuNzM0NCBaIE0yNzMzLjU2MjUsMzQyLjQyMTkgUTI3MzMuNTYyNSwzNDIuNDIxOSAyNzMzLjU2MjUsMzMzLjIzNDQgTDI3MzEuODEyNSwzMzMuMjM0NCBRMjczMS44MTI1LDMzMy4yMzQ0IDI3MzEuODEyNSwzNDIuNDIxOSBMMjczMy41NjI1LDM0Mi40MjE5IFogTTI3MzcuMTI1LDM0Mi40MjE5IEwyNzM4Ljg3NSwzNDIuNDIxOSBRMjczOC44NzUsMzQyLjQyMTkgMjczOC44NzUsMzM5LjYwOTQgTDI3MzcuMTI1LDMzOS42MDk0IFEyNzM3LjEyNSwzMzkuNjA5NCAyNzM3LjEyNSwzNDIuNDIxOSBaIE0yNzM3LjEyNSwzMzMuMjM0NCBRMjczNy4xMjUsMzMzLjIzNDQgMjczNy4xMjUsMzM2LjA0NjkgTDI3MzguODc1LDMzNi4wNDY5IFEyNzM4Ljg3NSwzMzYuMDQ2OSAyNzM4Ljg3NSwzMzMuMjM0NCBMMjczNy4xMjUsMzMzLjIzNDQgWiBNMjczMi44NzUsMzMzLjkyMTkgTDI3MzcuODEyNSwzMzMuOTIxOSBMMjczNy44MTI1LDMzMi4xNzE5IEwyNzMyLjg3NSwzMzIuMTcxOSBMMjczMi44NzUsMzMzLjkyMTkgWiAiIGZpbGw9IiMwMDAwMDAiLz48dGV4dCBmaWxsPSIjMDAwMDAwIiBmb250LWZhbWlseT0ic2Fucy1zZXJpZiIgZm9udC1zaXplPSIxNCIgbGVuZ3RoQWRqdXN0PSJzcGFjaW5nIiB0ZXh0TGVuZ3RoPSIzNSIgeD0iMjc1NS43NSIgeT0iMzQzLjIyNjYiPkZpZWxkPC90ZXh0PjxsaW5lIHN0eWxlPSJzdHJva2U6IzE4MTgxODtzdHJva2Utd2lkdGg6MC41OyIgeDE9IjI2MTIiIHgyPSIyOTAyIiB5MT0iMzUzLjQ4NDQiIHkyPSIzNTMuNDg0NCIvPjx0ZXh0IGZpbGw9IiMwMDAwMDAiIGZvbnQtZmFtaWx5PSJzYW5zLXNlcmlmIiBmb250LXNpemU9IjE0IiBsZW5ndGhBZGp1c3Q9InNwYWNpbmciIHRleHRMZW5ndGg9Ijc3IiB4PSIyNjE3IiB5PSIzNzAuNzE4OCI+K2lkOiBzdHJpbmc8L3RleHQ+PHRleHQgZmlsbD0iIzAwMDAwMCIgZm9udC1mYW1pbHk9InNhbnMtc2VyaWYiIGZvbnQtc2l6ZT0iMTQiIGxlbmd0aEFkanVzdD0ic3BhY2luZyIgdGV4dExlbmd0aD0iOTEiIHg9IjI2MTciIHk9IjM4NS43MDMxIj4rbmFtZTogc3RyaW5nPC90ZXh0Pjx0ZXh0IGZpbGw9IiMwMDAwMDAiIGZvbnQtZmFtaWx5PSJzYW5zLXNlcmlmIiBmb250LXNpemU9IjE0IiBsZW5ndGhBZGp1c3Q9InNwYWNpbmciIHRleHRMZW5ndGg9IjE0MCIgeD0iMjYxNyIgeT0iNDAwLjY4NzUiPitkZXNjcmlwdGlvbjogc3RyaW5nPC90ZXh0Pjx0ZXh0IGZpbGw9IiMwMDAwMDAiIGZvbnQtZmFtaWx5PSJzYW5zLXNlcmlmIiBmb250LXNpemU9IjE0IiBsZW5ndGhBZGp1c3Q9InNwYWNpbmciIHRleHRMZW5ndGg9IjE0MCIgeD0iMjYxNyIgeT0iNDE1LjY3MTkiPitzdGF0dXM6IEZpZWxkU3RhdHVzPC90ZXh0PjxsaW5lIHN0eWxlPSJzdHJva2U6IzE4MTgxODtzdHJva2Utd2lkdGg6MTsiIHgxPSIyNjEyIiB4Mj0iMjkwMiIgeTE9IjQyMS40MjE5IiB5Mj0iNDIxLjQyMTkiLz48dGV4dCBmaWxsPSIjMDAwMDAwIiBmb250LWZhbWlseT0ic2Fucy1zZXJpZiIgZm9udC1zaXplPSIxNCIgbGVuZ3RoQWRqdXN0PSJzcGFjaW5nIiB0ZXh0TGVuZ3RoPSIyNDUiIHg9IjI2MTciIHk9IjQzOC42NTYzIj4rYWRkVXRpbGl0eSh1dGlsaXR5OiBVdGlsaXR5KTogdm9pZDwvdGV4dD48dGV4dCBmaWxsPSIjMDAwMDAwIiBmb250LWZhbWlseT0ic2Fucy1zZXJpZiIgZm9udC1zaXplPSIxNCIgbGVuZ3RoQWRqdXN0PSJzcGFjaW5nIiB0ZXh0TGVuZ3RoPSIyNjYiIHg9IjI2MTciIHk9IjQ1My42NDA2Ij4rcmVtb3ZlVXRpbGl0eSh1dGlsaXR5OiBVdGlsaXR5KTogdm9pZDwvdGV4dD48dGV4dCBmaWxsPSIjMDAwMDAwIiBmb250LWZhbWlseT0ic2Fucy1zZXJpZiIgZm9udC1zaXplPSIxNCIgbGVuZ3RoQWRqdXN0PSJzcGFjaW5nIiB0ZXh0TGVuZ3RoPSIyODAiIHg9IjI2MTciIHk9IjQ2OC42MjUiPithZGRJbWFnZShpbWFnZVVybCwgaXNDb3Zlcik6IEZpZWxkSW1hZ2U8L3RleHQ+PHRleHQgZmlsbD0iIzAwMDAwMCIgZm9udC1mYW1pbHk9InNhbnMtc2VyaWYiIGZvbnQtc2l6ZT0iMTQiIGxlbmd0aEFkanVzdD0ic3BhY2luZyIgdGV4dExlbmd0aD0iMjczIiB4PSIyNjE3IiB5PSI0ODMuNjA5NCI+K3NldENvdmVySW1hZ2UoaW1hZ2U6IEZpZWxkSW1hZ2UpOiB2b2lkPC90ZXh0Pjx0ZXh0IGZpbGw9IiMwMDAwMDAiIGZvbnQtZmFtaWx5PSJzYW5zLXNlcmlmIiBmb250LXNpemU9IjE0IiBsZW5ndGhBZGp1c3Q9InNwYWNpbmciIHRleHRMZW5ndGg9IjkxIiB4PSIyNjE3IiB5PSI0OTguNTkzOCI+K29wZW4oKTogdm9pZDwvdGV4dD48dGV4dCBmaWxsPSIjMDAwMDAwIiBmb250LWZhbWlseT0ic2Fucy1zZXJpZiIgZm9udC1zaXplPSIxNCIgbGVuZ3RoQWRqdXN0PSJzcGFjaW5nIiB0ZXh0TGVuZ3RoPSIxOTYiIHg9IjI2MTciIHk9IjUxMy41NzgxIj4rY2xvc2VGb3JNYWludGVuYW5jZSgpOiB2b2lkPC90ZXh0PjwvZz48IS0tY2xhc3MgRmllbGRJbWFnZS0tPjxnIGNsYXNzPSJlbnRpdHkiIGRhdGEtZW50aXR5PSJGaWVsZEltYWdlIiBkYXRhLXNvdXJjZS1saW5lPSIxMTciIGRhdGEtdWlkPSJlbnQwMDIwIiBpZD0iZW50aXR5X0ZpZWxkSW1hZ2UiPjxyZWN0IGZpbGw9IiNGMUYxRjEiIGhlaWdodD0iOTIuOTUzMSIgcng9IjIuNSIgcnk9IjIuNSIgc3R5bGU9InN0cm9rZTojMTgxODE4O3N0cm9rZS13aWR0aDowLjU7IiB3aWR0aD0iMTMxIiB4PSIyNzcwLjUiIHk9IjcxNC40ODQ0Ii8+PGVsbGlwc2UgY3g9IjI3OTguNTUiIGN5PSI3MzAuNDg0NCIgZmlsbD0iI0FERDFCMiIgcng9IjExIiByeT0iMTEiIHN0eWxlPSJzdHJva2U6IzE4MTgxODtzdHJva2Utd2lkdGg6MTsiLz48cGF0aCBkPSJNMjc5Ni4xNzUsNzM0LjczNDQgTDI3OTYuMTc1LDczNi40ODQ0IEwyODAxLjExMjUsNzM2LjQ4NDQgTDI4MDEuMTEyNSw3MzQuNzM0NCBMMjc5Ni4xNzUsNzM0LjczNDQgWiBNMjc5Ni44NjI1LDczNS40MjE5IFEyNzk2Ljg2MjUsNzM1LjQyMTkgMjc5Ni44NjI1LDcyNi4yMzQ0IEwyNzk1LjExMjUsNzI2LjIzNDQgUTI3OTUuMTEyNSw3MjYuMjM0NCAyNzk1LjExMjUsNzM1LjQyMTkgTDI3OTYuODYyNSw3MzUuNDIxOSBaIE0yODAwLjQyNSw3MzUuNDIxOSBMMjgwMi4xNzUsNzM1LjQyMTkgUTI4MDIuMTc1LDczNS40MjE5IDI4MDIuMTc1LDczMi42MDk0IEwyODAwLjQyNSw3MzIuNjA5NCBRMjgwMC40MjUsNzMyLjYwOTQgMjgwMC40MjUsNzM1LjQyMTkgWiBNMjgwMC40MjUsNzI2LjIzNDQgUTI4MDAuNDI1LDcyNi4yMzQ0IDI4MDAuNDI1LDcyOS4wNDY5IEwyODAyLjE3NSw3MjkuMDQ2OSBRMjgwMi4xNzUsNzI5LjA0NjkgMjgwMi4xNzUsNzI2LjIzNDQgTDI4MDAuNDI1LDcyNi4yMzQ0IFogTTI3OTYuMTc1LDcyNi45MjE5IEwyODAxLjExMjUsNzI2LjkyMTkgTDI4MDEuMTEyNSw3MjUuMTcxOSBMMjc5Ni4xNzUsNzI1LjE3MTkgTDI3OTYuMTc1LDcyNi45MjE5IFogIiBmaWxsPSIjMDAwMDAwIi8+PHRleHQgZmlsbD0iIzAwMDAwMCIgZm9udC1mYW1pbHk9InNhbnMtc2VyaWYiIGZvbnQtc2l6ZT0iMTQiIGxlbmd0aEFkanVzdD0ic3BhY2luZyIgdGV4dExlbmd0aD0iNzAiIHg9IjI4MTUuNDUiIHk9IjczNi4yMjY2Ij5GaWVsZEltYWdlPC90ZXh0PjxsaW5lIHN0eWxlPSJzdHJva2U6IzE4MTgxODtzdHJva2Utd2lkdGg6MC41OyIgeDE9IjI3NzEuNSIgeDI9IjI5MDAuNSIgeTE9Ijc0Ni40ODQ0IiB5Mj0iNzQ2LjQ4NDQiLz48dGV4dCBmaWxsPSIjMDAwMDAwIiBmb250LWZhbWlseT0ic2Fucy1zZXJpZiIgZm9udC1zaXplPSIxNCIgbGVuZ3RoQWRqdXN0PSJzcGFjaW5nIiB0ZXh0TGVuZ3RoPSI3NyIgeD0iMjc3Ni41IiB5PSI3NjMuNzE4OCI+K2lkOiBzdHJpbmc8L3RleHQ+PHRleHQgZmlsbD0iIzAwMDAwMCIgZm9udC1mYW1pbHk9InNhbnMtc2VyaWYiIGZvbnQtc2l6ZT0iMTQiIGxlbmd0aEFkanVzdD0ic3BhY2luZyIgdGV4dExlbmd0aD0iMTE5IiB4PSIyNzc2LjUiIHk9Ijc3OC43MDMxIj4raW1hZ2VVcmw6IHN0cmluZzwvdGV4dD48dGV4dCBmaWxsPSIjMDAwMDAwIiBmb250LWZhbWlseT0ic2Fucy1zZXJpZiIgZm9udC1zaXplPSIxNCIgbGVuZ3RoQWRqdXN0PSJzcGFjaW5nIiB0ZXh0TGVuZ3RoPSIxMTkiIHg9IjI3NzYuNSIgeT0iNzkzLjY4NzUiPitpc0NvdmVyOiBib29sZWFuPC90ZXh0PjxsaW5lIHN0eWxlPSJzdHJva2U6IzE4MTgxODtzdHJva2Utd2lkdGg6MC41OyIgeDE9IjI3NzEuNSIgeDI9IjI5MDAuNSIgeTE9Ijc5OS40Mzc1IiB5Mj0iNzk5LjQzNzUiLz48L2c+PCEtLWNsYXNzIFRpbWVTbG90LS0+PGcgY2xhc3M9ImVudGl0eSIgZGF0YS1lbnRpdHk9IlRpbWVTbG90IiBkYXRhLXNvdXJjZS1saW5lPSIxMjYiIGRhdGEtdWlkPSJlbnQwMDIyIiBpZD0iZW50aXR5X1RpbWVTbG90Ij48cmVjdCBmaWxsPSIjRjFGMUYxIiBoZWlnaHQ9IjEzNy45MDYzIiByeD0iMi41IiByeT0iMi41IiBzdHlsZT0ic3Ryb2tlOiMxODE4MTg7c3Ryb2tlLXdpZHRoOjAuNTsiIHdpZHRoPSIyMDgiIHg9IjE5NTciIHk9IjM1MS40ODQ0Ii8+PGVsbGlwc2UgY3g9IjIwMjguNzUiIGN5PSIzNjcuNDg0NCIgZmlsbD0iI0FERDFCMiIgcng9IjExIiByeT0iMTEiIHN0eWxlPSJzdHJva2U6IzE4MTgxODtzdHJva2Utd2lkdGg6MTsiLz48cGF0aCBkPSJNMjAyNi4zNzUsMzcxLjczNDQgTDIwMjYuMzc1LDM3My40ODQ0IEwyMDMxLjMxMjUsMzczLjQ4NDQgTDIwMzEuMzEyNSwzNzEuNzM0NCBMMjAyNi4zNzUsMzcxLjczNDQgWiBNMjAyNy4wNjI1LDM3Mi40MjE5IFEyMDI3LjA2MjUsMzcyLjQyMTkgMjAyNy4wNjI1LDM2My4yMzQ0IEwyMDI1LjMxMjUsMzYzLjIzNDQgUTIwMjUuMzEyNSwzNjMuMjM0NCAyMDI1LjMxMjUsMzcyLjQyMTkgTDIwMjcuMDYyNSwzNzIuNDIxOSBaIE0yMDMwLjYyNSwzNzIuNDIxOSBMMjAzMi4zNzUsMzcyLjQyMTkgUTIwMzIuMzc1LDM3Mi40MjE5IDIwMzIuMzc1LDM2OS42MDk0IEwyMDMwLjYyNSwzNjkuNjA5NCBRMjAzMC42MjUsMzY5LjYwOTQgMjAzMC42MjUsMzcyLjQyMTkgWiBNMjAzMC42MjUsMzYzLjIzNDQgUTIwMzAuNjI1LDM2My4yMzQ0IDIwMzAuNjI1LDM2Ni4wNDY5IEwyMDMyLjM3NSwzNjYuMDQ2OSBRMjAzMi4zNzUsMzY2LjA0NjkgMjAzMi4zNzUsMzYzLjIzNDQgTDIwMzAuNjI1LDM2My4yMzQ0IFogTTIwMjYuMzc1LDM2My45MjE5IEwyMDMxLjMxMjUsMzYzLjkyMTkgTDIwMzEuMzEyNSwzNjIuMTcxOSBMMjAyNi4zNzUsMzYyLjE3MTkgTDIwMjYuMzc1LDM2My45MjE5IFogIiBmaWxsPSIjMDAwMDAwIi8+PHRleHQgZmlsbD0iIzAwMDAwMCIgZm9udC1mYW1pbHk9InNhbnMtc2VyaWYiIGZvbnQtc2l6ZT0iMTQiIGxlbmd0aEFkanVzdD0ic3BhY2luZyIgdGV4dExlbmd0aD0iNTYiIHg9IjIwNDkuMjUiIHk9IjM3My4yMjY2Ij5UaW1lU2xvdDwvdGV4dD48bGluZSBzdHlsZT0ic3Ryb2tlOiMxODE4MTg7c3Ryb2tlLXdpZHRoOjAuNTsiIHgxPSIxOTU4IiB4Mj0iMjE2NCIgeTE9IjM4My40ODQ0IiB5Mj0iMzgzLjQ4NDQiLz48dGV4dCBmaWxsPSIjMDAwMDAwIiBmb250LWZhbWlseT0ic2Fucy1zZXJpZiIgZm9udC1zaXplPSIxNCIgbGVuZ3RoQWRqdXN0PSJzcGFjaW5nIiB0ZXh0TGVuZ3RoPSI1NiIgeD0iMTk2MyIgeT0iNDAwLjcxODgiPitpZDogaW50PC90ZXh0Pjx0ZXh0IGZpbGw9IiMwMDAwMDAiIGZvbnQtZmFtaWx5PSJzYW5zLXNlcmlmIiBmb250LXNpemU9IjE0IiBsZW5ndGhBZGp1c3Q9InNwYWNpbmciIHRleHRMZW5ndGg9IjExMiIgeD0iMTk2MyIgeT0iNDE1LjcwMzEiPitzdGFydFRpbWU6IFRpbWU8L3RleHQ+PHRleHQgZmlsbD0iIzAwMDAwMCIgZm9udC1mYW1pbHk9InNhbnMtc2VyaWYiIGZvbnQtc2l6ZT0iMTQiIGxlbmd0aEFkanVzdD0ic3BhY2luZyIgdGV4dExlbmd0aD0iOTgiIHg9IjE5NjMiIHk9IjQzMC42ODc1Ij4rZW5kVGltZTogVGltZTwvdGV4dD48dGV4dCBmaWxsPSIjMDAwMDAwIiBmb250LWZhbWlseT0ic2Fucy1zZXJpZiIgZm9udC1zaXplPSIxNCIgbGVuZ3RoQWRqdXN0PSJzcGFjaW5nIiB0ZXh0TGVuZ3RoPSI5OCIgeD0iMTk2MyIgeT0iNDQ1LjY3MTkiPitwcmljZTogbnVtYmVyPC90ZXh0Pjx0ZXh0IGZpbGw9IiMwMDAwMDAiIGZvbnQtZmFtaWx5PSJzYW5zLXNlcmlmIiBmb250LXNpemU9IjE0IiBsZW5ndGhBZGp1c3Q9InNwYWNpbmciIHRleHRMZW5ndGg9IjE0MCIgeD0iMTk2MyIgeT0iNDYwLjY1NjMiPitpc1BlYWtIb3VyOiBib29sZWFuPC90ZXh0PjxsaW5lIHN0eWxlPSJzdHJva2U6IzE4MTgxODtzdHJva2Utd2lkdGg6MTsiIHgxPSIxOTU4IiB4Mj0iMjE2NCIgeTE9IjQ2Ni40MDYzIiB5Mj0iNDY2LjQwNjMiLz48dGV4dCBmaWxsPSIjMDAwMDAwIiBmb250LWZhbWlseT0ic2Fucy1zZXJpZiIgZm9udC1zaXplPSIxNCIgbGVuZ3RoQWRqdXN0PSJzcGFjaW5nIiB0ZXh0TGVuZ3RoPSIxOTYiIHg9IjE5NjMiIHk9IjQ4My42NDA2Ij4rdXBkYXRlUHJpY2UobmV3UHJpY2UpOiB2b2lkPC90ZXh0PjwvZz48IS0tY2xhc3MgQm9va2luZy0tPjxnIGNsYXNzPSJlbnRpdHkiIGRhdGEtZW50aXR5PSJCb29raW5nIiBkYXRhLXNvdXJjZS1saW5lPSIxMzYiIGRhdGEtdWlkPSJlbnQwMDI0IiBpZD0iZW50aXR5X0Jvb2tpbmciPjxyZWN0IGZpbGw9IiNGMUYxRjEiIGhlaWdodD0iMTk3Ljg0MzgiIHJ4PSIyLjUiIHJ5PSIyLjUiIHN0eWxlPSJzdHJva2U6IzE4MTgxODtzdHJva2Utd2lkdGg6MC41OyIgd2lkdGg9IjIyMiIgeD0iMTk0NSIgeT0iNjYxLjk4NDQiLz48ZWxsaXBzZSBjeD0iMjAyNy4yNSIgY3k9IjY3Ny45ODQ0IiBmaWxsPSIjQUREMUIyIiByeD0iMTEiIHJ5PSIxMSIgc3R5bGU9InN0cm9rZTojMTgxODE4O3N0cm9rZS13aWR0aDoxOyIvPjxwYXRoIGQ9Ik0yMDI0Ljg3NSw2ODIuMjM0NCBMMjAyNC44NzUsNjgzLjk4NDQgTDIwMjkuODEyNSw2ODMuOTg0NCBMMjAyOS44MTI1LDY4Mi4yMzQ0IEwyMDI0Ljg3NSw2ODIuMjM0NCBaIE0yMDI1LjU2MjUsNjgyLjkyMTkgUTIwMjUuNTYyNSw2ODIuOTIxOSAyMDI1LjU2MjUsNjczLjczNDQgTDIwMjMuODEyNSw2NzMuNzM0NCBRMjAyMy44MTI1LDY3My43MzQ0IDIwMjMuODEyNSw2ODIuOTIxOSBMMjAyNS41NjI1LDY4Mi45MjE5IFogTTIwMjkuMTI1LDY4Mi45MjE5IEwyMDMwLjg3NSw2ODIuOTIxOSBRMjAzMC44NzUsNjgyLjkyMTkgMjAzMC44NzUsNjgwLjEwOTQgTDIwMjkuMTI1LDY4MC4xMDk0IFEyMDI5LjEyNSw2ODAuMTA5NCAyMDI5LjEyNSw2ODIuOTIxOSBaIE0yMDI5LjEyNSw2NzMuNzM0NCBRMjAyOS4xMjUsNjczLjczNDQgMjAyOS4xMjUsNjc2LjU0NjkgTDIwMzAuODc1LDY3Ni41NDY5IFEyMDMwLjg3NSw2NzYuNTQ2OSAyMDMwLjg3NSw2NzMuNzM0NCBMMjAyOS4xMjUsNjczLjczNDQgWiBNMjAyNC44NzUsNjc0LjQyMTkgTDIwMjkuODEyNSw2NzQuNDIxOSBMMjAyOS44MTI1LDY3Mi42NzE5IEwyMDI0Ljg3NSw2NzIuNjcxOSBMMjAyNC44NzUsNjc0LjQyMTkgWiAiIGZpbGw9IiMwMDAwMDAiLz48dGV4dCBmaWxsPSIjMDAwMDAwIiBmb250LWZhbWlseT0ic2Fucy1zZXJpZiIgZm9udC1zaXplPSIxNCIgbGVuZ3RoQWRqdXN0PSJzcGFjaW5nIiB0ZXh0TGVuZ3RoPSI0OSIgeD0iMjA0Ny43NSIgeT0iNjgzLjcyNjYiPkJvb2tpbmc8L3RleHQ+PGxpbmUgc3R5bGU9InN0cm9rZTojMTgxODE4O3N0cm9rZS13aWR0aDowLjU7IiB4MT0iMTk0NiIgeDI9IjIxNjYiIHkxPSI2OTMuOTg0NCIgeTI9IjY5My45ODQ0Ii8+PHRleHQgZmlsbD0iIzAwMDAwMCIgZm9udC1mYW1pbHk9InNhbnMtc2VyaWYiIGZvbnQtc2l6ZT0iMTQiIGxlbmd0aEFkanVzdD0ic3BhY2luZyIgdGV4dExlbmd0aD0iNzciIHg9IjE5NTEiIHk9IjcxMS4yMTg4Ij4raWQ6IHN0cmluZzwvdGV4dD48dGV4dCBmaWxsPSIjMDAwMDAwIiBmb250LWZhbWlseT0ic2Fucy1zZXJpZiIgZm9udC1zaXplPSIxNCIgbGVuZ3RoQWRqdXN0PSJzcGFjaW5nIiB0ZXh0TGVuZ3RoPSIxMjYiIHg9IjE5NTEiIHk9IjcyNi4yMDMxIj4rYm9va2luZ0RhdGU6IERhdGU8L3RleHQ+PHRleHQgZmlsbD0iIzAwMDAwMCIgZm9udC1mYW1pbHk9InNhbnMtc2VyaWYiIGZvbnQtc2l6ZT0iMTQiIGxlbmd0aEFkanVzdD0ic3BhY2luZyIgdGV4dExlbmd0aD0iMTMzIiB4PSIxOTUxIiB5PSI3NDEuMTg3NSI+K3RvdGFsUHJpY2U6IG51bWJlcjwvdGV4dD48dGV4dCBmaWxsPSIjMDAwMDAwIiBmb250LWZhbWlseT0ic2Fucy1zZXJpZiIgZm9udC1zaXplPSIxNCIgbGVuZ3RoQWRqdXN0PSJzcGFjaW5nIiB0ZXh0TGVuZ3RoPSIxNTQiIHg9IjE5NTEiIHk9Ijc1Ni4xNzE5Ij4rc3RhdHVzOiBCb29raW5nU3RhdHVzPC90ZXh0Pjx0ZXh0IGZpbGw9IiMwMDAwMDAiIGZvbnQtZmFtaWx5PSJzYW5zLXNlcmlmIiBmb250LXNpemU9IjE0IiBsZW5ndGhBZGp1c3Q9InNwYWNpbmciIHRleHRMZW5ndGg9IjExMiIgeD0iMTk1MSIgeT0iNzcxLjE1NjMiPitjcmVhdGVkQXQ6IERhdGU8L3RleHQ+PGxpbmUgc3R5bGU9InN0cm9rZTojMTgxODE4O3N0cm9rZS13aWR0aDoxOyIgeDE9IjE5NDYiIHgyPSIyMTY2IiB5MT0iNzc2LjkwNjMiIHkyPSI3NzYuOTA2MyIvPjx0ZXh0IGZpbGw9IiMwMDAwMDAiIGZvbnQtZmFtaWx5PSJzYW5zLXNlcmlmIiBmb250LXNpemU9IjE0IiBsZW5ndGhBZGp1c3Q9InNwYWNpbmciIHRleHRMZW5ndGg9IjExMiIgeD0iMTk1MSIgeT0iNzk0LjE0MDYiPitjb25maXJtKCk6IHZvaWQ8L3RleHQ+PHRleHQgZmlsbD0iIzAwMDAwMCIgZm9udC1mYW1pbHk9InNhbnMtc2VyaWYiIGZvbnQtc2l6ZT0iMTQiIGxlbmd0aEFkanVzdD0ic3BhY2luZyIgdGV4dExlbmd0aD0iMjAzIiB4PSIxOTUxIiB5PSI4MDkuMTI1Ij4rY2FuY2VsKHJlYXNvbjogc3RyaW5nKTogdm9pZDwvdGV4dD48dGV4dCBmaWxsPSIjMDAwMDAwIiBmb250LWZhbWlseT0ic2Fucy1zZXJpZiIgZm9udC1zaXplPSIxNCIgbGVuZ3RoQWRqdXN0PSJzcGFjaW5nIiB0ZXh0TGVuZ3RoPSIxMTkiIHg9IjE5NTEiIHk9IjgyNC4xMDk0Ij4rY29tcGxldGUoKTogdm9pZDwvdGV4dD48dGV4dCBmaWxsPSIjMDAwMDAwIiBmb250LWZhbWlseT0ic2Fucy1zZXJpZiIgZm9udC1zaXplPSIxNCIgbGVuZ3RoQWRqdXN0PSJzcGFjaW5nIiB0ZXh0TGVuZ3RoPSIyMTAiIHg9IjE5NTEiIHk9IjgzOS4wOTM4Ij4rY2FsY3VsYXRlVG90YWxQcmljZSgpOiBudW1iZXI8L3RleHQ+PHRleHQgZmlsbD0iIzAwMDAwMCIgZm9udC1mYW1pbHk9InNhbnMtc2VyaWYiIGZvbnQtc2l6ZT0iMTQiIGxlbmd0aEFkanVzdD0ic3BhY2luZyIgdGV4dExlbmd0aD0iMTc1IiB4PSIxOTUxIiB5PSI4NTQuMDc4MSI+K2lzUGFzdEJvb2tpbmcoKTogYm9vbGVhbjwvdGV4dD48L2c+PCEtLWNsYXNzIFZvdWNoZXItLT48ZyBjbGFzcz0iZW50aXR5IiBkYXRhLWVudGl0eT0iVm91Y2hlciIgZGF0YS1zb3VyY2UtbGluZT0iMTUzIiBkYXRhLXVpZD0iZW50MDAyNiIgaWQ9ImVudGl0eV9Wb3VjaGVyIj48cmVjdCBmaWxsPSIjRjFGMUYxIiBoZWlnaHQ9IjIxMi44MjgxIiByeD0iMi41IiByeT0iMi41IiBzdHlsZT0ic3Ryb2tlOiMxODE4MTg7c3Ryb2tlLXdpZHRoOjAuNTsiIHdpZHRoPSIyMzYiIHg9IjIyNzEiIHk9IjY1NC40ODQ0Ii8+PGVsbGlwc2UgY3g9IjIzNjAuMjUiIGN5PSI2NzAuNDg0NCIgZmlsbD0iI0FERDFCMiIgcng9IjExIiByeT0iMTEiIHN0eWxlPSJzdHJva2U6IzE4MTgxODtzdHJva2Utd2lkdGg6MTsiLz48cGF0aCBkPSJNMjM1Ny44NzUsNjc0LjczNDQgTDIzNTcuODc1LDY3Ni40ODQ0IEwyMzYyLjgxMjUsNjc2LjQ4NDQgTDIzNjIuODEyNSw2NzQuNzM0NCBMMjM1Ny44NzUsNjc0LjczNDQgWiBNMjM1OC41NjI1LDY3NS40MjE5IFEyMzU4LjU2MjUsNjc1LjQyMTkgMjM1OC41NjI1LDY2Ni4yMzQ0IEwyMzU2LjgxMjUsNjY2LjIzNDQgUTIzNTYuODEyNSw2NjYuMjM0NCAyMzU2LjgxMjUsNjc1LjQyMTkgTDIzNTguNTYyNSw2NzUuNDIxOSBaIE0yMzYyLjEyNSw2NzUuNDIxOSBMMjM2My44NzUsNjc1LjQyMTkgUTIzNjMuODc1LDY3NS40MjE5IDIzNjMuODc1LDY3Mi42MDk0IEwyMzYyLjEyNSw2NzIuNjA5NCBRMjM2Mi4xMjUsNjcyLjYwOTQgMjM2Mi4xMjUsNjc1LjQyMTkgWiBNMjM2Mi4xMjUsNjY2LjIzNDQgUTIzNjIuMTI1LDY2Ni4yMzQ0IDIzNjIuMTI1LDY2OS4wNDY5IEwyMzYzLjg3NSw2NjkuMDQ2OSBRMjM2My44NzUsNjY5LjA0NjkgMjM2My44NzUsNjY2LjIzNDQgTDIzNjIuMTI1LDY2Ni4yMzQ0IFogTTIzNTcuODc1LDY2Ni45MjE5IEwyMzYyLjgxMjUsNjY2LjkyMTkgTDIzNjIuODEyNSw2NjUuMTcxOSBMMjM1Ny44NzUsNjY1LjE3MTkgTDIzNTcuODc1LDY2Ni45MjE5IFogIiBmaWxsPSIjMDAwMDAwIi8+PHRleHQgZmlsbD0iIzAwMDAwMCIgZm9udC1mYW1pbHk9InNhbnMtc2VyaWYiIGZvbnQtc2l6ZT0iMTQiIGxlbmd0aEFkanVzdD0ic3BhY2luZyIgdGV4dExlbmd0aD0iNDkiIHg9IjIzODAuNzUiIHk9IjY3Ni4yMjY2Ij5Wb3VjaGVyPC90ZXh0PjxsaW5lIHN0eWxlPSJzdHJva2U6IzE4MTgxODtzdHJva2Utd2lkdGg6MC41OyIgeDE9IjIyNzIiIHgyPSIyNTA2IiB5MT0iNjg2LjQ4NDQiIHkyPSI2ODYuNDg0NCIvPjx0ZXh0IGZpbGw9IiMwMDAwMDAiIGZvbnQtZmFtaWx5PSJzYW5zLXNlcmlmIiBmb250LXNpemU9IjE0IiBsZW5ndGhBZGp1c3Q9InNwYWNpbmciIHRleHRMZW5ndGg9Ijc3IiB4PSIyMjc3IiB5PSI3MDMuNzE4OCI+K2lkOiBzdHJpbmc8L3RleHQ+PHRleHQgZmlsbD0iIzAwMDAwMCIgZm9udC1mYW1pbHk9InNhbnMtc2VyaWYiIGZvbnQtc2l6ZT0iMTQiIGxlbmd0aEFkanVzdD0ic3BhY2luZyIgdGV4dExlbmd0aD0iOTEiIHg9IjIyNzciIHk9IjcxOC43MDMxIj4rY29kZTogc3RyaW5nPC90ZXh0Pjx0ZXh0IGZpbGw9IiMwMDAwMDAiIGZvbnQtZmFtaWx5PSJzYW5zLXNlcmlmIiBmb250LXNpemU9IjE0IiBsZW5ndGhBZGp1c3Q9InNwYWNpbmciIHRleHRMZW5ndGg9IjE2MSIgeD0iMjI3NyIgeT0iNzMzLjY4NzUiPitkaXNjb3VudEFtb3VudDogbnVtYmVyPC90ZXh0Pjx0ZXh0IGZpbGw9IiMwMDAwMDAiIGZvbnQtZmFtaWx5PSJzYW5zLXNlcmlmIiBmb250LXNpemU9IjE0IiBsZW5ndGhBZGp1c3Q9InNwYWNpbmciIHRleHRMZW5ndGg9IjE2OCIgeD0iMjI3NyIgeT0iNzQ4LjY3MTkiPitkaXNjb3VudFBlcmNlbnRhZ2U6IGludDwvdGV4dD48dGV4dCBmaWxsPSIjMDAwMDAwIiBmb250LWZhbWlseT0ic2Fucy1zZXJpZiIgZm9udC1zaXplPSIxNCIgbGVuZ3RoQWRqdXN0PSJzcGFjaW5nIiB0ZXh0TGVuZ3RoPSIxMTIiIHg9IjIyNzciIHk9Ijc2My42NTYzIj4rdmFsaWRGcm9tOiBEYXRlPC90ZXh0Pjx0ZXh0IGZpbGw9IiMwMDAwMDAiIGZvbnQtZmFtaWx5PSJzYW5zLXNlcmlmIiBmb250LXNpemU9IjE0IiBsZW5ndGhBZGp1c3Q9InNwYWNpbmciIHRleHRMZW5ndGg9Ijk4IiB4PSIyMjc3IiB5PSI3NzguNjQwNiI+K3ZhbGlkVG86IERhdGU8L3RleHQ+PHRleHQgZmlsbD0iIzAwMDAwMCIgZm9udC1mYW1pbHk9InNhbnMtc2VyaWYiIGZvbnQtc2l6ZT0iMTQiIGxlbmd0aEFkanVzdD0ic3BhY2luZyIgdGV4dExlbmd0aD0iMTEyIiB4PSIyMjc3IiB5PSI3OTMuNjI1Ij4rdXNhZ2VMaW1pdDogaW50PC90ZXh0Pjx0ZXh0IGZpbGw9IiMwMDAwMDAiIGZvbnQtZmFtaWx5PSJzYW5zLXNlcmlmIiBmb250LXNpemU9IjE0IiBsZW5ndGhBZGp1c3Q9InNwYWNpbmciIHRleHRMZW5ndGg9IjExMiIgeD0iMjI3NyIgeT0iODA4LjYwOTQiPit1c2FnZUNvdW50OiBpbnQ8L3RleHQ+PGxpbmUgc3R5bGU9InN0cm9rZTojMTgxODE4O3N0cm9rZS13aWR0aDoxOyIgeDE9IjIyNzIiIHgyPSIyNTA2IiB5MT0iODE0LjM1OTQiIHkyPSI4MTQuMzU5NCIvPjx0ZXh0IGZpbGw9IiMwMDAwMDAiIGZvbnQtZmFtaWx5PSJzYW5zLXNlcmlmIiBmb250LXNpemU9IjE0IiBsZW5ndGhBZGp1c3Q9InNwYWNpbmciIHRleHRMZW5ndGg9IjIyNCIgeD0iMjI3NyIgeT0iODMxLjU5MzgiPithcHBseVRvKHBheW1lbnQ6IFBheW1lbnQpOiB2b2lkPC90ZXh0Pjx0ZXh0IGZpbGw9IiMwMDAwMDAiIGZvbnQtZmFtaWx5PSJzYW5zLXNlcmlmIiBmb250LXNpemU9IjE0IiBsZW5ndGhBZGp1c3Q9InNwYWNpbmciIHRleHRMZW5ndGg9IjE0NyIgeD0iMjI3NyIgeT0iODQ2LjU3ODEiPitpc0V4cGlyZWQoKTogYm9vbGVhbjwvdGV4dD48dGV4dCBmaWxsPSIjMDAwMDAwIiBmb250LWZhbWlseT0ic2Fucy1zZXJpZiIgZm9udC1zaXplPSIxNCIgbGVuZ3RoQWRqdXN0PSJzcGFjaW5nIiB0ZXh0TGVuZ3RoPSIyMTciIHg9IjIyNzciIHk9Ijg2MS41NjI1Ij4raXNVc2FnZUxpbWl0UmVhY2hlZCgpOiBib29sZWFuPC90ZXh0PjwvZz48IS0tY2xhc3MgUGF5bWVudC0tPjxnIGNsYXNzPSJlbnRpdHkiIGRhdGEtZW50aXR5PSJQYXltZW50IiBkYXRhLXNvdXJjZS1saW5lPSIxNjgiIGRhdGEtdWlkPSJlbnQwMDI4IiBpZD0iZW50aXR5X1BheW1lbnQiPjxyZWN0IGZpbGw9IiNGMUYxRjEiIGhlaWdodD0iMjEyLjgyODEiIHJ4PSIyLjUiIHJ5PSIyLjUiIHN0eWxlPSJzdHJva2U6IzE4MTgxODtzdHJva2Utd2lkdGg6MC41OyIgd2lkdGg9IjIyOSIgeD0iMjI3Mi41IiB5PSI5NzUuOTg0NCIvPjxlbGxpcHNlIGN4PSIyMzU4LjI1IiBjeT0iOTkxLjk4NDQiIGZpbGw9IiNBREQxQjIiIHJ4PSIxMSIgcnk9IjExIiBzdHlsZT0ic3Ryb2tlOiMxODE4MTg7c3Ryb2tlLXdpZHRoOjE7Ii8+PHBhdGggZD0iTTIzNTUuODc1LDk5Ni4yMzQ0IEwyMzU1Ljg3NSw5OTcuOTg0NCBMMjM2MC44MTI1LDk5Ny45ODQ0IEwyMzYwLjgxMjUsOTk2LjIzNDQgTDIzNTUuODc1LDk5Ni4yMzQ0IFogTTIzNTYuNTYyNSw5OTYuOTIxOSBRMjM1Ni41NjI1LDk5Ni45MjE5IDIzNTYuNTYyNSw5ODcuNzM0NCBMMjM1NC44MTI1LDk4Ny43MzQ0IFEyMzU0LjgxMjUsOTg3LjczNDQgMjM1NC44MTI1LDk5Ni45MjE5IEwyMzU2LjU2MjUsOTk2LjkyMTkgWiBNMjM2MC4xMjUsOTk2LjkyMTkgTDIzNjEuODc1LDk5Ni45MjE5IFEyMzYxLjg3NSw5OTYuOTIxOSAyMzYxLjg3NSw5OTQuMTA5NCBMMjM2MC4xMjUsOTk0LjEwOTQgUTIzNjAuMTI1LDk5NC4xMDk0IDIzNjAuMTI1LDk5Ni45MjE5IFogTTIzNjAuMTI1LDk4Ny43MzQ0IFEyMzYwLjEyNSw5ODcuNzM0NCAyMzYwLjEyNSw5OTAuNTQ2OSBMMjM2MS44NzUsOTkwLjU0NjkgUTIzNjEuODc1LDk5MC41NDY5IDIzNjEuODc1LDk4Ny43MzQ0IEwyMzYwLjEyNSw5ODcuNzM0NCBaIE0yMzU1Ljg3NSw5ODguNDIxOSBMMjM2MC44MTI1LDk4OC40MjE5IEwyMzYwLjgxMjUsOTg2LjY3MTkgTDIzNTUuODc1LDk4Ni42NzE5IEwyMzU1Ljg3NSw5ODguNDIxOSBaICIgZmlsbD0iIzAwMDAwMCIvPjx0ZXh0IGZpbGw9IiMwMDAwMDAiIGZvbnQtZmFtaWx5PSJzYW5zLXNlcmlmIiBmb250LXNpemU9IjE0IiBsZW5ndGhBZGp1c3Q9InNwYWNpbmciIHRleHRMZW5ndGg9IjQ5IiB4PSIyMzc4Ljc1IiB5PSI5OTcuNzI2NiI+UGF5bWVudDwvdGV4dD48bGluZSBzdHlsZT0ic3Ryb2tlOiMxODE4MTg7c3Ryb2tlLXdpZHRoOjAuNTsiIHgxPSIyMjczLjUiIHgyPSIyNTAwLjUiIHkxPSIxMDA3Ljk4NDQiIHkyPSIxMDA3Ljk4NDQiLz48dGV4dCBmaWxsPSIjMDAwMDAwIiBmb250LWZhbWlseT0ic2Fucy1zZXJpZiIgZm9udC1zaXplPSIxNCIgbGVuZ3RoQWRqdXN0PSJzcGFjaW5nIiB0ZXh0TGVuZ3RoPSI3NyIgeD0iMjI3OC41IiB5PSIxMDI1LjIxODgiPitpZDogc3RyaW5nPC90ZXh0Pjx0ZXh0IGZpbGw9IiMwMDAwMDAiIGZvbnQtZmFtaWx5PSJzYW5zLXNlcmlmIiBmb250LXNpemU9IjE0IiBsZW5ndGhBZGp1c3Q9InNwYWNpbmciIHRleHRMZW5ndGg9IjEwNSIgeD0iMjI3OC41IiB5PSIxMDQwLjIwMzEiPithbW91bnQ6IG51bWJlcjwvdGV4dD48dGV4dCBmaWxsPSIjMDAwMDAwIiBmb250LWZhbWlseT0ic2Fucy1zZXJpZiIgZm9udC1zaXplPSIxNCIgbGVuZ3RoQWRqdXN0PSJzcGFjaW5nIiB0ZXh0TGVuZ3RoPSIxNDAiIHg9IjIyNzguNSIgeT0iMTA1NS4xODc1Ij4rZmluYWxBbW91bnQ6IG51bWJlcjwvdGV4dD48dGV4dCBmaWxsPSIjMDAwMDAwIiBmb250LWZhbWlseT0ic2Fucy1zZXJpZiIgZm9udC1zaXplPSIxNCIgbGVuZ3RoQWRqdXN0PSJzcGFjaW5nIiB0ZXh0TGVuZ3RoPSIxNTQiIHg9IjIyNzguNSIgeT0iMTA3MC4xNzE5Ij4rc3RhdHVzOiBQYXltZW50U3RhdHVzPC90ZXh0Pjx0ZXh0IGZpbGw9IiMwMDAwMDAiIGZvbnQtZmFtaWx5PSJzYW5zLXNlcmlmIiBmb250LXNpemU9IjE0IiBsZW5ndGhBZGp1c3Q9InNwYWNpbmciIHRleHRMZW5ndGg9IjE1NCIgeD0iMjI3OC41IiB5PSIxMDg1LjE1NjMiPitwYXltZW50TWV0aG9kOiBzdHJpbmc8L3RleHQ+PHRleHQgZmlsbD0iIzAwMDAwMCIgZm9udC1mYW1pbHk9InNhbnMtc2VyaWYiIGZvbnQtc2l6ZT0iMTQiIGxlbmd0aEFkanVzdD0ic3BhY2luZyIgdGV4dExlbmd0aD0iMTY4IiB4PSIyMjc4LjUiIHk9IjExMDAuMTQwNiI+K3RyYW5zYWN0aW9uQ29kZTogc3RyaW5nPC90ZXh0Pjx0ZXh0IGZpbGw9IiMwMDAwMDAiIGZvbnQtZmFtaWx5PSJzYW5zLXNlcmlmIiBmb250LXNpemU9IjE0IiBsZW5ndGhBZGp1c3Q9InNwYWNpbmciIHRleHRMZW5ndGg9IjExMiIgeD0iMjI3OC41IiB5PSIxMTE1LjEyNSI+K2NyZWF0ZWRBdDogRGF0ZTwvdGV4dD48dGV4dCBmaWxsPSIjMDAwMDAwIiBmb250LWZhbWlseT0ic2Fucy1zZXJpZiIgZm9udC1zaXplPSIxNCIgbGVuZ3RoQWRqdXN0PSJzcGFjaW5nIiB0ZXh0TGVuZ3RoPSIxMjYiIHg9IjIyNzguNSIgeT0iMTEzMC4xMDk0Ij4rY29tcGxldGVkQXQ6IERhdGU8L3RleHQ+PGxpbmUgc3R5bGU9InN0cm9rZTojMTgxODE4O3N0cm9rZS13aWR0aDoxOyIgeDE9IjIyNzMuNSIgeDI9IjI1MDAuNSIgeTE9IjExMzUuODU5NCIgeTI9IjExMzUuODU5NCIvPjx0ZXh0IGZpbGw9IiMwMDAwMDAiIGZvbnQtZmFtaWx5PSJzYW5zLXNlcmlmIiBmb250LXNpemU9IjE0IiBsZW5ndGhBZGp1c3Q9InNwYWNpbmciIHRleHRMZW5ndGg9IjIxNyIgeD0iMjI3OC41IiB5PSIxMTUzLjA5MzgiPittYXJrQXNTdWNjZXNzKHRyYW5zQ29kZSk6IHZvaWQ8L3RleHQ+PHRleHQgZmlsbD0iIzAwMDAwMCIgZm9udC1mYW1pbHk9InNhbnMtc2VyaWYiIGZvbnQtc2l6ZT0iMTQiIGxlbmd0aEFkanVzdD0ic3BhY2luZyIgdGV4dExlbmd0aD0iMTQ3IiB4PSIyMjc4LjUiIHk9IjExNjguMDc4MSI+K21hcmtBc0ZhaWxlZCgpOiB2b2lkPC90ZXh0Pjx0ZXh0IGZpbGw9IiMwMDAwMDAiIGZvbnQtZmFtaWx5PSJzYW5zLXNlcmlmIiBmb250LXNpemU9IjE0IiBsZW5ndGhBZGp1c3Q9InNwYWNpbmciIHRleHRMZW5ndGg9IjE3NSIgeD0iMjI3OC41IiB5PSIxMTgzLjA2MjUiPitpbml0aWF0ZVJlZnVuZCgpOiBSZWZ1bmQ8L3RleHQ+PC9nPjwhLS1jbGFzcyBSZXZpZXctLT48ZyBjbGFzcz0iZW50aXR5IiBkYXRhLWVudGl0eT0iUmV2aWV3IiBkYXRhLXNvdXJjZS1saW5lPSIxODYiIGRhdGEtdWlkPSJlbnQwMDMwIiBpZD0iZW50aXR5X1JldmlldyI+PHJlY3QgZmlsbD0iI0YxRjFGMSIgaGVpZ2h0PSIxMDcuOTM3NSIgcng9IjIuNSIgcnk9IjIuNSIgc3R5bGU9InN0cm9rZTojMTgxODE4O3N0cm9rZS13aWR0aDowLjU7IiB3aWR0aD0iMTI0IiB4PSIxNzE3IiB5PSI3MDYuOTg0NCIvPjxlbGxpcHNlIGN4PSIxNzU0LjUiIGN5PSI3MjIuOTg0NCIgZmlsbD0iI0FERDFCMiIgcng9IjExIiByeT0iMTEiIHN0eWxlPSJzdHJva2U6IzE4MTgxODtzdHJva2Utd2lkdGg6MTsiLz48cGF0aCBkPSJNMTc1Mi4xMjUsNzI3LjIzNDQgTDE3NTIuMTI1LDcyOC45ODQ0IEwxNzU3LjA2MjUsNzI4Ljk4NDQgTDE3NTcuMDYyNSw3MjcuMjM0NCBMMTc1Mi4xMjUsNzI3LjIzNDQgWiBNMTc1Mi44MTI1LDcyNy45MjE5IFExNzUyLjgxMjUsNzI3LjkyMTkgMTc1Mi44MTI1LDcxOC43MzQ0IEwxNzUxLjA2MjUsNzE4LjczNDQgUTE3NTEuMDYyNSw3MTguNzM0NCAxNzUxLjA2MjUsNzI3LjkyMTkgTDE3NTIuODEyNSw3MjcuOTIxOSBaIE0xNzU2LjM3NSw3MjcuOTIxOSBMMTc1OC4xMjUsNzI3LjkyMTkgUTE3NTguMTI1LDcyNy45MjE5IDE3NTguMTI1LDcyNS4xMDk0IEwxNzU2LjM3NSw3MjUuMTA5NCBRMTc1Ni4zNzUsNzI1LjEwOTQgMTc1Ni4zNzUsNzI3LjkyMTkgWiBNMTc1Ni4zNzUsNzE4LjczNDQgUTE3NTYuMzc1LDcxOC43MzQ0IDE3NTYuMzc1LDcyMS41NDY5IEwxNzU4LjEyNSw3MjEuNTQ2OSBRMTc1OC4xMjUsNzIxLjU0NjkgMTc1OC4xMjUsNzE4LjczNDQgTDE3NTYuMzc1LDcxOC43MzQ0IFogTTE3NTIuMTI1LDcxOS40MjE5IEwxNzU3LjA2MjUsNzE5LjQyMTkgTDE3NTcuMDYyNSw3MTcuNjcxOSBMMTc1Mi4xMjUsNzE3LjY3MTkgTDE3NTIuMTI1LDcxOS40MjE5IFogIiBmaWxsPSIjMDAwMDAwIi8+PHRleHQgZmlsbD0iIzAwMDAwMCIgZm9udC1mYW1pbHk9InNhbnMtc2VyaWYiIGZvbnQtc2l6ZT0iMTQiIGxlbmd0aEFkanVzdD0ic3BhY2luZyIgdGV4dExlbmd0aD0iNDIiIHg9IjE3NzMuNSIgeT0iNzI4LjcyNjYiPlJldmlldzwvdGV4dD48bGluZSBzdHlsZT0ic3Ryb2tlOiMxODE4MTg7c3Ryb2tlLXdpZHRoOjAuNTsiIHgxPSIxNzE4IiB4Mj0iMTg0MCIgeTE9IjczOC45ODQ0IiB5Mj0iNzM4Ljk4NDQiLz48dGV4dCBmaWxsPSIjMDAwMDAwIiBmb250LWZhbWlseT0ic2Fucy1zZXJpZiIgZm9udC1zaXplPSIxNCIgbGVuZ3RoQWRqdXN0PSJzcGFjaW5nIiB0ZXh0TGVuZ3RoPSI3NyIgeD0iMTcyMyIgeT0iNzU2LjIxODgiPitpZDogc3RyaW5nPC90ZXh0Pjx0ZXh0IGZpbGw9IiMwMDAwMDAiIGZvbnQtZmFtaWx5PSJzYW5zLXNlcmlmIiBmb250LXNpemU9IjE0IiBsZW5ndGhBZGp1c3Q9InNwYWNpbmciIHRleHRMZW5ndGg9Ijg0IiB4PSIxNzIzIiB5PSI3NzEuMjAzMSI+K3JhdGluZzogaW50PC90ZXh0Pjx0ZXh0IGZpbGw9IiMwMDAwMDAiIGZvbnQtZmFtaWx5PSJzYW5zLXNlcmlmIiBmb250LXNpemU9IjE0IiBsZW5ndGhBZGp1c3Q9InNwYWNpbmciIHRleHRMZW5ndGg9IjExMiIgeD0iMTcyMyIgeT0iNzg2LjE4NzUiPitjb21tZW50OiBzdHJpbmc8L3RleHQ+PHRleHQgZmlsbD0iIzAwMDAwMCIgZm9udC1mYW1pbHk9InNhbnMtc2VyaWYiIGZvbnQtc2l6ZT0iMTQiIGxlbmd0aEFkanVzdD0ic3BhY2luZyIgdGV4dExlbmd0aD0iMTEyIiB4PSIxNzIzIiB5PSI4MDEuMTcxOSI+K2NyZWF0ZWRBdDogRGF0ZTwvdGV4dD48bGluZSBzdHlsZT0ic3Ryb2tlOiMxODE4MTg7c3Ryb2tlLXdpZHRoOjAuNTsiIHgxPSIxNzE4IiB4Mj0iMTg0MCIgeTE9IjgwNi45MjE5IiB5Mj0iODA2LjkyMTkiLz48L2c+PCEtLWNsYXNzIE5vdGlmaWNhdGlvbi0tPjxnIGNsYXNzPSJlbnRpdHkiIGRhdGEtZW50aXR5PSJOb3RpZmljYXRpb24iIGRhdGEtc291cmNlLWxpbmU9IjE5MyIgZGF0YS11aWQ9ImVudDAwMzIiIGlkPSJlbnRpdHlfTm90aWZpY2F0aW9uIj48cmVjdCBmaWxsPSIjRjFGMUYxIiBoZWlnaHQ9IjEzNy45MDYzIiByeD0iMi41IiByeT0iMi41IiBzdHlsZT0ic3Ryb2tlOiMxODE4MTg7c3Ryb2tlLXdpZHRoOjAuNTsiIHdpZHRoPSIxNDUiIHg9IjExNjcuNSIgeT0iNjkxLjk4NDQiLz48ZWxsaXBzZSBjeD0iMTE5NS41NSIgY3k9IjcwNy45ODQ0IiBmaWxsPSIjQUREMUIyIiByeD0iMTEiIHJ5PSIxMSIgc3R5bGU9InN0cm9rZTojMTgxODE4O3N0cm9rZS13aWR0aDoxOyIvPjxwYXRoIGQ9Ik0xMTkzLjE3NSw3MTIuMjM0NCBMMTE5My4xNzUsNzEzLjk4NDQgTDExOTguMTEyNSw3MTMuOTg0NCBMMTE5OC4xMTI1LDcxMi4yMzQ0IEwxMTkzLjE3NSw3MTIuMjM0NCBaIE0xMTkzLjg2MjUsNzEyLjkyMTkgUTExOTMuODYyNSw3MTIuOTIxOSAxMTkzLjg2MjUsNzAzLjczNDQgTDExOTIuMTEyNSw3MDMuNzM0NCBRMTE5Mi4xMTI1LDcwMy43MzQ0IDExOTIuMTEyNSw3MTIuOTIxOSBMMTE5My44NjI1LDcxMi45MjE5IFogTTExOTcuNDI1LDcxMi45MjE5IEwxMTk5LjE3NSw3MTIuOTIxOSBRMTE5OS4xNzUsNzEyLjkyMTkgMTE5OS4xNzUsNzEwLjEwOTQgTDExOTcuNDI1LDcxMC4xMDk0IFExMTk3LjQyNSw3MTAuMTA5NCAxMTk3LjQyNSw3MTIuOTIxOSBaIE0xMTk3LjQyNSw3MDMuNzM0NCBRMTE5Ny40MjUsNzAzLjczNDQgMTE5Ny40MjUsNzA2LjU0NjkgTDExOTkuMTc1LDcwNi41NDY5IFExMTk5LjE3NSw3MDYuNTQ2OSAxMTk5LjE3NSw3MDMuNzM0NCBMMTE5Ny40MjUsNzAzLjczNDQgWiBNMTE5My4xNzUsNzA0LjQyMTkgTDExOTguMTEyNSw3MDQuNDIxOSBMMTE5OC4xMTI1LDcwMi42NzE5IEwxMTkzLjE3NSw3MDIuNjcxOSBMMTE5My4xNzUsNzA0LjQyMTkgWiAiIGZpbGw9IiMwMDAwMDAiLz48dGV4dCBmaWxsPSIjMDAwMDAwIiBmb250LWZhbWlseT0ic2Fucy1zZXJpZiIgZm9udC1zaXplPSIxNCIgbGVuZ3RoQWRqdXN0PSJzcGFjaW5nIiB0ZXh0TGVuZ3RoPSI4NCIgeD0iMTIxMi40NSIgeT0iNzEzLjcyNjYiPk5vdGlmaWNhdGlvbjwvdGV4dD48bGluZSBzdHlsZT0ic3Ryb2tlOiMxODE4MTg7c3Ryb2tlLXdpZHRoOjAuNTsiIHgxPSIxMTY4LjUiIHgyPSIxMzExLjUiIHkxPSI3MjMuOTg0NCIgeTI9IjcyMy45ODQ0Ii8+PHRleHQgZmlsbD0iIzAwMDAwMCIgZm9udC1mYW1pbHk9InNhbnMtc2VyaWYiIGZvbnQtc2l6ZT0iMTQiIGxlbmd0aEFkanVzdD0ic3BhY2luZyIgdGV4dExlbmd0aD0iNzciIHg9IjExNzMuNSIgeT0iNzQxLjIxODgiPitpZDogc3RyaW5nPC90ZXh0Pjx0ZXh0IGZpbGw9IiMwMDAwMDAiIGZvbnQtZmFtaWx5PSJzYW5zLXNlcmlmIiBmb250LXNpemU9IjE0IiBsZW5ndGhBZGp1c3Q9InNwYWNpbmciIHRleHRMZW5ndGg9Ijk4IiB4PSIxMTczLjUiIHk9Ijc1Ni4yMDMxIj4rdGl0bGU6IHN0cmluZzwvdGV4dD48dGV4dCBmaWxsPSIjMDAwMDAwIiBmb250LWZhbWlseT0ic2Fucy1zZXJpZiIgZm9udC1zaXplPSIxNCIgbGVuZ3RoQWRqdXN0PSJzcGFjaW5nIiB0ZXh0TGVuZ3RoPSIxMTIiIHg9IjExNzMuNSIgeT0iNzcxLjE4NzUiPitjb250ZW50OiBzdHJpbmc8L3RleHQ+PHRleHQgZmlsbD0iIzAwMDAwMCIgZm9udC1mYW1pbHk9InNhbnMtc2VyaWYiIGZvbnQtc2l6ZT0iMTQiIGxlbmd0aEFkanVzdD0ic3BhY2luZyIgdGV4dExlbmd0aD0iMTEyIiB4PSIxMTczLjUiIHk9Ijc4Ni4xNzE5Ij4raXNSZWFkOiBib29sZWFuPC90ZXh0Pjx0ZXh0IGZpbGw9IiMwMDAwMDAiIGZvbnQtZmFtaWx5PSJzYW5zLXNlcmlmIiBmb250LXNpemU9IjE0IiBsZW5ndGhBZGp1c3Q9InNwYWNpbmciIHRleHRMZW5ndGg9IjExMiIgeD0iMTE3My41IiB5PSI4MDEuMTU2MyI+K2NyZWF0ZWRBdDogRGF0ZTwvdGV4dD48bGluZSBzdHlsZT0ic3Ryb2tlOiMxODE4MTg7c3Ryb2tlLXdpZHRoOjE7IiB4MT0iMTE2OC41IiB4Mj0iMTMxMS41IiB5MT0iODA2LjkwNjMiIHkyPSI4MDYuOTA2MyIvPjx0ZXh0IGZpbGw9IiMwMDAwMDAiIGZvbnQtZmFtaWx5PSJzYW5zLXNlcmlmIiBmb250LXNpemU9IjE0IiBsZW5ndGhBZGp1c3Q9InNwYWNpbmciIHRleHRMZW5ndGg9IjEzMyIgeD0iMTE3My41IiB5PSI4MjQuMTQwNiI+K21hcmtBc1JlYWQoKTogdm9pZDwvdGV4dD48L2c+PCEtLWNsYXNzIEZlZWRiYWNrLS0+PGcgY2xhc3M9ImVudGl0eSIgZGF0YS1lbnRpdHk9IkZlZWRiYWNrIiBkYXRhLXNvdXJjZS1saW5lPSIyMDMiIGRhdGEtdWlkPSJlbnQwMDMzIiBpZD0iZW50aXR5X0ZlZWRiYWNrIj48cmVjdCBmaWxsPSIjRjFGMUYxIiBoZWlnaHQ9IjIxMi44MjgxIiByeD0iMi41IiByeT0iMi41IiBzdHlsZT0ic3Ryb2tlOiMxODE4MTg7c3Ryb2tlLXdpZHRoOjAuNTsiIHdpZHRoPSIzMzQiIHg9IjEzNDgiIHk9IjY1NC40ODQ0Ii8+PGVsbGlwc2UgY3g9IjE0ODIuNzUiIGN5PSI2NzAuNDg0NCIgZmlsbD0iI0FERDFCMiIgcng9IjExIiByeT0iMTEiIHN0eWxlPSJzdHJva2U6IzE4MTgxODtzdHJva2Utd2lkdGg6MTsiLz48cGF0aCBkPSJNMTQ4MC4zNzUsNjc0LjczNDQgTDE0ODAuMzc1LDY3Ni40ODQ0IEwxNDg1LjMxMjUsNjc2LjQ4NDQgTDE0ODUuMzEyNSw2NzQuNzM0NCBMMTQ4MC4zNzUsNjc0LjczNDQgWiBNMTQ4MS4wNjI1LDY3NS40MjE5IFExNDgxLjA2MjUsNjc1LjQyMTkgMTQ4MS4wNjI1LDY2Ni4yMzQ0IEwxNDc5LjMxMjUsNjY2LjIzNDQgUTE0NzkuMzEyNSw2NjYuMjM0NCAxNDc5LjMxMjUsNjc1LjQyMTkgTDE0ODEuMDYyNSw2NzUuNDIxOSBaIE0xNDg0LjYyNSw2NzUuNDIxOSBMMTQ4Ni4zNzUsNjc1LjQyMTkgUTE0ODYuMzc1LDY3NS40MjE5IDE0ODYuMzc1LDY3Mi42MDk0IEwxNDg0LjYyNSw2NzIuNjA5NCBRMTQ4NC42MjUsNjcyLjYwOTQgMTQ4NC42MjUsNjc1LjQyMTkgWiBNMTQ4NC42MjUsNjY2LjIzNDQgUTE0ODQuNjI1LDY2Ni4yMzQ0IDE0ODQuNjI1LDY2OS4wNDY5IEwxNDg2LjM3NSw2NjkuMDQ2OSBRMTQ4Ni4zNzUsNjY5LjA0NjkgMTQ4Ni4zNzUsNjY2LjIzNDQgTDE0ODQuNjI1LDY2Ni4yMzQ0IFogTTE0ODAuMzc1LDY2Ni45MjE5IEwxNDg1LjMxMjUsNjY2LjkyMTkgTDE0ODUuMzEyNSw2NjUuMTcxOSBMMTQ4MC4zNzUsNjY1LjE3MTkgTDE0ODAuMzc1LDY2Ni45MjE5IFogIiBmaWxsPSIjMDAwMDAwIi8+PHRleHQgZmlsbD0iIzAwMDAwMCIgZm9udC1mYW1pbHk9InNhbnMtc2VyaWYiIGZvbnQtc2l6ZT0iMTQiIGxlbmd0aEFkanVzdD0ic3BhY2luZyIgdGV4dExlbmd0aD0iNTYiIHg9IjE1MDMuMjUiIHk9IjY3Ni4yMjY2Ij5GZWVkYmFjazwvdGV4dD48bGluZSBzdHlsZT0ic3Ryb2tlOiMxODE4MTg7c3Ryb2tlLXdpZHRoOjAuNTsiIHgxPSIxMzQ5IiB4Mj0iMTY4MSIgeTE9IjY4Ni40ODQ0IiB5Mj0iNjg2LjQ4NDQiLz48dGV4dCBmaWxsPSIjMDAwMDAwIiBmb250LWZhbWlseT0ic2Fucy1zZXJpZiIgZm9udC1zaXplPSIxNCIgbGVuZ3RoQWRqdXN0PSJzcGFjaW5nIiB0ZXh0TGVuZ3RoPSI3NyIgeD0iMTM1NCIgeT0iNzAzLjcxODgiPitpZDogc3RyaW5nPC90ZXh0Pjx0ZXh0IGZpbGw9IiMwMDAwMDAiIGZvbnQtZmFtaWx5PSJzYW5zLXNlcmlmIiBmb250LXNpemU9IjE0IiBsZW5ndGhBZGp1c3Q9InNwYWNpbmciIHRleHRMZW5ndGg9Ijk4IiB4PSIxMzU0IiB5PSI3MTguNzAzMSI+K3RpdGxlOiBzdHJpbmc8L3RleHQ+PHRleHQgZmlsbD0iIzAwMDAwMCIgZm9udC1mYW1pbHk9InNhbnMtc2VyaWYiIGZvbnQtc2l6ZT0iMTQiIGxlbmd0aEFkanVzdD0ic3BhY2luZyIgdGV4dExlbmd0aD0iMTEyIiB4PSIxMzU0IiB5PSI3MzMuNjg3NSI+K2NvbnRlbnQ6IHN0cmluZzwvdGV4dD48dGV4dCBmaWxsPSIjMDAwMDAwIiBmb250LWZhbWlseT0ic2Fucy1zZXJpZiIgZm9udC1zaXplPSIxNCIgbGVuZ3RoQWRqdXN0PSJzcGFjaW5nIiB0ZXh0TGVuZ3RoPSIxODkiIHg9IjEzNTQiIHk9Ijc0OC42NzE5Ij4rY2F0ZWdvcnk6IEZlZWRiYWNrQ2F0ZWdvcnk8L3RleHQ+PHRleHQgZmlsbD0iIzAwMDAwMCIgZm9udC1mYW1pbHk9InNhbnMtc2VyaWYiIGZvbnQtc2l6ZT0iMTQiIGxlbmd0aEFkanVzdD0ic3BhY2luZyIgdGV4dExlbmd0aD0iMTYxIiB4PSIxMzU0IiB5PSI3NjMuNjU2MyI+K3N0YXR1czogRmVlZGJhY2tTdGF0dXM8L3RleHQ+PHRleHQgZmlsbD0iIzAwMDAwMCIgZm9udC1mYW1pbHk9InNhbnMtc2VyaWYiIGZvbnQtc2l6ZT0iMTQiIGxlbmd0aEFkanVzdD0ic3BhY2luZyIgdGV4dExlbmd0aD0iMTEyIiB4PSIxMzU0IiB5PSI3NzguNjQwNiI+K2NyZWF0ZWRBdDogRGF0ZTwvdGV4dD48dGV4dCBmaWxsPSIjMDAwMDAwIiBmb250LWZhbWlseT0ic2Fucy1zZXJpZiIgZm9udC1zaXplPSIxNCIgbGVuZ3RoQWRqdXN0PSJzcGFjaW5nIiB0ZXh0TGVuZ3RoPSIxMTkiIHg9IjEzNTQiIHk9Ijc5My42MjUiPityZXNvbHZlZEF0OiBEYXRlPC90ZXh0PjxsaW5lIHN0eWxlPSJzdHJva2U6IzE4MTgxODtzdHJva2Utd2lkdGg6MTsiIHgxPSIxMzQ5IiB4Mj0iMTY4MSIgeTE9Ijc5OS4zNzUiIHkyPSI3OTkuMzc1Ii8+PHRleHQgZmlsbD0iIzAwMDAwMCIgZm9udC1mYW1pbHk9InNhbnMtc2VyaWYiIGZvbnQtc2l6ZT0iMTQiIGxlbmd0aEFkanVzdD0ic3BhY2luZyIgdGV4dExlbmd0aD0iMzIyIiB4PSIxMzU0IiB5PSI4MTYuNjA5NCI+K2FkZFJlc3BvbnNlKHJlc3BvbnNlOiBGZWVkYmFja1Jlc3BvbnNlKTogdm9pZDwvdGV4dD48dGV4dCBmaWxsPSIjMDAwMDAwIiBmb250LWZhbWlseT0ic2Fucy1zZXJpZiIgZm9udC1zaXplPSIxNCIgbGVuZ3RoQWRqdXN0PSJzcGFjaW5nIiB0ZXh0TGVuZ3RoPSIyNDUiIHg9IjEzNTQiIHk9IjgzMS41OTM4Ij4rYXNzaWduVG8oYWRtaW46IFVzZXJQcm9maWxlKTogdm9pZDwvdGV4dD48dGV4dCBmaWxsPSIjMDAwMDAwIiBmb250LWZhbWlseT0ic2Fucy1zZXJpZiIgZm9udC1zaXplPSIxNCIgbGVuZ3RoQWRqdXN0PSJzcGFjaW5nIiB0ZXh0TGVuZ3RoPSIxMTIiIHg9IjEzNTQiIHk9Ijg0Ni41NzgxIj4rcmVzb2x2ZSgpOiB2b2lkPC90ZXh0Pjx0ZXh0IGZpbGw9IiMwMDAwMDAiIGZvbnQtZmFtaWx5PSJzYW5zLXNlcmlmIiBmb250LXNpemU9IjE0IiBsZW5ndGhBZGp1c3Q9InNwYWNpbmciIHRleHRMZW5ndGg9Ijk4IiB4PSIxMzU0IiB5PSI4NjEuNTYyNSI+K2Nsb3NlKCk6IHZvaWQ8L3RleHQ+PC9nPjwhLS1jbGFzcyBGZWVkYmFja1Jlc3BvbnNlLS0+PGcgY2xhc3M9ImVudGl0eSIgZGF0YS1lbnRpdHk9IkZlZWRiYWNrUmVzcG9uc2UiIGRhdGEtc291cmNlLWxpbmU9IjIxOCIgZGF0YS11aWQ9ImVudDAwMzQiIGlkPSJlbnRpdHlfRmVlZGJhY2tSZXNwb25zZSI+PHJlY3QgZmlsbD0iI0YxRjFGMSIgaGVpZ2h0PSI5Mi45NTMxIiByeD0iMi41IiByeT0iMi41IiBzdHlsZT0ic3Ryb2tlOiMxODE4MTg7c3Ryb2tlLXdpZHRoOjAuNTsiIHdpZHRoPSIxNDQiIHg9IjEzMDUiIHk9IjEwMzUuOTg0NCIvPjxlbGxpcHNlIGN4PSIxMzIwIiBjeT0iMTA1MS45ODQ0IiBmaWxsPSIjQUREMUIyIiByeD0iMTEiIHJ5PSIxMSIgc3R5bGU9InN0cm9rZTojMTgxODE4O3N0cm9rZS13aWR0aDoxOyIvPjxwYXRoIGQ9Ik0xMzE3LjYyNSwxMDU2LjIzNDQgTDEzMTcuNjI1LDEwNTcuOTg0NCBMMTMyMi41NjI1LDEwNTcuOTg0NCBMMTMyMi41NjI1LDEwNTYuMjM0NCBMMTMxNy42MjUsMTA1Ni4yMzQ0IFogTTEzMTguMzEyNSwxMDU2LjkyMTkgUTEzMTguMzEyNSwxMDU2LjkyMTkgMTMxOC4zMTI1LDEwNDcuNzM0NCBMMTMxNi41NjI1LDEwNDcuNzM0NCBRMTMxNi41NjI1LDEwNDcuNzM0NCAxMzE2LjU2MjUsMTA1Ni45MjE5IEwxMzE4LjMxMjUsMTA1Ni45MjE5IFogTTEzMjEuODc1LDEwNTYuOTIxOSBMMTMyMy42MjUsMTA1Ni45MjE5IFExMzIzLjYyNSwxMDU2LjkyMTkgMTMyMy42MjUsMTA1NC4xMDk0IEwxMzIxLjg3NSwxMDU0LjEwOTQgUTEzMjEuODc1LDEwNTQuMTA5NCAxMzIxLjg3NSwxMDU2LjkyMTkgWiBNMTMyMS44NzUsMTA0Ny43MzQ0IFExMzIxLjg3NSwxMDQ3LjczNDQgMTMyMS44NzUsMTA1MC41NDY5IEwxMzIzLjYyNSwxMDUwLjU0NjkgUTEzMjMuNjI1LDEwNTAuNTQ2OSAxMzIzLjYyNSwxMDQ3LjczNDQgTDEzMjEuODc1LDEwNDcuNzM0NCBaIE0xMzE3LjYyNSwxMDQ4LjQyMTkgTDEzMjIuNTYyNSwxMDQ4LjQyMTkgTDEzMjIuNTYyNSwxMDQ2LjY3MTkgTDEzMTcuNjI1LDEwNDYuNjcxOSBMMTMxNy42MjUsMTA0OC40MjE5IFogIiBmaWxsPSIjMDAwMDAwIi8+PHRleHQgZmlsbD0iIzAwMDAwMCIgZm9udC1mYW1pbHk9InNhbnMtc2VyaWYiIGZvbnQtc2l6ZT0iMTQiIGxlbmd0aEFkanVzdD0ic3BhY2luZyIgdGV4dExlbmd0aD0iMTEyIiB4PSIxMzM0IiB5PSIxMDU3LjcyNjYiPkZlZWRiYWNrUmVzcG9uc2U8L3RleHQ+PGxpbmUgc3R5bGU9InN0cm9rZTojMTgxODE4O3N0cm9rZS13aWR0aDowLjU7IiB4MT0iMTMwNiIgeDI9IjE0NDgiIHkxPSIxMDY3Ljk4NDQiIHkyPSIxMDY3Ljk4NDQiLz48dGV4dCBmaWxsPSIjMDAwMDAwIiBmb250LWZhbWlseT0ic2Fucy1zZXJpZiIgZm9udC1zaXplPSIxNCIgbGVuZ3RoQWRqdXN0PSJzcGFjaW5nIiB0ZXh0TGVuZ3RoPSI3NyIgeD0iMTMxMSIgeT0iMTA4NS4yMTg4Ij4raWQ6IHN0cmluZzwvdGV4dD48dGV4dCBmaWxsPSIjMDAwMDAwIiBmb250LWZhbWlseT0ic2Fucy1zZXJpZiIgZm9udC1zaXplPSIxNCIgbGVuZ3RoQWRqdXN0PSJzcGFjaW5nIiB0ZXh0TGVuZ3RoPSIxMTIiIHg9IjEzMTEiIHk9IjExMDAuMjAzMSI+K2NvbnRlbnQ6IHN0cmluZzwvdGV4dD48dGV4dCBmaWxsPSIjMDAwMDAwIiBmb250LWZhbWlseT0ic2Fucy1zZXJpZiIgZm9udC1zaXplPSIxNCIgbGVuZ3RoQWRqdXN0PSJzcGFjaW5nIiB0ZXh0TGVuZ3RoPSIxMTIiIHg9IjEzMTEiIHk9IjExMTUuMTg3NSI+K2NyZWF0ZWRBdDogRGF0ZTwvdGV4dD48bGluZSBzdHlsZT0ic3Ryb2tlOiMxODE4MTg7c3Ryb2tlLXdpZHRoOjAuNTsiIHgxPSIxMzA2IiB4Mj0iMTQ0OCIgeTE9IjExMjAuOTM3NSIgeTI9IjExMjAuOTM3NSIvPjwvZz48IS0tcmV2ZXJzZSBsaW5rIFVzZXJQcm9maWxlIHRvIEFjY291bnQtLT48ZyBjbGFzcz0ibGluayIgZGF0YS1lbnRpdHktMT0iVXNlclByb2ZpbGUiIGRhdGEtZW50aXR5LTI9IkFjY291bnQiIGRhdGEtc291cmNlLWxpbmU9IjIyOSIgZGF0YS11aWQ9ImxuazM1IiBpZD0ibGlua19Vc2VyUHJvZmlsZV9BY2NvdW50Ij48cGF0aCBjb2RlTGluZT0iMjI5IiBkPSJNOTU1LjEzMjUsNTAxLjQ2NDkgQzk0OS4wMTI1LDU0Ni40NTQ5IDk0Mi40Nyw1OTQuNjA0NCA5MzUuNCw2NDYuNjg0NCIgZmlsbD0ibm9uZSIgaWQ9IlVzZXJQcm9maWxlLWJhY2t0by1BY2NvdW50IiBzdHlsZT0ic3Ryb2tlOiMxODE4MTg7c3Ryb2tlLXdpZHRoOjE7Ii8+PHBvbHlnb24gZmlsbD0iIzE4MTgxOCIgcG9pbnRzPSI5NTYuNzUsNDg5LjU3NDQsOTUxLjk3NzgsNDk0Ljk4MDUsOTU1LjEzMjUsNTAxLjQ2NDksOTU5LjkwNDgsNDk2LjA1ODgsOTU2Ljc1LDQ4OS41NzQ0IiBzdHlsZT0ic3Ryb2tlOiMxODE4MTg7c3Ryb2tlLXdpZHRoOjE7Ii8+PHRleHQgZmlsbD0iIzAwMDAwMCIgZm9udC1mYW1pbHk9InNhbnMtc2VyaWYiIGZvbnQtc2l6ZT0iMTMiIGxlbmd0aEFkanVzdD0ic3BhY2luZyIgdGV4dExlbmd0aD0iMTkuNSIgeD0iOTQ5IiB5PSI1NjIuNzczNCI+aGFzPC90ZXh0Pjx0ZXh0IGZpbGw9IiMwMDAwMDAiIGZvbnQtZmFtaWx5PSJzYW5zLXNlcmlmIiBmb250LXNpemU9IjEzIiBsZW5ndGhBZGp1c3Q9InNwYWNpbmciIHRleHRMZW5ndGg9IjYuNSIgeD0iOTQ5LjUxMjUiIHk9IjUwOS43MTA2Ij4xPC90ZXh0Pjx0ZXh0IGZpbGw9IiMwMDAwMDAiIGZvbnQtZmFtaWx5PSJzYW5zLXNlcmlmIiBmb250LXNpemU9IjEzIiBsZW5ndGhBZGp1c3Q9InNwYWNpbmciIHRleHRMZW5ndGg9IjI2IiB4PSI5MDkuNTY4OCIgeT0iNjM3LjUxODQiPjEuLio8L3RleHQ+PC9nPjwhLS1saW5rIFJvbGUgdG8gQWNjb3VudC0tPjxnIGNsYXNzPSJsaW5rIiBkYXRhLWVudGl0eS0xPSJSb2xlIiBkYXRhLWVudGl0eS0yPSJBY2NvdW50IiBkYXRhLXNvdXJjZS1saW5lPSIyMzAiIGRhdGEtdWlkPSJsbmszNiIgaWQ9ImxpbmtfUm9sZV9BY2NvdW50Ij48cGF0aCBjb2RlTGluZT0iMjMwIiBkPSJNNzI2LjU4LDQ1OS42NTQ0IEM3NTUuNjUsNTA0Ljc4NDQgODA1LjM0LDU4MS45NDQ0IDg0Ny4wOCw2NDYuNzU0NCIgZmlsbD0ibm9uZSIgaWQ9IlJvbGUtQWNjb3VudCIgc3R5bGU9InN0cm9rZTojMTgxODE4O3N0cm9rZS13aWR0aDoxOyIvPjx0ZXh0IGZpbGw9IiMwMDAwMDAiIGZvbnQtZmFtaWx5PSJzYW5zLXNlcmlmIiBmb250LXNpemU9IjEzIiBsZW5ndGhBZGp1c3Q9InNwYWNpbmciIHRleHRMZW5ndGg9IjQ1LjUiIHg9Ijc5MyIgeT0iNTYyLjc3MzQiPmRlZmluZXM8L3RleHQ+PHRleHQgZmlsbD0iIzAwMDAwMCIgZm9udC1mYW1pbHk9InNhbnMtc2VyaWYiIGZvbnQtc2l6ZT0iMTMiIGxlbmd0aEFkanVzdD0ic3BhY2luZyIgdGV4dExlbmd0aD0iNi41IiB4PSI3MjQuMzMyIiB5PSI0NzkuODc0MiI+MTwvdGV4dD48dGV4dCBmaWxsPSIjMDAwMDAwIiBmb250LWZhbWlseT0ic2Fucy1zZXJpZiIgZm9udC1zaXplPSIxMyIgbGVuZ3RoQWRqdXN0PSJzcGFjaW5nIiB0ZXh0TGVuZ3RoPSIyNiIgeD0iODE0Ljc3MDMiIHk9IjYzNy4yMTc4Ij4wLi4qPC90ZXh0PjwvZz48IS0tcmV2ZXJzZSBsaW5rIEZpZWxkIHRvIEFkZHJlc3MtLT48ZyBjbGFzcz0ibGluayIgZGF0YS1lbnRpdHktMT0iRmllbGQiIGRhdGEtZW50aXR5LTI9IkFkZHJlc3MiIGRhdGEtc291cmNlLWxpbmU9IjIzMyIgZGF0YS11aWQ9ImxuazM3IiBpZD0ibGlua19GaWVsZF9BZGRyZXNzIj48cGF0aCBjb2RlTGluZT0iMjMzIiBkPSJNMjg3OS41NjA1LDUyOC4zMzQzIEMyODk2LjQ4MDUsNTQ1LjExNDMgMjkwNC41NCw1NTQuNTE0NCAyOTE5LDU3Mi40ODQ0IEMyOTU1LjA0LDYxNy4yODQ0IDI5ODcuNDIsNjc0Ljk4NDQgMzAwNy43Nyw3MTQuNDc0NCIgZmlsbD0ibm9uZSIgaWQ9IkZpZWxkLWJhY2t0by1BZGRyZXNzIiBzdHlsZT0ic3Ryb2tlOiMxODE4MTg7c3Ryb2tlLXdpZHRoOjE7Ii8+PHBvbHlnb24gZmlsbD0iIzE4MTgxOCIgcG9pbnRzPSIyODcxLjA0LDUxOS44ODQ0LDI4NzIuNDgzNiw1MjYuOTQ5NSwyODc5LjU2MDUsNTI4LjMzNDMsMjg3OC4xMTY5LDUyMS4yNjkyLDI4NzEuMDQsNTE5Ljg4NDQiIHN0eWxlPSJzdHJva2U6IzE4MTgxODtzdHJva2Utd2lkdGg6MTsiLz48dGV4dCBmaWxsPSIjMDAwMDAwIiBmb250LWZhbWlseT0ic2Fucy1zZXJpZiIgZm9udC1zaXplPSIxMyIgbGVuZ3RoQWRqdXN0PSJzcGFjaW5nIiB0ZXh0TGVuZ3RoPSI2NSIgeD0iMjkxMiIgeT0iNTYyLjc3MzQiPmxvY2F0ZWQgYXQ8L3RleHQ+PHRleHQgZmlsbD0iIzAwMDAwMCIgZm9udC1mYW1pbHk9InNhbnMtc2VyaWYiIGZvbnQtc2l6ZT0iMTMiIGxlbmd0aEFkanVzdD0ic3BhY2luZyIgdGV4dExlbmd0aD0iNi41IiB4PSIyODcyLjg2NTEiIHk9IjUzOS42NTcyIj4xPC90ZXh0Pjx0ZXh0IGZpbGw9IiMwMDAwMDAiIGZvbnQtZmFtaWx5PSJzYW5zLXNlcmlmIiBmb250LXNpemU9IjEzIiBsZW5ndGhBZGp1c3Q9InNwYWNpbmciIHRleHRMZW5ndGg9IjYuNSIgeD0iMjk5Ny40NzY2IiB5PSI3MDQuNzM0OSI+MTwvdGV4dD48L2c+PCEtLXJldmVyc2UgbGluayBGaWVsZCB0byBGaWVsZEltYWdlLS0+PGcgY2xhc3M9ImxpbmsiIGRhdGEtZW50aXR5LTE9IkZpZWxkIiBkYXRhLWVudGl0eS0yPSJGaWVsZEltYWdlIiBkYXRhLXNvdXJjZS1saW5lPSIyMzQiIGRhdGEtdWlkPSJsbmszOCIgaWQ9ImxpbmtfRmllbGRfRmllbGRJbWFnZSI+PHBhdGggY29kZUxpbmU9IjIzNCIgZD0iTTI3ODIuNjg2Nyw1MzEuNTMwNSBDMjc5Ny42MjY3LDU5NS41NjA1IDI4MTMuNyw2NjQuNDE0NCAyODI1LjI4LDcxNC4wNDQ0IiBmaWxsPSJub25lIiBpZD0iRmllbGQtYmFja3RvLUZpZWxkSW1hZ2UiIHN0eWxlPSJzdHJva2U6IzE4MTgxODtzdHJva2Utd2lkdGg6MTsiLz48cG9seWdvbiBmaWxsPSIjMTgxODE4IiBwb2ludHM9IjI3NzkuOTYsNTE5Ljg0NDQsMjc3Ny40MjgsNTI2LjU5NjMsMjc4Mi42ODY3LDUzMS41MzA1LDI3ODUuMjE4Nyw1MjQuNzc4NSwyNzc5Ljk2LDUxOS44NDQ0IiBzdHlsZT0ic3Ryb2tlOiMxODE4MTg7c3Ryb2tlLXdpZHRoOjE7Ii8+PHRleHQgZmlsbD0iIzAwMDAwMCIgZm9udC1mYW1pbHk9InNhbnMtc2VyaWYiIGZvbnQtc2l6ZT0iMTMiIGxlbmd0aEFkanVzdD0ic3BhY2luZyIgdGV4dExlbmd0aD0iMTkuNSIgeD0iMjc5MCIgeT0iNTYyLjc3MzQiPmhhczwvdGV4dD48dGV4dCBmaWxsPSIjMDAwMDAwIiBmb250LWZhbWlseT0ic2Fucy1zZXJpZiIgZm9udC1zaXplPSIxMyIgbGVuZ3RoQWRqdXN0PSJzcGFjaW5nIiB0ZXh0TGVuZ3RoPSI2LjUiIHg9IjI3NzUuMzgxIiB5PSI1MzkuNjE0MyI+MTwvdGV4dD48dGV4dCBmaWxsPSIjMDAwMDAwIiBmb250LWZhbWlseT0ic2Fucy1zZXJpZiIgZm9udC1zaXplPSIxMyIgbGVuZ3RoQWRqdXN0PSJzcGFjaW5nIiB0ZXh0TGVuZ3RoPSIyNiIgeD0iMjc5NS40OTk2IiB5PSI3MDQuODkzIj4xLi4qPC90ZXh0PjwvZz48IS0tcmV2ZXJzZSBsaW5rIEZpZWxkVHlwZSB0byBGaWVsZC0tPjxnIGNsYXNzPSJsaW5rIiBkYXRhLWVudGl0eS0xPSJGaWVsZFR5cGUiIGRhdGEtZW50aXR5LTI9IkZpZWxkIiBkYXRhLXNvdXJjZS1saW5lPSIyMzUiIGRhdGEtdWlkPSJsbmszOSIgaWQ9ImxpbmtfRmllbGRUeXBlX0ZpZWxkIj48cGF0aCBjb2RlTGluZT0iMjM1IiBkPSJNMjcyOS44ODMyLDIyMS4xNDQxIEMyNzM0LjEzMzIsMjUyLjI3NDEgMjczOC4zMSwyODIuNzg0NCAyNzQzLjU4LDMyMS4zNDQ0IiBmaWxsPSJub25lIiBpZD0iRmllbGRUeXBlLWJhY2t0by1GaWVsZCIgc3R5bGU9InN0cm9rZTojMTgxODE4O3N0cm9rZS13aWR0aDoxOyIvPjxwb2x5Z29uIGZpbGw9Im5vbmUiIHBvaW50cz0iMjcyOC4yNiwyMDkuMjU0NCwyNzI1LjEwODQsMjE1Ljc0MDMsMjcyOS44ODMyLDIyMS4xNDQxLDI3MzMuMDM0OSwyMTQuNjU4MiwyNzI4LjI2LDIwOS4yNTQ0IiBzdHlsZT0ic3Ryb2tlOiMxODE4MTg7c3Ryb2tlLXdpZHRoOjE7Ii8+PHRleHQgZmlsbD0iIzAwMDAwMCIgZm9udC1mYW1pbHk9InNhbnMtc2VyaWYiIGZvbnQtc2l6ZT0iMTMiIGxlbmd0aEFkanVzdD0ic3BhY2luZyIgdGV4dExlbmd0aD0iNzEuNSIgeD0iMjczNiIgeT0iMjU5Ljc3MzQiPmNhdGVnb3JpemVzPC90ZXh0Pjx0ZXh0IGZpbGw9IiMwMDAwMDAiIGZvbnQtZmFtaWx5PSJzYW5zLXNlcmlmIiBmb250LXNpemU9IjEzIiBsZW5ndGhBZGp1c3Q9InNwYWNpbmciIHRleHRMZW5ndGg9IjYuNSIgeD0iMjcyMi43NTM2IiB5PSIyMjkuMTAyMSI+MTwvdGV4dD48dGV4dCBmaWxsPSIjMDAwMDAwIiBmb250LWZhbWlseT0ic2Fucy1zZXJpZiIgZm9udC1zaXplPSIxMyIgbGVuZ3RoQWRqdXN0PSJzcGFjaW5nIiB0ZXh0TGVuZ3RoPSIyNiIgeD0iMjcxNS4zOTIxIiB5PSIzMTEuOTI5NCI+MC4uKjwvdGV4dD48L2c+PCEtLXJldmVyc2UgbGluayBGaWVsZCB0byBVdGlsaXR5LS0+PGcgY2xhc3M9ImxpbmsiIGRhdGEtZW50aXR5LTE9IkZpZWxkIiBkYXRhLWVudGl0eS0yPSJVdGlsaXR5IiBkYXRhLXNvdXJjZS1saW5lPSIyMzciIGRhdGEtdWlkPSJsbms0MCIgaWQ9ImxpbmtfRmllbGRfVXRpbGl0eSI+PHBhdGggY29kZUxpbmU9IjIzNyIgZD0iTTI3MjkuNTE2OSw1MzEuMzA1NCBDMjcyNi45OTY5LDU0MS4zNzU0IDI3MjcuNCw1MzkuODE0NCAyNzI1LDU0OS40ODQ0IEMyNzEwLjg4LDYwNi4yOTQ0IDI2OTQuNzMsNjcxLjc1NDQgMjY4NC4yMiw3MTQuMzk0NCIgZmlsbD0ibm9uZSIgaWQ9IkZpZWxkLWJhY2t0by1VdGlsaXR5IiBzdHlsZT0ic3Ryb2tlOiMxODE4MTg7c3Ryb2tlLXdpZHRoOjE7Ii8+PHBvbHlnb24gZmlsbD0iIzE4MTgxOCIgcG9pbnRzPSIyNzMyLjQzLDUxOS42NjQ0LDI3MjcuMDkzMSw1MjQuNTEzOCwyNzI5LjUxNjksNTMxLjMwNTQsMjczNC44NTM4LDUyNi40NTU5LDI3MzIuNDMsNTE5LjY2NDQiIHN0eWxlPSJzdHJva2U6IzE4MTgxODtzdHJva2Utd2lkdGg6MTsiLz48dGV4dCBmaWxsPSIjMDAwMDAwIiBmb250LWZhbWlseT0ic2Fucy1zZXJpZiIgZm9udC1zaXplPSIxMyIgbGVuZ3RoQWRqdXN0PSJzcGFjaW5nIiB0ZXh0TGVuZ3RoPSI1MiIgeD0iMjcyNiIgeT0iNTYyLjc3MzQiPnByb3ZpZGVzPC90ZXh0Pjx0ZXh0IGZpbGw9IiMwMDAwMDAiIGZvbnQtZmFtaWx5PSJzYW5zLXNlcmlmIiBmb250LXNpemU9IjEzIiBsZW5ndGhBZGp1c3Q9InNwYWNpbmciIHRleHRMZW5ndGg9IjYuNSIgeD0iMjcyNC40MjM3IiB5PSI1MzkuNzUzNiI+MTwvdGV4dD48dGV4dCBmaWxsPSIjMDAwMDAwIiBmb250LWZhbWlseT0ic2Fucy1zZXJpZiIgZm9udC1zaXplPSIxMyIgbGVuZ3RoQWRqdXN0PSJzcGFjaW5nIiB0ZXh0TGVuZ3RoPSIyNiIgeD0iMjY1Ny45MjUyIiB5PSI3MDQuOTciPjAuLio8L3RleHQ+PC9nPjwhLS1yZXZlcnNlIGxpbmsgRmllbGRUeXBlIHRvIFRpbWVTbG90LS0+PGcgY2xhc3M9ImxpbmsiIGRhdGEtZW50aXR5LTE9IkZpZWxkVHlwZSIgZGF0YS1lbnRpdHktMj0iVGltZVNsb3QiIGRhdGEtc291cmNlLWxpbmU9IjI0MCIgZGF0YS11aWQ9ImxuazQxIiBpZD0ibGlua19GaWVsZFR5cGVfVGltZVNsb3QiPjxwYXRoIGNvZGVMaW5lPSIyNDAiIGQ9Ik0yNjM0LjY2MDIsMTk3LjMwODggQzI1MTYuMTkwMiwyNDMuMTk4OCAyMjk4LjY3LDMyNy40MzQ0IDIxNjUuMDYsMzc5LjE4NDQiIGZpbGw9Im5vbmUiIGlkPSJGaWVsZFR5cGUtYmFja3RvLVRpbWVTbG90IiBzdHlsZT0ic3Ryb2tlOiMxODE4MTg7c3Ryb2tlLXdpZHRoOjE7Ii8+PHBvbHlnb24gZmlsbD0ibm9uZSIgcG9pbnRzPSIyNjQ1Ljg1LDE5Mi45NzQ0LDI2MzguODEwMywxOTEuNDExNywyNjM0LjY2MDIsMTk3LjMwODgsMjY0MS42OTk5LDE5OC44NzE1LDI2NDUuODUsMTkyLjk3NDQiIHN0eWxlPSJzdHJva2U6IzE4MTgxODtzdHJva2Utd2lkdGg6MTsiLz48dGV4dCBmaWxsPSIjMDAwMDAwIiBmb250LWZhbWlseT0ic2Fucy1zZXJpZiIgZm9udC1zaXplPSIxMyIgbGVuZ3RoQWRqdXN0PSJzcGFjaW5nIiB0ZXh0TGVuZ3RoPSI5Ny41IiB4PSIyNDkwIiB5PSIyNTkuNzczNCI+aGFzIHByaWNpbmcgZm9yPC90ZXh0Pjx0ZXh0IGZpbGw9IiMwMDAwMDAiIGZvbnQtZmFtaWx5PSJzYW5zLXNlcmlmIiBmb250LXNpemU9IjEzIiBsZW5ndGhBZGp1c3Q9InNwYWNpbmciIHRleHRMZW5ndGg9IjYuNSIgeD0iMjYzMS43MTM0IiB5PSIxOTQuNzg3Ij4xPC90ZXh0Pjx0ZXh0IGZpbGw9IiMwMDAwMDAiIGZvbnQtZmFtaWx5PSJzYW5zLXNlcmlmIiBmb250LXNpemU9IjEzIiBsZW5ndGhBZGp1c3Q9InNwYWNpbmciIHRleHRMZW5ndGg9IjI2IiB4PSIyMTcyLjkyNSIgeT0iMzc1LjI5NTciPjAuLio8L3RleHQ+PC9nPjwhLS1yZXZlcnNlIGxpbmsgVXNlclByb2ZpbGUgdG8gQm9va2luZy0tPjxnIGNsYXNzPSJsaW5rIiBkYXRhLWVudGl0eS0xPSJVc2VyUHJvZmlsZSIgZGF0YS1lbnRpdHktMj0iQm9va2luZyIgZGF0YS1zb3VyY2UtbGluZT0iMjQxIiBkYXRhLXVpZD0ibG5rNDIiIGlkPSJsaW5rX1VzZXJQcm9maWxlX0Jvb2tpbmciPjxwYXRoIGNvZGVMaW5lPSIyNDEiIGQ9Ik0xMDc0Ljk4MDUsNDMxLjgxODIgQzEyNzYuMDEwNSw0NTEuOTE4MiAxNzE4LjgyLDUwMi42MjQ0IDE4NTcsNTcyLjQ4NDQgQzE5MDAuMjEsNTk0LjMzNDQgMTk0MC41OCw2MjguNTM0NCAxOTczLjUxLDY2MS43NzQ0IiBmaWxsPSJub25lIiBpZD0iVXNlclByb2ZpbGUtYmFja3RvLUJvb2tpbmciIHN0eWxlPSJzdHJva2U6IzE4MTgxODtzdHJva2Utd2lkdGg6MTsiLz48cG9seWdvbiBmaWxsPSIjMTgxODE4IiBwb2ludHM9IjEwNjMuMDQsNDMwLjYyNDQsMTA2OC42MTIzLDQzNS4yMDE1LDEwNzQuOTgwNSw0MzEuODE4MiwxMDY5LjQwODIsNDI3LjI0MTIsMTA2My4wNCw0MzAuNjI0NCIgc3R5bGU9InN0cm9rZTojMTgxODE4O3N0cm9rZS13aWR0aDoxOyIvPjx0ZXh0IGZpbGw9IiMwMDAwMDAiIGZvbnQtZmFtaWx5PSJzYW5zLXNlcmlmIiBmb250LXNpemU9IjEzIiBsZW5ndGhBZGp1c3Q9InNwYWNpbmciIHRleHRMZW5ndGg9IjMyLjUiIHg9IjE4MzQiIHk9IjU2Mi43NzM0Ij5tYWtlczwvdGV4dD48dGV4dCBmaWxsPSIjMDAwMDAwIiBmb250LWZhbWlseT0ic2Fucy1zZXJpZiIgZm9udC1zaXplPSIxMyIgbGVuZ3RoQWRqdXN0PSJzcGFjaW5nIiB0ZXh0TGVuZ3RoPSI2LjUiIHg9IjEwNzEuMDMxOSIgeT0iNDMwLjI0MzciPjE8L3RleHQ+PHRleHQgZmlsbD0iIzAwMDAwMCIgZm9udC1mYW1pbHk9InNhbnMtc2VyaWYiIGZvbnQtc2l6ZT0iMTMiIGxlbmd0aEFkanVzdD0ic3BhY2luZyIgdGV4dExlbmd0aD0iMjYiIHg9IjE5MzkuNjAyMiIgeT0iNjUyLjM1MzYiPjAuLio8L3RleHQ+PC9nPjwhLS1yZXZlcnNlIGxpbmsgRmllbGQgdG8gQm9va2luZy0tPjxnIGNsYXNzPSJsaW5rIiBkYXRhLWVudGl0eS0xPSJGaWVsZCIgZGF0YS1lbnRpdHktMj0iQm9va2luZyIgZGF0YS1zb3VyY2UtbGluZT0iMjQyIiBkYXRhLXVpZD0ibG5rNDMiIGlkPSJsaW5rX0ZpZWxkX0Jvb2tpbmciPjxwYXRoIGNvZGVMaW5lPSIyNDIiIGQ9Ik0yNTk5LjkyNTcsNTA2LjU5MjcgQzI1NDcuNTg1Nyw1MzEuMzkyNyAyNDk4LDU1MC42OTQ0IDI0NDAsNTY0LjQ4NDQgQzIzOTkuOTcsNTc0LjAwNDQgMjI5Mi45MSw1NTYuNDg0NCAyMjU1LDU3Mi40ODQ0IEMyMjA4Ljg2LDU5MS45NjQ0IDIxNjYuOTYsNjI3LjIyNDQgMjEzMy42Myw2NjEuOTY0NCIgZmlsbD0ibm9uZSIgaWQ9IkZpZWxkLWJhY2t0by1Cb29raW5nIiBzdHlsZT0ic3Ryb2tlOiMxODE4MTg7c3Ryb2tlLXdpZHRoOjE7Ii8+PHBvbHlnb24gZmlsbD0iIzE4MTgxOCIgcG9pbnRzPSIyNjEwLjc3LDUwMS40NTQ0LDI2MDMuNjM1MSw1MDAuNDA4OCwyNTk5LjkyNTcsNTA2LjU5MjcsMjYwNy4wNjA2LDUwNy42MzgzLDI2MTAuNzcsNTAxLjQ1NDQiIHN0eWxlPSJzdHJva2U6IzE4MTgxODtzdHJva2Utd2lkdGg6MTsiLz48dGV4dCBmaWxsPSIjMDAwMDAwIiBmb250LWZhbWlseT0ic2Fucy1zZXJpZiIgZm9udC1zaXplPSIxMyIgbGVuZ3RoQWRqdXN0PSJzcGFjaW5nIiB0ZXh0TGVuZ3RoPSIzOSIgeD0iMjQ4NiIgeT0iNTYyLjc3MzQiPmlzIGZvcjwvdGV4dD48dGV4dCBmaWxsPSIjMDAwMDAwIiBmb250LWZhbWlseT0ic2Fucy1zZXJpZiIgZm9udC1zaXplPSIxMyIgbGVuZ3RoQWRqdXN0PSJzcGFjaW5nIiB0ZXh0TGVuZ3RoPSI2LjUiIHg9IjI1OTYuNjIyNyIgeT0iNTA0Ljg0NTMiPjE8L3RleHQ+PHRleHQgZmlsbD0iIzAwMDAwMCIgZm9udC1mYW1pbHk9InNhbnMtc2VyaWYiIGZvbnQtc2l6ZT0iMTMiIGxlbmd0aEFkanVzdD0ic3BhY2luZyIgdGV4dExlbmd0aD0iMjYiIHg9IjIxMTMuMTg0MSIgeT0iNjUyLjIzMTMiPjAuLio8L3RleHQ+PC9nPjwhLS1saW5rIFRpbWVTbG90IHRvIEJvb2tpbmctLT48ZyBjbGFzcz0ibGluayIgZGF0YS1lbnRpdHktMT0iVGltZVNsb3QiIGRhdGEtZW50aXR5LTI9IkJvb2tpbmciIGRhdGEtc291cmNlLWxpbmU9IjI0MyIgZGF0YS11aWQ9ImxuazQ0IiBpZD0ibGlua19UaW1lU2xvdF9Cb29raW5nIj48cGF0aCBjb2RlTGluZT0iMjQzIiBkPSJNMjA1OS45OSw0ODkuNTc0NCBDMjA1OS4yNiw1MzkuMDA0NCAyMDU4LjI3LDYwNi42MDQ0IDIwNTcuNDUsNjYxLjg0NDQiIGZpbGw9Im5vbmUiIGlkPSJUaW1lU2xvdC1Cb29raW5nIiBzdHlsZT0ic3Ryb2tlOiMxODE4MTg7c3Ryb2tlLXdpZHRoOjE7Ii8+PHRleHQgZmlsbD0iIzAwMDAwMCIgZm9udC1mYW1pbHk9InNhbnMtc2VyaWYiIGZvbnQtc2l6ZT0iMTMiIGxlbmd0aEFkanVzdD0ic3BhY2luZyIgdGV4dExlbmd0aD0iMTMiIHg9IjIwNjAiIHk9IjU2Mi43NzM0Ij5hdDwvdGV4dD48dGV4dCBmaWxsPSIjMDAwMDAwIiBmb250LWZhbWlseT0ic2Fucy1zZXJpZiIgZm9udC1zaXplPSIxMyIgbGVuZ3RoQWRqdXN0PSJzcGFjaW5nIiB0ZXh0TGVuZ3RoPSI2LjUiIHg9IjIwNTMuNjAyMyIgeT0iNTA5LjcxMDYiPjE8L3RleHQ+PHRleHQgZmlsbD0iIzAwMDAwMCIgZm9udC1mYW1pbHk9InNhbnMtc2VyaWYiIGZvbnQtc2l6ZT0iMTMiIGxlbmd0aEFkanVzdD0ic3BhY2luZyIgdGV4dExlbmd0aD0iMjYiIHg9IjIwMzAuNDkzNSIgeT0iNjUyLjQyOTQiPjAuLio8L3RleHQ+PC9nPjwhLS1yZXZlcnNlIGxpbmsgQm9va2luZyB0byBQYXltZW50LS0+PGcgY2xhc3M9ImxpbmsiIGRhdGEtZW50aXR5LTE9IkJvb2tpbmciIGRhdGEtZW50aXR5LTI9IlBheW1lbnQiIGRhdGEtc291cmNlLWxpbmU9IjI0NiIgZGF0YS11aWQ9ImxuazQ1IiBpZD0ibGlua19Cb29raW5nX1BheW1lbnQiPjxwYXRoIGNvZGVMaW5lPSIyNDYiIGQ9Ik0yMTY2LjE5MzksODY4LjM0ODQgQzIyMDQuMjAzOSw5MDUuMDM4NCAyMjM4Ljg5LDkzOC41MjQ0IDIyNzcuNTgsOTc1Ljg2NDQiIGZpbGw9Im5vbmUiIGlkPSJCb29raW5nLWJhY2t0by1QYXltZW50IiBzdHlsZT0ic3Ryb2tlOiMxODE4MTg7c3Ryb2tlLXdpZHRoOjE7Ii8+PHBvbHlnb24gZmlsbD0iIzE4MTgxOCIgcG9pbnRzPSIyMTU3LjU2LDg2MC4wMTQ0LDIxNTkuMDk4OSw4NjcuMDU5NCwyMTY2LjE5MzksODY4LjM0ODQsMjE2NC42NTUsODYxLjMwMzQsMjE1Ny41Niw4NjAuMDE0NCIgc3R5bGU9InN0cm9rZTojMTgxODE4O3N0cm9rZS13aWR0aDoxOyIvPjx0ZXh0IGZpbGw9IiMwMDAwMDAiIGZvbnQtZmFtaWx5PSJzYW5zLXNlcmlmIiBmb250LXNpemU9IjEzIiBsZW5ndGhBZGp1c3Q9InNwYWNpbmciIHRleHRMZW5ndGg9IjUyIiB4PSIyMjQ3IiB5PSI5NDQuMjczNCI+cmVxdWlyZXM8L3RleHQ+PHRleHQgZmlsbD0iIzAwMDAwMCIgZm9udC1mYW1pbHk9InNhbnMtc2VyaWYiIGZvbnQtc2l6ZT0iMTMiIGxlbmd0aEFkanVzdD0ic3BhY2luZyIgdGV4dExlbmd0aD0iNi41IiB4PSIyMTU4LjgxNjQiIHk9Ijg4MC4wOTI2Ij4xPC90ZXh0Pjx0ZXh0IGZpbGw9IiMwMDAwMDAiIGZvbnQtZmFtaWx5PSJzYW5zLXNlcmlmIiBmb250LXNpemU9IjEzIiBsZW5ndGhBZGp1c3Q9InNwYWNpbmciIHRleHRMZW5ndGg9IjYuNSIgeD0iMjI2Mi45OTIiIHk9Ijk2Ni41MzQzIj4xPC90ZXh0PjwvZz48IS0tcmV2ZXJzZSBsaW5rIFZvdWNoZXIgdG8gUGF5bWVudC0tPjxnIGNsYXNzPSJsaW5rIiBkYXRhLWVudGl0eS0xPSJWb3VjaGVyIiBkYXRhLWVudGl0eS0yPSJQYXltZW50IiBkYXRhLXNvdXJjZS1saW5lPSIyNDciIGRhdGEtdWlkPSJsbms0NiIgaWQ9ImxpbmtfVm91Y2hlcl9QYXltZW50Ij48cGF0aCBjb2RlTGluZT0iMjQ3IiBkPSJNMjM4OC4yNjQyLDg3OS40ODQxIEMyMzg4LjA0NDIsOTE0LjI5NDEgMjM4Ny44OCw5NDEuMDA0NCAyMzg3LjY2LDk3NS44MjQ0IiBmaWxsPSJub25lIiBpZD0iVm91Y2hlci1iYWNrdG8tUGF5bWVudCIgc3R5bGU9InN0cm9rZTojMTgxODE4O3N0cm9rZS13aWR0aDoxOyIvPjxwb2x5Z29uIGZpbGw9Im5vbmUiIHBvaW50cz0iMjM4OC4zNCw4NjcuNDg0NCwyMzg0LjMwMjIsODczLjQ1OSwyMzg4LjI2NDIsODc5LjQ4NDEsMjM5Mi4zMDIsODczLjUwOTUsMjM4OC4zNCw4NjcuNDg0NCIgc3R5bGU9InN0cm9rZTojMTgxODE4O3N0cm9rZS13aWR0aDoxOyIvPjx0ZXh0IGZpbGw9IiMwMDAwMDAiIGZvbnQtZmFtaWx5PSJzYW5zLXNlcmlmIiBmb250LXNpemU9IjEzIiBsZW5ndGhBZGp1c3Q9InNwYWNpbmciIHRleHRMZW5ndGg9IjQ1LjUiIHg9IjIzODgiIHk9Ijk0NC4yNzM0Ij5hcHBsaWVzPC90ZXh0Pjx0ZXh0IGZpbGw9IiMwMDAwMDAiIGZvbnQtZmFtaWx5PSJzYW5zLXNlcmlmIiBmb250LXNpemU9IjEzIiBsZW5ndGhBZGp1c3Q9InNwYWNpbmciIHRleHRMZW5ndGg9IjYuNSIgeD0iMjM4Mi4xMDAyIiB5PSI4ODcuNzU2OSI+MTwvdGV4dD48dGV4dCBmaWxsPSIjMDAwMDAwIiBmb250LWZhbWlseT0ic2Fucy1zZXJpZiIgZm9udC1zaXplPSIxMyIgbGVuZ3RoQWRqdXN0PSJzcGFjaW5nIiB0ZXh0TGVuZ3RoPSIyNiIgeD0iMjM2MC43MTUyIiB5PSI5NjYuNDkxMiI+MC4uKjwvdGV4dD48L2c+PCEtLXJldmVyc2UgbGluayBVc2VyUHJvZmlsZSB0byBSZXZpZXctLT48ZyBjbGFzcz0ibGluayIgZGF0YS1lbnRpdHktMT0iVXNlclByb2ZpbGUiIGRhdGEtZW50aXR5LTI9IlJldmlldyIgZGF0YS1zb3VyY2UtbGluZT0iMjUwIiBkYXRhLXVpZD0ibG5rNDciIGlkPSJsaW5rX1VzZXJQcm9maWxlX1JldmlldyI+PHBhdGggY29kZUxpbmU9IjI1MCIgZD0iTTEwNzUuMjE5OCw0MzEuNDg0OSBDMTI1MS43NDk4LDQ0OS4yMzQ5IDE2MDMuNiw0OTMuMzM0NCAxNzAwLDU3Mi40ODQ0IEMxNzQwLjY4LDYwNS44ODQ0IDE3NjAuNzcsNjYzLjkyNDQgMTc3MC40NSw3MDYuNjA0NCIgZmlsbD0ibm9uZSIgaWQ9IlVzZXJQcm9maWxlLWJhY2t0by1SZXZpZXciIHN0eWxlPSJzdHJva2U6IzE4MTgxODtzdHJva2Utd2lkdGg6MTsiLz48cG9seWdvbiBmaWxsPSIjMTgxODE4IiBwb2ludHM9IjEwNjMuMjgsNDMwLjI4NDQsMTA2OC44NDk3LDQzNC44NjQ2LDEwNzUuMjE5OCw0MzEuNDg0OSwxMDY5LjY1MDEsNDI2LjkwNDcsMTA2My4yOCw0MzAuMjg0NCIgc3R5bGU9InN0cm9rZTojMTgxODE4O3N0cm9rZS13aWR0aDoxOyIvPjx0ZXh0IGZpbGw9IiMwMDAwMDAiIGZvbnQtZmFtaWx5PSJzYW5zLXNlcmlmIiBmb250LXNpemU9IjEzIiBsZW5ndGhBZGp1c3Q9InNwYWNpbmciIHRleHRMZW5ndGg9IjM5IiB4PSIxNjgzIiB5PSI1NjIuNzczNCI+d3JpdGVzPC90ZXh0Pjx0ZXh0IGZpbGw9IiMwMDAwMDAiIGZvbnQtZmFtaWx5PSJzYW5zLXNlcmlmIiBmb250LXNpemU9IjEzIiBsZW5ndGhBZGp1c3Q9InNwYWNpbmciIHRleHRMZW5ndGg9IjYuNSIgeD0iMTA3MC45NzY4IiB5PSI0NDMuODYiPjE8L3RleHQ+PHRleHQgZmlsbD0iIzAwMDAwMCIgZm9udC1mYW1pbHk9InNhbnMtc2VyaWYiIGZvbnQtc2l6ZT0iMTMiIGxlbmd0aEFkanVzdD0ic3BhY2luZyIgdGV4dExlbmd0aD0iMjYiIHg9IjE3NDEuNDE5NSIgeT0iNjk3LjQwMDkiPjAuLio8L3RleHQ+PC9nPjwhLS1yZXZlcnNlIGxpbmsgRmllbGQgdG8gUmV2aWV3LS0+PGcgY2xhc3M9ImxpbmsiIGRhdGEtZW50aXR5LTE9IkZpZWxkIiBkYXRhLWVudGl0eS0yPSJSZXZpZXciIGRhdGEtc291cmNlLWxpbmU9IjI1MSIgZGF0YS11aWQ9ImxuazQ4IiBpZD0ibGlua19GaWVsZF9SZXZpZXciPjxwYXRoIGNvZGVMaW5lPSIyNTEiIGQ9Ik0yNTk5LjQwMiw0NzAuMzkxMyBDMjQ4NC4zOTIsNTA0LjAxMTMgMjMzMC44OCw1NDMuOTc0NCAyMTgzLDU2NC40ODQ0IEMyMTU1LjAzLDU2OC4zNjQ0IDE5NTQuMjUsNTU5Ljg1NDQgMTkyOSw1NzIuNDg0NCBDMTg3Mi4xNCw2MDAuOTI0NCAxODI5LjgsNjYyLjAxNDQgMTgwNC44NSw3MDYuNzY0NCIgZmlsbD0ibm9uZSIgaWQ9IkZpZWxkLWJhY2t0by1SZXZpZXciIHN0eWxlPSJzdHJva2U6IzE4MTgxODtzdHJva2Utd2lkdGg6MTsiLz48cG9seWdvbiBmaWxsPSIjMTgxODE4IiBwb2ludHM9IjI2MTAuOTIsNDY3LjAyNDQsMjYwNC4wMzg3LDQ2NC44Njg1LDI1OTkuNDAyLDQ3MC4zOTEzLDI2MDYuMjgzMyw0NzIuNTQ3MiwyNjEwLjkyLDQ2Ny4wMjQ0IiBzdHlsZT0ic3Ryb2tlOiMxODE4MTg7c3Ryb2tlLXdpZHRoOjE7Ii8+PHRleHQgZmlsbD0iIzAwMDAwMCIgZm9udC1mYW1pbHk9InNhbnMtc2VyaWYiIGZvbnQtc2l6ZT0iMTMiIGxlbmd0aEFkanVzdD0ic3BhY2luZyIgdGV4dExlbmd0aD0iNTIiIHg9IjIyNjMiIHk9IjU2Mi43NzM0Ij5yZWNlaXZlczwvdGV4dD48dGV4dCBmaWxsPSIjMDAwMDAwIiBmb250LWZhbWlseT0ic2Fucy1zZXJpZiIgZm9udC1zaXplPSIxMyIgbGVuZ3RoQWRqdXN0PSJzcGFjaW5nIiB0ZXh0TGVuZ3RoPSI2LjUiIHg9IjI1OTYuMzE1OCIgeT0iNDY4LjY1OTIiPjE8L3RleHQ+PHRleHQgZmlsbD0iIzAwMDAwMCIgZm9udC1mYW1pbHk9InNhbnMtc2VyaWYiIGZvbnQtc2l6ZT0iMTMiIGxlbmd0aEFkanVzdD0ic3BhY2luZyIgdGV4dExlbmd0aD0iMjYiIHg9IjE3ODAuNzM3MyIgeT0iNjk3LjIwNjkiPjAuLio8L3RleHQ+PC9nPjwhLS1yZXZlcnNlIGxpbmsgVXNlclByb2ZpbGUgdG8gTm90aWZpY2F0aW9uLS0+PGcgY2xhc3M9ImxpbmsiIGRhdGEtZW50aXR5LTE9IlVzZXJQcm9maWxlIiBkYXRhLWVudGl0eS0yPSJOb3RpZmljYXRpb24iIGRhdGEtc291cmNlLWxpbmU9IjI1MiIgZGF0YS11aWQ9ImxuazQ5IiBpZD0ibGlua19Vc2VyUHJvZmlsZV9Ob3RpZmljYXRpb24iPjxwYXRoIGNvZGVMaW5lPSIyNTIiIGQ9Ik0xMDI4LjY2OTIsNDk4LjkwMjIgQzEwNzYuMjQ5Miw1NTcuNjkyMiAxMTM3LjExLDYzMi44NzQ0IDExODQuNzQsNjkxLjcxNDQiIGZpbGw9Im5vbmUiIGlkPSJVc2VyUHJvZmlsZS1iYWNrdG8tTm90aWZpY2F0aW9uIiBzdHlsZT0ic3Ryb2tlOiMxODE4MTg7c3Ryb2tlLXdpZHRoOjE7Ii8+PHBvbHlnb24gZmlsbD0iIzE4MTgxOCIgcG9pbnRzPSIxMDIxLjEyLDQ4OS41NzQ0LDEwMjEuNzg1Myw0OTYuNzU0NywxMDI4LjY2OTIsNDk4LjkwMjIsMTAyOC4wMDM5LDQ5MS43MjE5LDEwMjEuMTIsNDg5LjU3NDQiIHN0eWxlPSJzdHJva2U6IzE4MTgxODtzdHJva2Utd2lkdGg6MTsiLz48dGV4dCBmaWxsPSIjMDAwMDAwIiBmb250LWZhbWlseT0ic2Fucy1zZXJpZiIgZm9udC1zaXplPSIxMyIgbGVuZ3RoQWRqdXN0PSJzcGFjaW5nIiB0ZXh0TGVuZ3RoPSI1MiIgeD0iMTA3OSIgeT0iNTYyLjc3MzQiPnJlY2VpdmVzPC90ZXh0Pjx0ZXh0IGZpbGw9IiMwMDAwMDAiIGZvbnQtZmFtaWx5PSJzYW5zLXNlcmlmIiBmb250LXNpemU9IjEzIiBsZW5ndGhBZGp1c3Q9InNwYWNpbmciIHRleHRMZW5ndGg9IjYuNSIgeD0iMTAyMC41MjA3IiB5PSI1MDkuNzEwNiI+MTwvdGV4dD48dGV4dCBmaWxsPSIjMDAwMDAwIiBmb250LWZhbWlseT0ic2Fucy1zZXJpZiIgZm9udC1zaXplPSIxMyIgbGVuZ3RoQWRqdXN0PSJzcGFjaW5nIiB0ZXh0TGVuZ3RoPSIyNiIgeD0iMTE1MC44NDc0IiB5PSI2ODIuMzAwOCI+MC4uKjwvdGV4dD48L2c+PCEtLXJldmVyc2UgbGluayBVc2VyUHJvZmlsZSB0byBGZWVkYmFjay0tPjxnIGNsYXNzPSJsaW5rIiBkYXRhLWVudGl0eS0xPSJVc2VyUHJvZmlsZSIgZGF0YS1lbnRpdHktMj0iRmVlZGJhY2siIGRhdGEtc291cmNlLWxpbmU9IjI1MyIgZGF0YS11aWQ9ImxuazUwIiBpZD0ibGlua19Vc2VyUHJvZmlsZV9GZWVkYmFjayI+PHBhdGggY29kZUxpbmU9IjI1MyIgZD0iTTEwNzQuNTkwMyw0NTMuNzUwMyBDMTE1MS4wNzAzLDQ3OC44ODAzIDEyNDYuODYsNTE2LjQ5NDQgMTMzMCw1NzIuNDg0NCBDMTM2My45NSw1OTUuMzQ0NCAxMzk2Ljc3LDYyNS4xNDQ0IDE0MjUuMTEsNjU0LjIyNDQiIGZpbGw9Im5vbmUiIGlkPSJVc2VyUHJvZmlsZS1iYWNrdG8tRmVlZGJhY2siIHN0eWxlPSJzdHJva2U6IzE4MTgxODtzdHJva2Utd2lkdGg6MTsiLz48cG9seWdvbiBmaWxsPSIjMTgxODE4IiBwb2ludHM9IjEwNjMuMTksNDUwLjAwNDQsMTA2Ny42NDE1LDQ1NS42Nzc1LDEwNzQuNTkwMyw0NTMuNzUwMywxMDcwLjEzODgsNDQ4LjA3NzIsMTA2My4xOSw0NTAuMDA0NCIgc3R5bGU9InN0cm9rZTojMTgxODE4O3N0cm9rZS13aWR0aDoxOyIvPjx0ZXh0IGZpbGw9IiMwMDAwMDAiIGZvbnQtZmFtaWx5PSJzYW5zLXNlcmlmIiBmb250LXNpemU9IjEzIiBsZW5ndGhBZGp1c3Q9InNwYWNpbmciIHRleHRMZW5ndGg9IjQ1LjUiIHg9IjEzMTMiIHk9IjU2Mi43NzM0Ij5zdWJtaXRzPC90ZXh0Pjx0ZXh0IGZpbGw9IiMwMDAwMDAiIGZvbnQtZmFtaWx5PSJzYW5zLXNlcmlmIiBmb250LXNpemU9IjEzIiBsZW5ndGhBZGp1c3Q9InNwYWNpbmciIHRleHRMZW5ndGg9IjYuNSIgeD0iMTA3MC44Nzk5IiB5PSI0NjUuMDg5OCI+MTwvdGV4dD48dGV4dCBmaWxsPSIjMDAwMDAwIiBmb250LWZhbWlseT0ic2Fucy1zZXJpZiIgZm9udC1zaXplPSIxMyIgbGVuZ3RoQWRqdXN0PSJzcGFjaW5nIiB0ZXh0TGVuZ3RoPSIyNiIgeD0iMTM5MS4yMzI1IiB5PSI2NDQuODgzNSI+MC4uKjwvdGV4dD48L2c+PCEtLWxpbmsgVXNlclByb2ZpbGUgdG8gRmVlZGJhY2stLT48ZyBjbGFzcz0ibGluayIgZGF0YS1lbnRpdHktMT0iVXNlclByb2ZpbGUiIGRhdGEtZW50aXR5LTI9IkZlZWRiYWNrIiBkYXRhLXNvdXJjZS1saW5lPSIyNTYiIGRhdGEtdWlkPSJsbms1MyIgaWQ9ImxpbmtfVXNlclByb2ZpbGVfRmVlZGJhY2siPjxwYXRoIGNvZGVMaW5lPSIyNTYiIGQ9Ik0xMDYzLjA1LDQzNC41MjQ0IEMxMTQ5LjYxLDQ1MC4wNzQ0IDEyNzYuMyw0ODIuODY0NCAxMzY3LDU0OS40ODQ0IEMxNDA0LjM2LDU3Ni45MjQ0IDE0MzUuNzQsNjE2LjY5NDQgMTQ1OS44Niw2NTQuMjk0NCIgZmlsbD0ibm9uZSIgaWQ9IlVzZXJQcm9maWxlLUZlZWRiYWNrIiBzdHlsZT0ic3Ryb2tlOiMxODE4MTg7c3Ryb2tlLXdpZHRoOjE7Ii8+PHRleHQgZmlsbD0iIzAwMDAwMCIgZm9udC1mYW1pbHk9InNhbnMtc2VyaWYiIGZvbnQtc2l6ZT0iMTMiIGxlbmd0aEFkanVzdD0ic3BhY2luZyIgdGV4dExlbmd0aD0iNzEuNSIgeD0iMTM4NCIgeT0iNTYyLjc3MzQiPmFzc2lnbmVkIHRvPC90ZXh0Pjx0ZXh0IGZpbGw9IiMwMDAwMDAiIGZvbnQtZmFtaWx5PSJzYW5zLXNlcmlmIiBmb250LXNpemU9IjEzIiBsZW5ndGhBZGp1c3Q9InNwYWNpbmciIHRleHRMZW5ndGg9IjYuNSIgeD0iMTA3MS4wNDI3IiB5PSI0NDguNDkwNCI+MTwvdGV4dD48dGV4dCBmaWxsPSIjMDAwMDAwIiBmb250LWZhbWlseT0ic2Fucy1zZXJpZiIgZm9udC1zaXplPSIxMyIgbGVuZ3RoQWRqdXN0PSJzcGFjaW5nIiB0ZXh0TGVuZ3RoPSIyNiIgeD0iMTQyOC42NDMiIHk9IjY0NC45NTg5Ij4wLi4qPC90ZXh0PjwvZz48IS0tcmV2ZXJzZSBsaW5rIEZlZWRiYWNrIHRvIEZlZWRiYWNrUmVzcG9uc2UtLT48ZyBjbGFzcz0ibGluayIgZGF0YS1lbnRpdHktMT0iRmVlZGJhY2siIGRhdGEtZW50aXR5LTI9IkZlZWRiYWNrUmVzcG9uc2UiIGRhdGEtc291cmNlLWxpbmU9IjI1NCIgZGF0YS11aWQ9ImxuazUxIiBpZD0ibGlua19GZWVkYmFja19GZWVkYmFja1Jlc3BvbnNlIj48cGF0aCBjb2RlTGluZT0iMjU0IiBkPSJNMTQ2NC42NzI1LDg3OC41MDEgQzE0NDAuMDIyNSw5MzUuNTgxIDE0MTUuNiw5OTIuMTE0NCAxMzk2LjcyLDEwMzUuODM0NCIgZmlsbD0ibm9uZSIgaWQ9IkZlZWRiYWNrLWJhY2t0by1GZWVkYmFja1Jlc3BvbnNlIiBzdHlsZT0ic3Ryb2tlOiMxODE4MTg7c3Ryb2tlLXdpZHRoOjE7Ii8+PHBvbHlnb24gZmlsbD0iIzE4MTgxOCIgcG9pbnRzPSIxNDY5LjQzLDg2Ny40ODQ0LDE0NjMuMzc5LDg3MS40MDY4LDE0NjQuNjcyNSw4NzguNTAxLDE0NzAuNzIzNCw4NzQuNTc4NSwxNDY5LjQzLDg2Ny40ODQ0IiBzdHlsZT0ic3Ryb2tlOiMxODE4MTg7c3Ryb2tlLXdpZHRoOjE7Ii8+PHRleHQgZmlsbD0iIzAwMDAwMCIgZm9udC1mYW1pbHk9InNhbnMtc2VyaWYiIGZvbnQtc2l6ZT0iMTMiIGxlbmd0aEFkanVzdD0ic3BhY2luZyIgdGV4dExlbmd0aD0iNTIiIHg9IjE0NDIiIHk9Ijk0NC4yNzM0Ij5jb250YWluczwvdGV4dD48dGV4dCBmaWxsPSIjMDAwMDAwIiBmb250LWZhbWlseT0ic2Fucy1zZXJpZiIgZm9udC1zaXplPSIxMyIgbGVuZ3RoQWRqdXN0PSJzcGFjaW5nIiB0ZXh0TGVuZ3RoPSI2LjUiIHg9IjE0NjAuMDMyNSIgeT0iODg3Ljc1NjkiPjE8L3RleHQ+PHRleHQgZmlsbD0iIzAwMDAwMCIgZm9udC1mYW1pbHk9InNhbnMtc2VyaWYiIGZvbnQtc2l6ZT0iMTMiIGxlbmd0aEFkanVzdD0ic3BhY2luZyIgdGV4dExlbmd0aD0iMjYiIHg9IjEzNzEuODMzIiB5PSIxMDI2LjQiPjAuLio8L3RleHQ+PC9nPjwhLS1saW5rIFVzZXJQcm9maWxlIHRvIEZlZWRiYWNrUmVzcG9uc2UtLT48ZyBjbGFzcz0ibGluayIgZGF0YS1lbnRpdHktMT0iVXNlclByb2ZpbGUiIGRhdGEtZW50aXR5LTI9IkZlZWRiYWNrUmVzcG9uc2UiIGRhdGEtc291cmNlLWxpbmU9IjI1NSIgZGF0YS11aWQ9ImxuazUyIiBpZD0ibGlua19Vc2VyUHJvZmlsZV9GZWVkYmFja1Jlc3BvbnNlIj48cGF0aCBjb2RlTGluZT0iMjU1IiBkPSJNODkzLjc2LDQ4OS42NDQ0IEM4ODAuMTYsNTAwLjUwNDQgODY1LjYxLDUxMC45NTQ0IDg1MSw1MTkuNDg0NCBDNzkxLjczLDU1NC4wNTQ0IDc0NS4zMiw1MTYuMjU0NCA3MDYsNTcyLjQ4NDQgQzYxNi43NCw3MDAuMTU0NCA2MDkuMzQsODAwLjgyNDQgNzA2LDkyMi45ODQ0IEM3ODAuMTgsMTAxNi43MzQ0IDExNDcuMTIsMTA2MC42ODQ0IDEzMDQuNzksMTA3NS40NjQ0IiBmaWxsPSJub25lIiBpZD0iVXNlclByb2ZpbGUtRmVlZGJhY2tSZXNwb25zZSIgc3R5bGU9InN0cm9rZTojMTgxODE4O3N0cm9rZS13aWR0aDoxOyIvPjx0ZXh0IGZpbGw9IiMwMDAwMDAiIGZvbnQtZmFtaWx5PSJzYW5zLXNlcmlmIiBmb250LXNpemU9IjEzIiBsZW5ndGhBZGp1c3Q9InNwYWNpbmciIHRleHRMZW5ndGg9IjUyIiB4PSI3MDciIHk9Ijc2Ni43NzM0Ij5yZXNwb25kczwvdGV4dD48dGV4dCBmaWxsPSIjMDAwMDAwIiBmb250LWZhbWlseT0ic2Fucy1zZXJpZiIgZm9udC1zaXplPSIxMyIgbGVuZ3RoQWRqdXN0PSJzcGFjaW5nIiB0ZXh0TGVuZ3RoPSI2LjUiIHg9Ijg4MC4wMjY3IiB5PSI1MDkuNzg3OCI+MTwvdGV4dD48dGV4dCBmaWxsPSIjMDAwMDAwIiBmb250LWZhbWlseT0ic2Fucy1zZXJpZiIgZm9udC1zaXplPSIxMyIgbGVuZ3RoQWRqdXN0PSJzcGFjaW5nIiB0ZXh0TGVuZ3RoPSIyNiIgeD0iMTI3MC45MzQ3IiB5PSIxMDczLjU1MTQiPjAuLio8L3RleHQ+PC9nPjwhLS1TUkM9W2hMWFZSLUY2NE5fTmZuWXVHMm1kVGYxQkJhMUJlMHlxSkxkNElSSEVlYnBhd1IwY3J6QjI1OVRQQmtLd25HNno3ajAwMW5IODZnMGxWUWNsQnFMVldnOTBZcmYwLWcyV3RxRlZmQkZCRm85NU1KT2tmbVRvRUppeEVwaXhWdHdaVlIxMmFZSG1taVg0YTFjcVh5b1ZtV2NWNEhQMWRtU3FGODBaNjdJVHZIaU5aYlR0UnJxT3VOV0NMalMxcHJkVF9VMnJNZkI5YTQ5dGpWV1F2N0lyLTNRUW04X1ZoRXgtQkk1UGxldFdPbGJGSFZic1VPa1lIbC14blU1Z3lIdHFMZWlfbnoyc2ZXbWFNenR6THVBN1FuZEVhZURNQXhiWUtLb0tJaHZJcTlISWk4aktLaVZkcU9YekhVNkoyYWpDXzJpb2VWMlI1aTBuWllVMmZyNVd5UDBCLTlianNQdEVLcE4zSEsxNUpadHYtT2JqX3dCcmlqTlFYcnkteWpTZ3pqY3BldElNZUV4Qk1uLWtzNmhuRWVMV2pWV1VHWG5fZE84S2d4alJGQkVTQmNfUG1QeE1ZLThJQzdxVkRQQ1pJTUlRUTNBMFFOZEVrUXM3ZV81ZU9CaWR6ZWQtS2FGN0ZOcm5SVy1UWmNFUGRkRmN1aUpCR2JZN3FKMmVZcGV0ZFB2dnRDa2F6S3Q3ek1wTlRBdGlzLWdUWlJKZUtpOG52c1ozSUtyNmlVbDBfQTlsa3J3c3lpcGpFQ0QtaGZVYjlGUHduVFRQVnoycGxSaFcwUmNQcU9ycHZlQnBXcmdNRkhoZlNHVHJwY0tEeFN1dUZfeHdiOUc2NXNYdFlxV3d1VThjYnRPeUZkcW5qMFRkbXFwM1pjcnd1dzZEZkVUWlUtSWpETENzczJRa2ZmZmhfcWdfN1ZWNU83WHNFWW5LbXk1UHhwcE52bnJUdlNkN3kwbjN1bmk3bllEeDIxeldDMnJfdnlCcHlIVWhuTV9UbExtM3hVR21KZ1dPMjd4OUdmaEowSnUyNVhZR2VGajdhdjlxY09RWElzUXFDSDVGVUtKVFQ3UDFITUVFcDhhYU9ZcDJuZW1sQTVldENBSzE5cFo4d0tUNzlLQ1ExcVdfZVBBbUM2ZFpjMW1PQ0VTaXExbmVjVktQWGhvWEY4amEtSHJMajhQendEbHpPdGp1MkVQOXR0NEZPVUlQZEt2SlBYdXNrc3IyQ01TclpuUlotY2lDXzJ2OWZpcjltVVNpTTlpQTVHZ3ZKeTkzYzcwLTJNZDljNlhsQ1VobmtyT2NFUVUyTkpBQUlicm1GMy05b1pkS05fUnVYNE50Y1RRVmFjWDIxeGNRUkh1NlFkbTg0UnJNV3dnVDVWalN4TkpKdFlHZFFIQkpBNlpHWUl5UE5aampCZzFJdExIUnVDRkdiclFfcU5WcXphekJSbnlmQnB6VVZrVVVlaS1WaG5QbG0xaWtfcjN0VHBDODE0c0l0VlVBZHZKQTNWQS1pWG9KRHVTR0MzTlhvcUV1OVlBMFRoWnkyX1dnQndqSXo4X2l6SGU0TV91emNYbXFwSi1YaWVGMWI2a1lwNUpQZi1RNE95YjJ0RjZIbGhyY21lQXI2TkNya0pnRFVwVm4wbzZfTE5YMDRyLW1NMzhVRlIzMVVuSFUzT1hBM01oUWJXSDFSaEhzY2hzRG1lZ1J4WVplWkNfZk94YkhpM0QzVnNpcHpLSmg3YzhDTVlYMDdFR2d3VWNnaS1sUG9nOGd0d1B1Wmc3SzIxV192MGRqU0Q1N1AySGZIMkFfN2JHbHpORkp4NWgtUmppTlBzWEVQNFVndnZIdFppcEZvaVhLc0VuVk5YUVc3eTJmaXRtNTVZQXhVY1h3UjRQNzhQU3h0MXJ6RzRaNVBzWmtUSUFFV1l0SzY4Q0tRUDZrSlBLcDNZWXZ3bDlLUkFSRUhsS1BBMDVqYkhSTHVEeHdhc0VRdEpRX285WEtIZ3hidk96MFNhZDJtTFBUMnYtbGVRUjdycjNDMHZUQ3A5Z0VmTG1mUkVGb1AxcmUzSU8tWXFFdzlPelpqVkJKNDNWcUlpS0xKekZDTThUb25UTnlVdDZmZndMQlVMdEp4Tzl0amRvYk5FZlA1eTdEdEd5a3o5VWxkUmZSZFZGS2RyQW4tdFB5eDNrUXNPV2JrbFFRQ19MaWRCMk83YjNYOF9CSzRMdnJyWmE5TVQwSFZCUG50dmhreUdyZ2NnMjA3ZmluTVBVWXdMUWNtOWZVSk5ibjdEdnVsMXJkMERXZWFGM2NqUjc0X2ROQzEwcXNCb0VSNzlWeDNvYjFXbU5ERXdpT0RUelpqcjc5VGhqVGllWTR6ellxU0ZXUWNneVdBcXRqS3BkYnBVc2E4NTZZcTBVRmg2dE5rSnJTcmV3LTh2MWNINW9Qb0laclZMTW56S1BnWXFxSlBzbVQxOE1xWU9qT24ySDN3S0R3Y01RbUFIbHpqODN1bDBtOFZGdTkwU3pneUxPWlZqcXU4LXNGNi00bWY3RDZodFRWZDIwSUYtai1ZNVJBdEVpSExjcUs5ZlRCMUFpLUtOVXBVc2xUczZ5OUpySzB2UFB3WFN3dzFHOF9jMWNwY3JBQjd3WWVVVV9zRmZOc3l4UklRM0lRSlFuSlFucVZ6Nko0YXBvU3hwZXRtZldYSk04VTlPWjN5eTV3Y3NBZzBOd0lYNHFZcDM0YWNBY3NlajhxRGI2TExjNHhiZGNTaEdpajdpaE96clh0Z3B6WVQ2NXU3SHFUQUlZb1U4RUxtcHRqX2xXdDR3cGJBbWx3RWUyVVpxcVRDUi1sX0RFYWJnWUxwd1J3Wnc4ZHNUYlJyUXZ2eHlhVVY4WTJpVXQtIC1DRXppZDRxTzRnSWJjdkQ1T1RZLTZJMzhRMk8yY2JJYVZ6ZlpYNVI2TzFVWXp1aDZuVDN6dWp1R1kyb21RT3RnQTMwSjhhcnQ1VVNWQXJBamptZUY5OXpYU2hpQXNrV0FiLWM5OEFmLWVGRGRSQkx1Ykx3YkJ6WFdnX2xJUnZ1WmhyRjNmY25DTGgtMXM3R25VaGtoX1lBYjlYRDNSRHpZeHg2QURoWGdXcS1BLTdFX09nTks1NFZLMEN6MVMway1Kck5hd3FnUzlnMXVOejVhLXN3aFBiT2VXTU1Vek1sU1NzN3p4M01fY2JQa3JlNUhfS01ZeGZmT0ExeWNNOHJKYmU1RmphdXVmZko1TlhNQ3o3ZDFlcElFRVAyeFpma2RrYURrMVBDdGRWU2FhYkdkeDh2aWtzR000bFpacmpJOWIwQ3JGRzJxR05nS1Aza09JdFp0ejExWmlyRlN1VVRneEI0NVpuY2JKQWxKY3VPSnZCXzdtMDBdLS0+PC9nPjwvc3ZnPg==;" parent="1" vertex="1">
            <mxGeometry x="-1677" y="-224" width="3170" height="1235" as="geometry" />
          </mxCell>
        </UserObject>
      </root>
    </mxGraphModel>
  </diagram>
</mxfile>
